<svg width="108" height="108" viewBox="0 0 108 108" fill="none" xmlns="http://www.w3.org/2000/svg">
<rect width="108" height="108" rx="21" fill="#2E2E2E"/>
<path d="M52.7867 25.2404C53.0112 24.5494 53.9888 24.5494 54.2133 25.2404L56.6892 32.8604C57.1243 34.1995 58.3722 35.1061 59.7801 35.1061H67.7924C68.5189 35.1061 68.821 36.0358 68.2332 36.4629L61.7512 41.1724C60.6121 42 60.1355 43.4669 60.5705 44.806L63.0465 52.426C63.271 53.117 62.4801 53.6916 61.8923 53.2646L55.4103 48.5551C54.2712 47.7275 52.7288 47.7275 51.5897 48.5551L45.1077 53.2646C44.5199 53.6916 43.729 53.117 43.9536 52.426L46.4295 44.806C46.8646 43.4669 46.3879 42 45.2488 41.1724L38.7668 36.4629C38.179 36.0358 38.4811 35.1061 39.2077 35.1061H47.2199C48.6278 35.1061 49.8757 34.1995 50.3108 32.8604L52.7867 25.2404Z" stroke="white" stroke-width="2.5"/>
<path d="M45.25 64C45.25 63.3096 44.6904 62.75 44 62.75C43.3096 62.75 42.75 63.3096 42.75 64H45.25ZM64.25 64C64.25 63.3096 63.6904 62.75 63 62.75C62.3096 62.75 61.75 63.3096 61.75 64H64.25ZM61.2842 90.241L62.179 89.3681L61.2842 90.241ZM52.7842 82.9947L51.8894 82.1219L52.7842 82.9947ZM45.7158 90.241L44.821 89.3681L45.7158 90.241ZM42.75 64V89.5427H45.25V64H42.75ZM46.6106 91.1138L53.679 83.8676L51.8894 82.1219L44.821 89.3681L46.6106 91.1138ZM53.321 83.8676L60.3894 91.1138L62.179 89.3681L55.1106 82.1219L53.321 83.8676ZM64.25 89.5427V64H61.75V89.5427H64.25ZM60.3894 91.1138C61.7985 92.5584 64.25 91.5608 64.25 89.5427H61.75C61.75 89.5047 61.7642 89.4482 61.8007 89.3969C61.8331 89.3513 61.8716 89.325 61.9058 89.3111C61.9399 89.2973 61.9858 89.2891 62.0408 89.2992C62.1028 89.3105 62.1524 89.3409 62.179 89.3681L60.3894 91.1138ZM53.679 83.8676C53.5809 83.9681 53.4191 83.9681 53.321 83.8676L55.1106 82.1219C54.2277 81.2167 52.7723 81.2167 51.8894 82.1219L53.679 83.8676ZM42.75 89.5427C42.75 91.5608 45.2015 92.5584 46.6106 91.1138L44.821 89.3681C44.8476 89.3409 44.8972 89.3105 44.9592 89.2992C45.0142 89.2891 45.0601 89.2973 45.0942 89.3111C45.1284 89.325 45.1669 89.3513 45.1993 89.3969C45.2358 89.4482 45.25 89.5047 45.25 89.5427H42.75Z" fill="white"/>
<path d="M76.75 40C76.75 52.5403 66.365 62.75 53.5 62.75C40.635 62.75 30.25 52.5403 30.25 40C30.25 27.4597 40.635 17.25 53.5 17.25C66.365 17.25 76.75 27.4597 76.75 40Z" stroke="white" stroke-width="2.5"/>
</svg>
