<svg width="108" height="108" viewBox="0 0 108 108" fill="none" xmlns="http://www.w3.org/2000/svg">
<rect width="108" height="108" rx="21" fill="#2E2E2E"/>
<path d="M26.5521 86.6723C24.3649 85.9604 22.6825 84.5366 21.673 82.2229C21.3365 81.1551 21 79.9093 21 78.8414C21 70.4767 21 61.9339 21 53.5691C21 49.1198 24.0284 44.6704 29.4123 44.6704C38.4976 44.6704 47.7512 44.6704 56.8365 44.6704C61.3791 44.6704 65.9218 44.6704 70.6327 44.6704C73.4929 44.6704 75.8483 45.7383 77.5308 48.2299C78.372 49.6537 78.8768 51.0775 78.8768 52.8572C78.8768 61.5779 78.8768 70.2987 78.8768 79.0194C78.8768 83.2908 75.6801 86.8503 71.6422 87.0282C70.6327 87.0282 69.455 87.0282 68.4455 87.0282C58.6872 87.0282 48.9289 87.0282 39.0024 87.0282C38.3294 87.0282 37.9929 87.2062 37.4881 87.7401C35.1327 90.2318 32.9455 92.5454 30.59 95.0371C29.7488 95.9269 28.9076 96.2829 27.8981 95.749C26.8886 95.393 26.5521 94.3252 26.5521 93.2573C26.7204 90.9437 26.5521 88.808 26.5521 86.6723ZM28.9076 93.4353C29.2441 93.0794 29.4123 92.9014 29.5806 92.7234C31.936 90.2318 34.1232 87.9181 36.4787 85.4265C37.1517 84.7146 37.8246 84.5366 38.6659 84.5366C49.2654 84.5366 59.8649 84.5366 70.2962 84.5366C70.6327 84.5366 71.1374 84.5366 71.4739 84.5366C74.3341 84.3586 76.6896 81.867 76.6896 78.8414C76.6896 70.1207 76.6896 61.4 76.6896 52.8572C76.6896 51.6114 76.1848 50.3656 75.5118 49.2977C74.1659 47.696 72.4834 47.162 70.6327 47.162C61.3791 47.162 52.1256 47.162 42.872 47.162C38.3294 47.162 33.955 47.162 29.4123 47.162C25.7109 47.162 23.3555 49.6537 23.3555 53.5691C23.3555 61.7559 23.3555 70.1207 23.3555 78.3075C23.3555 81.1551 25.2062 84.0027 27.7299 84.5366C28.5711 84.7146 28.9076 85.2485 28.9076 86.1384C28.9076 88.452 28.9076 90.7657 28.9076 93.4353Z" fill="white"/>
<path d="M86.6162 63.1799C86.6162 65.4935 86.6162 67.6292 86.6162 69.7649C86.6162 70.8327 86.2797 71.7226 85.2702 72.2565C84.429 72.6125 83.4195 72.4345 82.7465 71.5446C82.2418 71.0107 81.9053 70.6548 81.4006 70.1208C80.8958 69.5869 80.8958 69.053 81.4006 68.5191C81.9053 67.9852 82.41 67.9852 82.9148 68.5191C83.4195 68.875 83.756 69.409 84.0925 69.9429C84.0925 69.9429 84.2608 69.9429 84.2608 69.7649C84.2608 68.3411 84.2608 66.7393 84.2608 65.3156C84.2608 64.4257 84.2608 63.5358 84.2608 62.468C84.2608 61.2221 84.429 61.0442 85.6067 60.6882C87.9622 59.9763 89.1399 58.3746 89.8129 56.0609C89.9811 55.7049 89.8129 55.171 89.8129 54.8151C89.8129 46.4503 89.8129 38.0855 89.8129 29.5428C89.8129 25.8053 87.6257 23.3137 84.0925 23.3137C83.4195 23.3137 82.7465 23.3137 81.9053 23.3137C68.7821 23.3137 55.8271 23.3137 42.7039 23.3137C41.5262 23.3137 40.3484 23.3137 39.339 24.0256C37.4883 25.0934 36.4788 26.8731 36.4788 29.1868C36.4788 32.9243 36.4788 36.8397 36.4788 40.5772C36.4788 41.1111 36.3105 41.645 35.974 42.0009C35.3011 42.5349 34.2916 42.0009 34.2916 40.9331C34.2916 36.8397 34.1233 32.5683 34.2916 28.4749C34.4598 24.5595 37.6565 21 42.3674 21C56.3318 21 70.1281 21 84.0925 21C88.2987 21 91.3271 23.8476 92.0001 28.119C92.0001 28.4749 92.0001 29.0088 92.0001 29.5428C92.0001 38.0855 92.0001 46.4503 92.0001 54.993C92.0001 58.7305 90.1494 61.5781 86.9527 63.0019C86.9527 63.0019 86.7845 63.0019 86.6162 63.1799Z" fill="white"/>
<path d="M63.2298 32.924C57.173 32.924 51.2843 32.924 45.2275 32.924C44.891 32.924 44.5545 32.924 44.218 32.924C43.7132 32.746 43.2085 32.3901 43.3768 31.8562C43.3768 31.5002 43.8815 30.9663 44.218 30.7883C44.3862 30.6103 44.891 30.6104 45.2275 30.6104C57.3412 30.6104 69.6232 30.6104 81.7369 30.6104C82.9147 30.6104 83.4194 30.9663 83.4194 31.8562C83.4194 32.746 82.9147 33.102 81.7369 33.102C75.5118 32.924 69.455 32.924 63.2298 32.924Z" fill="white"/>
<path d="M72.147 39.8654C69.1186 39.8654 65.9219 39.8654 62.8935 39.8654C62.557 39.8654 62.2205 39.8654 61.884 39.8654C61.3793 39.6874 60.8745 39.3315 61.0428 38.7976C61.0428 38.4416 61.5475 37.9077 61.884 37.7297C62.0522 37.5518 62.557 37.5518 62.8935 37.5518C69.1186 37.5518 75.3437 37.5518 81.5688 37.5518H81.7371C82.7466 37.5518 83.2513 37.9077 83.2513 38.7976C83.2513 39.5095 82.7466 40.0434 81.7371 40.0434C78.5404 39.8654 75.3437 39.8654 72.147 39.8654Z" fill="white"/>
<path d="M51.1161 39.8652C49.0971 39.8652 47.0781 39.8652 45.0592 39.8652C44.7227 39.8652 44.3862 39.8652 44.0497 39.6872C43.7132 39.5092 43.3767 38.9753 43.3767 38.6194C43.3767 38.2634 43.7132 37.7295 44.0497 37.5515C44.3862 37.3735 44.7227 37.3735 45.0592 37.3735C49.0971 37.3735 52.9668 37.3735 57.0047 37.3735C57.3412 37.3735 57.6777 37.3735 58.0142 37.5515C58.5189 37.7295 58.8554 38.0854 58.8554 38.6194C58.8554 39.1533 58.5189 39.6872 58.0142 39.6872C57.6777 39.6872 57.1729 39.6872 56.8364 39.6872C54.8175 39.8652 52.9668 39.8652 51.1161 39.8652Z" fill="white"/>
<path d="M81.0639 46.9838C80.5592 46.9838 80.2227 46.9838 79.7179 46.9838C79.2132 46.9838 78.8767 46.4499 78.8767 45.916C78.8767 45.3821 79.045 44.8481 79.7179 44.8481C80.5592 44.8481 81.5686 44.8481 82.4099 44.8481C82.9146 44.8481 83.2511 45.3821 83.2511 45.916C83.2511 46.4499 82.9146 46.9838 82.4099 46.9838C81.9051 46.9838 81.5686 46.9838 81.0639 46.9838Z" fill="white"/>
<path d="M83.2512 52.8572C83.2512 53.5691 82.7465 53.925 82.0735 53.925C81.4005 53.925 80.8958 53.3911 80.8958 52.8572C80.8958 52.1453 81.4005 51.7893 82.0735 51.6113C82.9147 51.6113 83.2512 52.1453 83.2512 52.8572Z" fill="white"/>
<path d="M49.9383 56.4174C43.8814 56.4174 37.8246 56.4174 31.7677 56.4174C31.4312 56.4174 30.9265 56.4174 30.7582 56.2394C30.4217 56.0615 30.0852 55.5275 29.917 55.1716C29.917 54.8156 30.2535 54.4597 30.59 54.1038C30.7582 53.9258 31.263 53.9258 31.4312 53.9258C43.7132 53.9258 55.8269 53.9258 68.1089 53.9258C68.4454 53.9258 68.6137 53.9258 68.9502 53.9258C69.4549 54.1038 69.7914 54.4597 69.7914 54.9936C69.7914 55.7055 69.4549 56.0615 68.7819 56.0615C68.4454 56.0615 68.1089 56.0615 67.7724 56.0615C62.0521 56.4174 55.9952 56.4174 49.9383 56.4174Z" fill="white"/>
<path d="M49.9384 77.5959C43.8815 77.5959 37.8246 77.5959 31.7678 77.5959C31.4313 77.5959 31.0948 77.5959 30.7583 77.5959C30.2535 77.4179 29.7488 77.062 29.917 76.528C29.917 76.1721 30.4218 75.6382 30.7583 75.4602C30.9265 75.2822 31.4313 75.2822 31.7678 75.2822C43.8815 75.2822 56.1635 75.2822 68.2772 75.2822H68.4455C69.4549 75.2822 69.9597 75.6382 69.9597 76.528C69.9597 77.2399 69.4549 77.7739 68.4455 77.7739C62.2204 77.5959 56.1635 77.5959 49.9384 77.5959Z" fill="white"/>
<path d="M55.4906 63.3579C51.2845 63.3579 47.0783 63.3579 42.8722 63.3579C41.6944 63.3579 41.1897 63.0019 41.1897 62.112C41.1897 61.2222 41.6944 60.8662 42.8722 60.8662C51.2845 60.8662 59.865 60.8662 68.2774 60.8662H68.4456C69.4551 60.8662 69.9598 61.2222 69.9598 62.112C69.9598 62.8239 69.4551 63.3579 68.2774 63.3579C64.0712 63.3579 59.865 63.3579 55.4906 63.3579Z" fill="white"/>
<path d="M40.5165 70.4768C37.6563 70.4768 34.6279 70.4768 31.7677 70.4768C31.4312 70.4768 31.263 70.4768 30.9265 70.4768C30.4217 70.2988 29.917 69.9428 30.0852 69.4089C30.0852 69.053 30.59 68.519 30.9265 68.3411C31.0947 68.1631 31.5995 68.1631 31.7677 68.1631C37.6563 68.1631 43.545 68.1631 49.4336 68.1631C50.6113 68.1631 51.1161 68.519 51.1161 69.4089C51.1161 70.2988 50.6113 70.6547 49.4336 70.6547C46.4052 70.4768 43.3767 70.4768 40.5165 70.4768Z" fill="white"/>
<path d="M61.7155 70.477C59.5283 70.477 57.3411 70.477 55.1539 70.477C54.8174 70.477 54.4809 70.477 54.1445 70.299C53.808 69.9431 53.4715 69.5871 53.3032 69.2312C53.3032 68.8752 53.6397 68.3413 53.9762 68.1633C54.1445 67.9853 54.6492 67.9854 54.9857 67.9854C59.3601 67.9854 63.7345 67.9854 68.1089 67.9854H68.2772C69.2866 67.9854 69.7914 68.3413 69.7914 69.2312C69.7914 69.9431 69.2866 70.477 68.2772 70.477C66.09 70.477 63.9027 70.477 61.7155 70.477Z" fill="white"/>
<path d="M34.4597 61.0442C35.4692 61.0442 36.6469 61.0442 37.6564 61.0442C37.9929 61.0442 38.4976 61.4001 38.6658 61.7561C38.8341 61.9341 38.6658 62.468 38.4976 62.8239C38.3294 63.0019 37.8246 63.3579 37.4881 63.3579C35.3009 63.3579 33.1137 63.3579 30.9265 63.3579C30.0853 63.3579 29.7488 62.8239 29.7488 62.112C29.7488 61.4001 30.2535 61.0442 30.9265 60.8662C32.2725 61.0442 33.4502 61.0442 34.4597 61.0442Z" fill="white"/>
</svg>
