<svg width="108" height="108" viewBox="0 0 108 108" fill="none" xmlns="http://www.w3.org/2000/svg">
<rect width="108" height="108" rx="21" fill="#2E2E2E"/>
<g clip-path="url(#clip0)">
<path d="M73.11 83.3895C72.4818 83.2166 71.8416 83.0758 71.2293 82.8587C70.5491 82.6215 70.385 82.6698 70.1009 83.3251C69.1086 85.6008 66.7597 86.6742 64.3429 85.9465C63.9347 85.8219 63.5346 85.649 63.1545 85.448C62.7983 85.259 62.5102 85.3113 62.2181 85.5404C60.4255 86.9476 58.3848 87.2291 56.208 86.8431C54.8035 86.5938 53.499 86.0511 52.2746 85.3314C51.9025 85.1102 51.6184 85.1384 51.2742 85.3877C49.7657 86.4853 47.777 86.4772 46.3165 85.3394C45.8243 84.9575 45.3721 84.4227 45.112 83.8599C44.8079 83.1965 44.5719 83.1965 44.0277 83.2849C41.8189 83.6468 39.6901 82.2476 38.9499 80.4384C38.6898 79.8071 38.5257 79.7267 37.8695 79.8353C35.8728 80.1609 33.84 78.8141 33.2078 77.2662C33.0838 76.9686 32.9957 76.647 32.8317 76.3736C32.7397 76.2168 32.5156 76.0198 32.3675 76.0359C30.1507 76.2449 28.126 74.5241 27.9459 72.337C27.9339 72.2163 27.8499 72.0917 27.8699 71.9791C27.994 71.2916 27.6218 70.9338 27.0736 70.6363C26.1133 70.1176 25.169 69.5708 24.2326 69.012C23.8405 68.7788 23.5764 68.8833 23.3283 69.213C22.8962 69.7919 22.44 69.9689 21.7798 69.7678C18.5346 68.7908 15.2975 67.7817 12.0443 66.8288C10.9999 66.5232 10.8439 65.687 11.136 64.8708C12.0403 62.3137 12.9606 59.7607 13.8689 57.2036C15.2734 53.2514 16.6699 49.2992 18.0704 45.347C18.9828 42.7739 19.9071 40.2087 20.8154 37.6356C21.0475 36.9843 21.3116 36.341 22.1119 36.3369C22.52 36.3329 22.9522 36.5018 23.3363 36.6707C26.3014 37.9894 29.2584 39.3162 32.2075 40.6671C32.4956 40.7998 32.7036 41.1013 32.9677 41.2983C33.2158 41.4833 33.4719 41.7446 33.748 41.7768C34.7043 41.8933 35.6727 41.9094 36.633 41.9898C37.9415 42.0984 39.25 42.2311 40.5624 42.3517C40.9906 42.3919 41.4187 42.42 41.8429 42.4522C43.3354 42.5728 44.8319 42.6975 46.3245 42.8181C46.7206 42.8502 47.1208 42.9226 47.5129 42.8985C47.753 42.8864 48.0091 42.7658 48.2212 42.6331C49.9538 41.5275 51.6424 40.3414 53.427 39.3282C54.1993 38.89 55.1556 38.7493 56.0479 38.5563C57.5565 38.2306 59.097 38.2346 60.6336 38.2668C62.3022 38.303 63.8867 38.7131 65.3633 39.4649C66.8398 40.2168 68.3363 40.9566 69.7088 41.8732C70.4611 42.3758 71.1413 42.1225 71.8576 42.1386C72.3737 42.1507 72.8899 42.026 73.4061 41.9858C74.7666 41.8853 76.1271 41.817 77.4836 41.6843C77.7957 41.6521 78.0998 41.427 78.3839 41.246C80.5687 39.8469 82.7334 38.4236 84.9262 37.0325C85.4304 36.7149 85.8705 36.2163 86.5708 36.3048C86.9709 36.3571 87.3271 36.4736 87.5231 36.8516C88.0033 37.7683 88.4795 38.685 88.9436 39.6097C90.5682 42.8382 92.1888 46.0707 93.8134 49.2992C94.9578 51.5748 96.1102 53.8505 97.2586 56.1261C98.427 58.4419 99.5954 60.7578 100.764 63.0776C101.24 64.0265 101.02 64.6979 100.056 65.1522C96.8825 66.6479 93.7053 68.1274 90.5282 69.615C89.6199 70.0412 89.0837 69.8442 88.4635 68.9798C88.3114 68.7667 88.1353 68.5697 88.0153 68.3405C87.7872 67.9023 87.4871 67.9706 87.179 68.1958C85.8105 69.1848 84.454 70.1819 83.0936 71.179C82.7974 71.3961 82.7974 71.6776 82.8935 72.0073C83.0495 72.534 83.1936 73.0687 83.3016 73.6115C83.5297 74.7533 83.1376 75.7424 82.4613 76.6229C81.537 77.825 80.2886 78.3718 78.78 78.3396C77.9437 78.3236 77.9437 78.3356 77.8317 79.1639C77.5716 81.1058 75.823 82.9271 73.8903 83.2528C73.6502 83.293 73.3981 83.2568 73.15 83.2568C73.13 83.305 73.118 83.3452 73.11 83.3895ZM45.7963 59.4873C45.5162 59.4431 44.964 59.4109 44.4358 59.2702C42.3271 58.7073 41.3827 57.087 41.4187 55.3622C41.4547 53.6535 42.179 52.1819 43.3234 50.9155C43.5355 50.6823 43.7996 50.4089 43.8396 50.1234C44.0637 48.6559 44.4198 47.2286 45 45.8616C45.1441 45.5239 44.992 45.2746 44.6279 45.2425C44.1237 45.1982 43.6195 45.1781 43.1153 45.142C42.275 45.0816 41.4347 45.0173 40.5984 44.949C39.214 44.8324 37.8255 44.7077 36.441 44.5871C35.4366 44.4987 34.4323 44.4142 33.4279 44.3177C33.0798 44.2856 32.8237 44.3459 32.7597 44.76C32.6876 45.2143 32.5756 45.6606 32.4916 46.1149C31.8353 49.7013 30.7589 53.171 29.4585 56.5643C28.2461 59.7366 26.8736 62.8404 25.233 65.8156C25.0129 66.2096 25.0809 66.471 25.4691 66.6961C26.3334 67.1947 27.1777 67.7294 28.05 68.2119C29.1064 68.7949 29.1144 68.7788 29.8106 67.7495C30.3908 66.8972 31.1951 66.3182 32.1795 66.089C33.9641 65.6709 35.7567 66.2217 36.8331 67.9666C37.0372 68.3003 37.2533 68.3285 37.6054 68.2159C38.0535 68.0752 38.5257 67.9425 38.9899 67.9345C40.7225 67.9144 42.107 68.6139 43.0793 70.0814C43.4875 70.6966 43.5275 70.7167 44.2437 70.4915C45.1561 70.202 46.0764 70.1498 47.0007 70.4232C49.0414 71.0263 50.1778 72.4254 50.53 74.5C50.586 74.8418 50.7421 74.9744 51.0742 74.9945C52.3466 75.0629 53.375 75.6419 54.1433 76.6349C54.4194 76.9928 54.6394 76.9686 54.9555 76.7837C55.6758 76.3535 55.9999 76.3656 56.6642 76.9003C57.4044 77.4953 58.1327 78.1105 58.8609 78.7176C60.0974 79.7468 61.3178 80.8002 62.5783 81.8054C63.2825 82.3682 64.0068 82.9271 64.7951 83.3533C65.8314 83.9161 67.1599 83.4216 67.6361 82.4165C67.9482 81.7571 67.6761 80.5228 67.0078 79.8996C65.9835 78.9467 64.9271 78.0341 63.8747 77.1134C62.9864 76.3334 62.0821 75.5695 61.1898 74.7975C60.1214 73.8768 59.053 72.9481 57.9846 72.0274C57.1603 71.3157 56.332 70.6081 55.5117 69.8925C54.9315 69.3899 54.3393 68.8994 53.7951 68.3566C53.307 67.8741 53.331 67.062 53.7871 66.5554C54.1873 66.1091 54.9435 66.0046 55.4277 66.3664C55.8439 66.68 56.232 67.0298 56.6241 67.3716C57.6405 68.2601 58.6489 69.1607 59.6692 70.0493C60.7456 70.9861 61.83 71.9148 62.9104 72.8476C63.8747 73.6838 64.8271 74.5282 65.7954 75.3564C66.9918 76.3857 68.1803 77.431 69.4047 78.4281C70.269 79.1317 71.1333 79.8795 72.1016 80.4102C73.4061 81.1219 74.6065 80.5349 75.1427 79.1679C75.5189 78.207 74.9987 76.9525 74.0583 76.1846C72.8579 75.2076 71.6895 74.1864 70.5131 73.1773C69.3287 72.156 68.1562 71.1147 66.9678 70.0935C65.7474 69.0401 64.519 67.9988 63.2945 66.9534C62.2581 66.0649 61.2258 65.1723 60.1814 64.2878C59.7412 63.9139 59.5452 63.154 59.7933 62.6434C60.0774 62.0564 60.6656 61.7267 61.2698 61.9881C61.798 62.2172 62.2662 62.6233 62.7183 63.0012C63.6947 63.8174 64.643 64.6738 65.6073 65.506C66.7958 66.5273 67.9922 67.5324 69.1766 68.5536C70.177 69.418 71.1573 70.3026 72.1577 71.163C73.3421 72.1842 74.5625 73.1692 75.7229 74.2146C76.5712 74.9785 77.5156 75.5052 78.628 75.7102C79.9444 75.9514 81.0768 74.7332 80.7127 73.5351C80.4606 72.6988 79.9084 72.1279 79.2802 71.557C77.4636 69.9166 75.6989 68.2199 73.9063 66.5514C72.8019 65.5221 71.6855 64.5089 70.5811 63.4837C68.9445 61.968 67.3119 60.4442 65.6754 58.9284C64.9431 58.2489 64.2108 57.5655 63.4666 56.898C62.1861 55.7522 60.9057 54.5983 59.5972 53.4846C59.113 53.0705 58.5888 52.6282 58.0046 52.4272C57.1083 52.1176 56.152 52.2664 55.2517 52.5679C55.0716 52.6282 54.8755 52.789 54.7875 52.9539C53.9672 54.4817 52.9828 55.8808 51.7464 57.1071C50.1578 58.6832 48.2692 59.439 45.7963 59.4873ZM59.6492 40.7837C58.4928 40.9083 57.3364 41.0088 56.188 41.1737C55.6478 41.2501 55.0676 41.3546 54.6114 41.628C52.9868 42.613 51.3783 43.6342 49.8217 44.7238C48.9974 45.2988 48.1651 45.942 47.5529 46.722C46.7726 47.7151 46.6166 49.0137 46.4765 50.2521C46.3765 51.1286 46.1684 51.8764 45.4602 52.4714C44.7799 53.0464 44.3518 53.8223 44.1037 54.6867C43.7676 55.8648 44.3798 56.7734 45.5682 56.8699C47.2968 57.0066 48.7693 56.4477 49.9858 55.2134C51.1262 54.0515 52.0345 52.7207 52.7388 51.2532C52.9788 50.7506 53.307 50.3807 53.8712 50.2601C54.6154 50.0993 55.3557 49.8822 56.108 49.7736C57.6125 49.5646 59.069 49.7455 60.2934 50.7265C61.5499 51.7316 62.7703 52.789 63.9708 53.8585C65.6353 55.3381 67.2719 56.8538 68.9205 58.3575C70.0009 59.3425 71.0773 60.3276 72.1497 61.3247C73.9303 62.9811 75.7029 64.6456 77.4796 66.3061C78.4559 67.2228 79.4283 68.1435 80.4086 69.0562C80.7887 69.41 81.1049 69.406 81.513 69.1044C82.7574 68.1878 84.0139 67.2791 85.2583 66.3624C86.0586 65.7714 86.4147 65.8196 85.6144 64.7421C85.5864 64.706 85.5704 64.6617 85.5464 64.6215C84.0659 62.1127 82.6454 59.5677 81.517 56.8779C80.6887 54.9039 79.8484 52.9298 79.1441 50.9114C78.4359 48.877 77.8877 46.7904 77.2795 44.7238C77.1955 44.4343 77.0354 44.3057 76.7473 44.3258C75.2388 44.4464 73.7302 44.563 72.2217 44.6957C71.7215 44.7399 71.2213 44.8645 70.7212 44.8605C70.193 44.8565 69.5487 44.9088 69.1646 44.6394C67.7881 43.6704 66.3396 42.8502 64.8391 42.0984C63.2025 41.2702 61.5139 40.7193 59.6492 40.7837ZM30.3908 43.1679C30.4268 42.798 30.2148 42.6211 29.9186 42.4924C27.8699 41.5757 25.8292 40.643 23.7765 39.7383C22.9322 39.3684 22.9322 39.3966 22.6201 40.2851C21.8358 42.5246 21.0435 44.764 20.2472 46.9994C18.9187 50.7305 17.5823 54.4616 16.2538 58.1927C15.5655 60.1225 14.8893 62.0604 14.1971 63.9903C13.981 64.5894 14.049 64.7582 14.6452 64.9311C15.5135 65.1844 16.3818 65.4417 17.2461 65.699C18.5386 66.081 19.8351 66.4589 21.1275 66.8489C21.4116 66.9333 21.6437 66.9253 21.8038 66.6398C22.0759 66.1574 22.368 65.6829 22.6121 65.1884C23.5084 63.3792 24.4527 61.586 25.261 59.7366C26.1933 57.6057 27.0976 55.4547 27.8379 53.2554C28.5982 50.9999 29.1824 48.68 29.7826 46.3763C30.0627 45.3269 30.1947 44.2414 30.3908 43.1679ZM90.3201 66.7806C90.5562 66.7082 90.6923 66.68 90.8123 66.6238C92.9411 65.6226 95.0698 64.6215 97.1946 63.6083C97.7748 63.3309 97.8388 63.1138 97.5547 62.5509C96.4023 60.2632 95.2459 57.9755 94.0935 55.6879C92.765 53.0544 91.4365 50.4209 90.1161 47.7875C89.1477 45.8536 88.1954 43.9117 87.227 41.9778C86.9029 41.3305 86.5628 40.6912 86.2187 40.0519C86.0586 39.7544 85.8425 39.5373 85.4784 39.7745C83.6458 40.9525 81.8171 42.1386 79.9804 43.3086C79.7123 43.4815 79.6523 43.6544 79.7404 43.9599C80.0645 45.0656 80.3326 46.1913 80.6767 47.2889C82.0372 51.6392 83.7338 55.8487 85.8665 59.8813C87.059 62.1288 88.3714 64.2918 89.8159 66.3825C89.94 66.5554 90.1721 66.664 90.3201 66.7806ZM47.9371 75.083C47.9931 74.3553 47.681 73.7723 47.1208 73.3702C45.9203 72.4978 44.6559 72.7229 43.8116 73.9572C43.0513 75.0709 42.3551 76.2288 41.5828 77.3345C41.2507 77.8129 41.1386 78.2954 41.1786 78.8503C41.2547 79.9559 42.5711 80.9168 43.6555 80.7077C44.4558 80.555 45.012 80.1167 45.4482 79.4614C46.0844 78.5045 46.7206 77.5436 47.3929 76.6108C47.733 76.1444 47.9771 75.674 47.9371 75.083ZM35.2405 75.1272C35.2766 75.1433 35.3166 75.1594 35.3526 75.1755C35.2285 75.9555 35.8287 76.8319 36.645 77.1536C37.5574 77.5114 38.6217 77.049 38.9539 76.5344C39.4941 75.6941 40.0462 74.8659 40.5944 74.0336C40.9786 73.4466 41.4507 72.9119 41.1867 72.0957C40.9026 71.2233 40.3143 70.7046 39.458 70.5599C38.6698 70.4272 37.9775 70.7006 37.4973 71.3962C36.9051 72.2565 36.2889 73.0968 35.7247 73.9773C35.5006 74.3231 35.3966 74.7412 35.2405 75.1272ZM57.9126 84.3865C58.5888 84.4428 59.3291 84.2901 60.0214 83.9081C60.4215 83.687 60.4335 83.4096 60.0854 83.1241C59.2331 82.4205 58.3928 81.7048 57.5445 80.9972C56.9683 80.5148 56.4001 80.0202 55.8119 79.5579C55.3717 79.2121 54.9836 79.389 54.8755 79.9358C54.8235 80.1891 54.7835 80.4625 54.6634 80.6836C54.3633 81.2344 54.0392 81.7732 53.6951 82.2959C53.419 82.722 53.431 83.0075 53.8312 83.2246C55.0716 83.892 56.356 84.4308 57.9126 84.3865ZM48.8094 83.5503C49.4856 83.5503 49.6737 83.4096 49.6977 82.8989C49.7297 82.2275 50.0098 81.9019 50.646 81.6365C50.9261 81.5199 51.1942 81.3068 51.3943 81.0736C51.6624 80.764 51.8665 80.3941 52.0905 80.0484C52.5987 79.2563 52.3666 78.3236 51.5303 77.7647C50.9301 77.3667 49.9538 77.5999 49.4896 78.2713C48.8334 79.2161 48.2011 80.177 47.5409 81.1178C47.1848 81.6284 47.1848 82.1752 47.4169 82.6939C47.673 83.2688 48.1411 83.5945 48.8094 83.5503ZM33.1838 68.4973C32.9117 68.6139 32.5596 68.6582 32.3835 68.8632C31.8313 69.4904 31.3512 70.1779 30.835 70.8373C30.5749 71.171 30.5189 71.5489 30.5349 71.963C30.5589 72.5943 30.951 73.1491 31.5592 73.3461C32.2355 73.5632 32.9757 73.3582 33.3399 72.8355C33.752 72.2445 34.1401 71.6374 34.5603 71.0504C34.9324 70.5358 34.9644 69.9849 34.6803 69.4542C34.3802 68.8954 33.8961 68.5496 33.1838 68.4973Z" fill="white"/>
<path d="M47.7529 16.4152C47.7569 15.6191 48.2011 15.0884 48.8253 15.0241C49.5736 14.9477 50.1298 15.2935 50.2618 15.9971C50.5259 17.4123 50.754 18.8356 50.9901 20.2548C51.2862 22.056 51.5743 23.8532 51.8704 25.6544C52.1305 27.2425 52.4066 28.8266 52.6507 30.4188C52.7547 31.0982 52.2745 31.7255 51.6303 31.8501C50.886 31.9948 50.3058 31.6692 50.1378 30.9173C49.9217 29.9484 49.7737 28.9593 49.6056 27.9783C49.3935 26.7078 49.1934 25.4373 48.9894 24.1668C48.7613 22.7596 48.5332 21.3524 48.3091 19.9452C48.1371 18.8718 47.961 17.7983 47.7889 16.7248C47.7649 16.5881 47.7569 16.4474 47.7529 16.4152Z" fill="white"/>
<path d="M61.8981 31.8902C61.1458 31.8781 60.5816 31.1745 60.6817 30.4187C60.9458 28.4888 61.1819 26.559 61.4499 24.6291C61.7421 22.5344 62.0582 20.4437 62.3623 18.353C62.4663 17.6414 62.5583 16.9257 62.6464 16.2101C62.7504 15.3617 63.3946 14.8632 64.2349 15.0361C64.9352 15.1808 65.3313 15.9728 65.1953 16.6322C64.9512 17.8143 64.8512 19.0285 64.6831 20.2266C64.511 21.4689 64.331 22.7153 64.1589 23.9577C63.9909 25.1558 63.8308 26.3579 63.6667 27.5561C63.5107 28.6778 63.3706 29.8035 63.1946 30.9253C63.1105 31.5002 62.5383 31.8982 61.8981 31.8902Z" fill="white"/>
<path d="M71.9295 33.5304C71.4253 33.5384 71.0211 33.3736 70.7731 32.9153C70.501 32.4207 70.549 31.9302 70.8411 31.4719C72.0735 29.542 73.314 27.6202 74.5504 25.6903C75.1626 24.7334 75.7628 23.7645 76.3791 22.8116C76.7872 22.1764 77.5915 21.9753 78.1837 22.3372C78.7799 22.699 78.992 23.4388 78.6038 24.1022C77.9916 25.1476 77.3154 26.1607 76.6672 27.186C75.4707 29.0676 74.2743 30.9452 73.0779 32.8228C72.8058 33.2409 72.4657 33.5545 71.9295 33.5304Z" fill="white"/>
<path d="M40.7664 33.5747C40.2663 33.5747 39.9301 33.3415 39.67 32.9555C38.2896 30.9212 36.9051 28.8908 35.5246 26.8564C35.2725 26.4865 35.0524 26.0925 34.7643 25.7588C34.3361 25.2602 34.5002 24.2511 34.9764 23.9214C35.6486 23.455 36.4089 23.5836 36.8931 24.2872C38.2055 26.201 39.51 28.1188 40.8184 30.0366C41.1546 30.5312 41.5027 31.0217 41.8268 31.5242C42.231 32.1555 42.0349 33.052 41.4107 33.3857C41.2186 33.4863 40.9825 33.5144 40.7664 33.5747Z" fill="white"/>
</g>
<defs>
<clipPath id="clip0">
<rect width="90" height="72" fill="white" transform="translate(11 15)"/>
</clipPath>
</defs>
</svg>
