<svg width="152" height="364" viewBox="0 0 152 364" fill="none" xmlns="http://www.w3.org/2000/svg">
<rect x="36" y="324" width="82" height="17" fill="#DC8A74"/>
<rect x="35" y="30" width="82" height="17" fill="#DC8A74"/>
<path d="M49.824 358.992C49.0133 359.792 48.0213 360.192 46.848 360.192C45.6747 360.192 44.6773 359.792 43.856 358.992C43.0453 358.181 42.64 357.184 42.64 356C42.64 354.816 43.0453 353.824 43.856 353.024C44.6773 352.213 45.6747 351.808 46.848 351.808C48.0213 351.808 49.0133 352.213 49.824 353.024C50.6453 353.824 51.056 354.816 51.056 356C51.056 357.184 50.6453 358.181 49.824 358.992ZM44.608 358.256C45.216 358.864 45.9627 359.168 46.848 359.168C47.7333 359.168 48.48 358.864 49.088 358.256C49.696 357.637 50 356.885 50 356C50 355.115 49.696 354.368 49.088 353.76C48.48 353.141 47.7333 352.832 46.848 352.832C45.9627 352.832 45.216 353.141 44.608 353.76C44 354.368 43.696 355.115 43.696 356C43.696 356.885 44 357.637 44.608 358.256ZM56.5511 360.192C55.3458 360.192 54.3431 359.792 53.5431 358.992C52.7431 358.181 52.3431 357.184 52.3431 356C52.3431 354.816 52.7431 353.824 53.5431 353.024C54.3431 352.213 55.3458 351.808 56.5511 351.808C57.3405 351.808 58.0498 352 58.6791 352.384C59.3085 352.757 59.7671 353.264 60.0551 353.904L59.1911 354.4C58.9778 353.92 58.6311 353.541 58.1511 353.264C57.6818 352.976 57.1485 352.832 56.5511 352.832C55.6658 352.832 54.9191 353.141 54.3111 353.76C53.7031 354.368 53.3991 355.115 53.3991 356C53.3991 356.885 53.7031 357.637 54.3111 358.256C54.9191 358.864 55.6658 359.168 56.5511 359.168C57.1485 359.168 57.6818 359.029 58.1511 358.752C58.6205 358.464 58.9885 358.08 59.2551 357.6L60.1351 358.112C59.8045 358.752 59.3191 359.259 58.6791 359.632C58.0391 360.005 57.3298 360.192 56.5511 360.192ZM67.255 352V353.024H64.423V360H63.367V353.024H60.535V352H67.255ZM75.1094 352H76.1654V360H75.1094V358.432C74.3734 359.605 73.296 360.192 71.8774 360.192C70.736 360.192 69.76 359.787 68.9494 358.976C68.1494 358.165 67.7494 357.173 67.7494 356C67.7494 354.827 68.1494 353.835 68.9494 353.024C69.76 352.213 70.736 351.808 71.8774 351.808C73.296 351.808 74.3734 352.395 75.1094 353.568V352ZM69.7174 358.256C70.3254 358.864 71.072 359.168 71.9574 359.168C72.8427 359.168 73.5894 358.864 74.1974 358.256C74.8054 357.637 75.1094 356.885 75.1094 356C75.1094 355.115 74.8054 354.368 74.1974 353.76C73.5894 353.141 72.8427 352.832 71.9574 352.832C71.072 352.832 70.3254 353.141 69.7174 353.76C69.1094 354.368 68.8054 355.115 68.8054 356C68.8054 356.885 69.1094 357.637 69.7174 358.256ZM84.9613 352V360H83.9053V353.024H80.2893V356.592C80.2893 357.925 80.0333 358.843 79.5213 359.344C79.0199 359.845 78.3266 360.064 77.4413 360V359.008C78.0493 359.072 78.4973 358.928 78.7853 358.576C79.0839 358.224 79.2333 357.563 79.2333 356.592V352H84.9613ZM93.9021 358.992C93.0915 359.792 92.0995 360.192 90.9261 360.192C89.7528 360.192 88.7555 359.792 87.9341 358.992C87.1235 358.181 86.7181 357.184 86.7181 356C86.7181 354.816 87.1235 353.824 87.9341 353.024C88.7555 352.213 89.7528 351.808 90.9261 351.808C92.0995 351.808 93.0915 352.213 93.9021 353.024C94.7235 353.824 95.1341 354.816 95.1341 356C95.1341 357.184 94.7235 358.181 93.9021 358.992ZM88.6861 358.256C89.2941 358.864 90.0408 359.168 90.9261 359.168C91.8115 359.168 92.5581 358.864 93.1661 358.256C93.7741 357.637 94.0781 356.885 94.0781 356C94.0781 355.115 93.7741 354.368 93.1661 353.76C92.5581 353.141 91.8115 352.832 90.9261 352.832C90.0408 352.832 89.2941 353.141 88.6861 353.76C88.0781 354.368 87.7741 355.115 87.7741 356C87.7741 356.885 88.0781 357.637 88.6861 358.256ZM100.629 360.192C99.4239 360.192 98.4213 359.792 97.6213 358.992C96.8213 358.181 96.4213 357.184 96.4213 356C96.4213 354.816 96.8213 353.824 97.6213 353.024C98.4213 352.213 99.4239 351.808 100.629 351.808C101.419 351.808 102.128 352 102.757 352.384C103.387 352.757 103.845 353.264 104.133 353.904L103.269 354.4C103.056 353.92 102.709 353.541 102.229 353.264C101.76 352.976 101.227 352.832 100.629 352.832C99.7439 352.832 98.9973 353.141 98.3893 353.76C97.7813 354.368 97.4773 355.115 97.4773 356C97.4773 356.885 97.7813 357.637 98.3893 358.256C98.9973 358.864 99.7439 359.168 100.629 359.168C101.227 359.168 101.76 359.029 102.229 358.752C102.699 358.464 103.067 358.08 103.333 357.6L104.213 358.112C103.883 358.752 103.397 359.259 102.757 359.632C102.117 360.005 101.408 360.192 100.629 360.192ZM108.977 355.04C109.724 355.04 110.353 355.275 110.865 355.744C111.388 356.203 111.649 356.795 111.649 357.52C111.649 358.245 111.388 358.843 110.865 359.312C110.353 359.771 109.724 360 108.977 360H105.729V352H106.785V355.04H108.977ZM108.977 358.976C109.425 358.976 109.804 358.843 110.113 358.576C110.433 358.309 110.593 357.957 110.593 357.52C110.593 357.083 110.433 356.731 110.113 356.464C109.804 356.197 109.425 356.064 108.977 356.064H106.785V358.976H108.977Z" fill="white"/>
<path d="M7.84 66V74H6.784V67.024H2.176V74H1.12V66H7.84ZM14.3611 65.808C15.5025 65.808 16.4731 66.2133 17.2731 67.024C18.0838 67.8347 18.4891 68.8267 18.4891 70C18.4891 71.1733 18.0838 72.1653 17.2731 72.976C16.4731 73.7867 15.5025 74.192 14.3611 74.192C12.9425 74.192 11.8651 73.6053 11.1291 72.432V77.2H10.0731V66H11.1291V67.568C11.8651 66.3947 12.9425 65.808 14.3611 65.808ZM12.0411 72.256C12.6491 72.864 13.3958 73.168 14.2811 73.168C15.1665 73.168 15.9131 72.864 16.5211 72.256C17.1291 71.6373 17.4331 70.8853 17.4331 70C17.4331 69.1147 17.1291 68.368 16.5211 67.76C15.9131 67.1413 15.1665 66.832 14.2811 66.832C13.3958 66.832 12.6491 67.1413 12.0411 67.76C11.4331 68.368 11.1291 69.1147 11.1291 70C11.1291 70.8853 11.4331 71.6373 12.0411 72.256ZM26.949 72.992C26.1383 73.792 25.1463 74.192 23.973 74.192C22.7997 74.192 21.8023 73.792 20.981 72.992C20.1703 72.1813 19.765 71.184 19.765 70C19.765 68.816 20.1703 67.824 20.981 67.024C21.8023 66.2133 22.7997 65.808 23.973 65.808C25.1463 65.808 26.1383 66.2133 26.949 67.024C27.7703 67.824 28.181 68.816 28.181 70C28.181 71.184 27.7703 72.1813 26.949 72.992ZM21.733 72.256C22.341 72.864 23.0877 73.168 23.973 73.168C24.8583 73.168 25.605 72.864 26.213 72.256C26.821 71.6373 27.125 70.8853 27.125 70C27.125 69.1147 26.821 68.368 26.213 67.76C25.605 67.1413 24.8583 66.832 23.973 66.832C23.0877 66.832 22.341 67.1413 21.733 67.76C21.125 68.368 20.821 69.1147 20.821 70C20.821 70.8853 21.125 71.6373 21.733 72.256ZM36.3556 72.976H37.4756V76.144H36.4196V74H29.8916V76.144H28.8356V72.976H29.8116C30.3556 72.2613 30.6276 71.2533 30.6276 69.952V66H36.3556V72.976ZM31.0916 72.976H35.2996V67.024H31.6836V69.952C31.6836 71.1787 31.4863 72.1867 31.0916 72.976ZM45.9051 65.808C47.0785 65.808 48.0705 66.2133 48.8811 67.024C49.7025 67.824 50.1131 68.816 50.1131 70C50.1131 71.184 49.7025 72.1813 48.8811 72.992C48.0705 73.792 47.0785 74.192 45.9051 74.192C44.8278 74.192 43.8998 73.8453 43.1211 73.152C42.3531 72.448 41.9105 71.568 41.7931 70.512H40.1291V74H39.0731V66H40.1291V69.488H41.7931C41.9105 68.432 42.3531 67.5573 43.1211 66.864C43.8998 66.16 44.8278 65.808 45.9051 65.808ZM43.6651 72.256C44.2731 72.864 45.0198 73.168 45.9051 73.168C46.7905 73.168 47.5371 72.864 48.1451 72.256C48.7531 71.6373 49.0571 70.8853 49.0571 70C49.0571 69.1147 48.7531 68.368 48.1451 67.76C47.5371 67.1413 46.7905 66.832 45.9051 66.832C45.0198 66.832 44.2731 67.1413 43.6651 67.76C43.0571 68.368 42.7531 69.1147 42.7531 70C42.7531 70.8853 43.0571 71.6373 43.6651 72.256ZM55.598 74.192C54.3927 74.192 53.39 73.792 52.59 72.992C51.79 72.1813 51.39 71.184 51.39 70C51.39 68.816 51.79 67.824 52.59 67.024C53.39 66.2133 54.3927 65.808 55.598 65.808C56.3873 65.808 57.0967 66 57.726 66.384C58.3553 66.7573 58.814 67.264 59.102 67.904L58.238 68.4C58.0247 67.92 57.678 67.5413 57.198 67.264C56.7287 66.976 56.1953 66.832 55.598 66.832C54.7127 66.832 53.966 67.1413 53.358 67.76C52.75 68.368 52.446 69.1147 52.446 70C52.446 70.8853 52.75 71.6373 53.358 72.256C53.966 72.864 54.7127 73.168 55.598 73.168C56.1953 73.168 56.7287 73.0293 57.198 72.752C57.6673 72.464 58.0353 72.08 58.302 71.6L59.182 72.112C58.8513 72.752 58.366 73.2587 57.726 73.632C57.086 74.0053 56.3767 74.192 55.598 74.192ZM64.316 65.808C65.5 65.808 66.4547 66.2293 67.18 67.072C67.916 67.904 68.284 68.8907 68.284 70.032C68.284 70.1493 68.2733 70.3147 68.252 70.528H61.228C61.3347 71.3387 61.676 71.984 62.252 72.464C62.8387 72.9333 63.5587 73.168 64.412 73.168C65.02 73.168 65.5427 73.0453 65.98 72.8C66.428 72.544 66.764 72.2133 66.988 71.808L67.916 72.352C67.564 72.9173 67.084 73.3653 66.476 73.696C65.868 74.0267 65.1747 74.192 64.396 74.192C63.1373 74.192 62.1133 73.7973 61.324 73.008C60.5347 72.2187 60.14 71.216 60.14 70C60.14 68.8053 60.5293 67.808 61.308 67.008C62.0867 66.208 63.0893 65.808 64.316 65.808ZM64.316 66.832C63.484 66.832 62.7853 67.0827 62.22 67.584C61.6653 68.0747 61.3347 68.7147 61.228 69.504H67.196C67.0893 68.6613 66.764 68.0053 66.22 67.536C65.676 67.0667 65.0413 66.832 64.316 66.832ZM74.2518 65.808C75.3931 65.808 76.3638 66.2133 77.1638 67.024C77.9744 67.8347 78.3798 68.8267 78.3798 70C78.3798 71.1733 77.9744 72.1653 77.1638 72.976C76.3638 73.7867 75.3931 74.192 74.2518 74.192C72.8331 74.192 71.7558 73.6053 71.0198 72.432V77.2H69.9638V66H71.0198V67.568C71.7558 66.3947 72.8331 65.808 74.2518 65.808ZM71.9318 72.256C72.5398 72.864 73.2864 73.168 74.1718 73.168C75.0571 73.168 75.8038 72.864 76.4118 72.256C77.0198 71.6373 77.3238 70.8853 77.3238 70C77.3238 69.1147 77.0198 68.368 76.4118 67.76C75.8038 67.1413 75.0571 66.832 74.1718 66.832C73.2864 66.832 72.5398 67.1413 71.9318 67.76C71.3238 68.368 71.0198 69.1147 71.0198 70C71.0198 70.8853 71.3238 71.6373 71.9318 72.256ZM86.8396 72.992C86.029 73.792 85.037 74.192 83.8636 74.192C82.6903 74.192 81.693 73.792 80.8716 72.992C80.061 72.1813 79.6556 71.184 79.6556 70C79.6556 68.816 80.061 67.824 80.8716 67.024C81.693 66.2133 82.6903 65.808 83.8636 65.808C85.037 65.808 86.029 66.2133 86.8396 67.024C87.661 67.824 88.0716 68.816 88.0716 70C88.0716 71.184 87.661 72.1813 86.8396 72.992ZM81.6236 72.256C82.2316 72.864 82.9783 73.168 83.8636 73.168C84.749 73.168 85.4956 72.864 86.1036 72.256C86.7116 71.6373 87.0156 70.8853 87.0156 70C87.0156 69.1147 86.7116 68.368 86.1036 67.76C85.4956 67.1413 84.749 66.832 83.8636 66.832C82.9783 66.832 82.2316 67.1413 81.6236 67.76C81.0156 68.368 80.7116 69.1147 80.7116 70C80.7116 70.8853 81.0156 71.6373 81.6236 72.256ZM94.9268 69.888C95.8014 70.208 96.2388 70.832 96.2388 71.76C96.2388 72.4107 96.0201 72.9493 95.5828 73.376C95.1561 73.792 94.5374 74 93.7268 74H89.8388V66H93.4068C94.1854 66 94.7881 66.2027 95.2148 66.608C95.6414 67.0027 95.8548 67.5147 95.8548 68.144C95.8548 68.944 95.5454 69.5253 94.9268 69.888ZM93.4068 67.024H90.8948V69.456H93.4068C94.3348 69.456 94.7988 69.04 94.7988 68.208C94.7988 67.8347 94.6761 67.5467 94.4308 67.344C94.1961 67.1307 93.8548 67.024 93.4068 67.024ZM93.7268 72.976C94.1961 72.976 94.5534 72.864 94.7988 72.64C95.0548 72.416 95.1828 72.1013 95.1828 71.696C95.1828 71.3227 95.0548 71.0293 94.7988 70.816C94.5534 70.592 94.1961 70.48 93.7268 70.48H90.8948V72.976H93.7268ZM105.567 74.192C104.361 74.192 103.359 73.792 102.559 72.992C101.759 72.1813 101.359 71.184 101.359 70C101.359 68.816 101.759 67.824 102.559 67.024C103.359 66.2133 104.361 65.808 105.567 65.808C106.356 65.808 107.065 66 107.695 66.384C108.324 66.7573 108.783 67.264 109.071 67.904L108.207 68.4C107.993 67.92 107.647 67.5413 107.167 67.264C106.697 66.976 106.164 66.832 105.567 66.832C104.681 66.832 103.935 67.1413 103.327 67.76C102.719 68.368 102.415 69.1147 102.415 70C102.415 70.8853 102.719 71.6373 103.327 72.256C103.935 72.864 104.681 73.168 105.567 73.168C106.164 73.168 106.697 73.0293 107.167 72.752C107.636 72.464 108.004 72.08 108.271 71.6L109.151 72.112C108.82 72.752 108.335 73.2587 107.695 73.632C107.055 74.0053 106.345 74.192 105.567 74.192ZM120.331 66H121.387V74H120.331V70.512H115.723V74H114.667V66H115.723V69.488H120.331V66ZM130.5 66H131.556V74H130.5V72.432C129.764 73.6053 128.687 74.192 127.268 74.192C126.127 74.192 125.151 73.7867 124.34 72.976C123.54 72.1653 123.14 71.1733 123.14 70C123.14 68.8267 123.54 67.8347 124.34 67.024C125.151 66.2133 126.127 65.808 127.268 65.808C128.687 65.808 129.764 66.3947 130.5 67.568V66ZM125.108 72.256C125.716 72.864 126.463 73.168 127.348 73.168C128.233 73.168 128.98 72.864 129.588 72.256C130.196 71.6373 130.5 70.8853 130.5 70C130.5 69.1147 130.196 68.368 129.588 67.76C128.98 67.1413 128.233 66.832 127.348 66.832C126.463 66.832 125.716 67.1413 125.108 67.76C124.5 68.368 124.196 69.1147 124.196 70C124.196 70.8853 124.5 71.6373 125.108 72.256ZM141.632 66V74H140.576V67.616L137.776 72.16H137.648L134.848 67.616V74H133.792V66H135.008L137.712 70.384L140.416 66H141.632ZM149.694 66H150.59V74H149.534V67.84L144.766 74H143.87V66H144.926V72.16L149.694 66Z" fill="white"/>
<path d="M44.88 38V33.36L54.28 23.6C56.1733 21.6533 57.12 20 57.12 18.64C57.12 17.76 56.8533 17.0533 56.32 16.52C55.7867 15.96 55.0533 15.68 54.12 15.68C52.2533 15.68 50.88 16.6933 50 18.72L44.6 15.56C45.4533 13.56 46.7333 12.04 48.44 11C50.1467 9.96 52.0133 9.44 54.04 9.44C56.6533 9.44 58.88 10.2533 60.72 11.88C62.5867 13.48 63.52 15.64 63.52 18.36C63.52 21.32 62.0667 24.2533 59.16 27.16L54.52 31.84H63.92V38H44.88ZM64.9469 10H83.3469V15.36L74.2269 38H67.4269L76.2269 16.16H64.9469V10ZM101.495 23.4C103.922 24.9733 105.135 27.2133 105.135 30.12C105.135 32.7067 104.228 34.76 102.415 36.28C100.628 37.8 98.1083 38.56 94.855 38.56C91.6017 38.56 89.0683 37.8 87.255 36.28C85.4683 34.76 84.575 32.7067 84.575 30.12C84.575 27.2133 85.7883 24.9733 88.215 23.4C86.4283 22.0133 85.535 20.1333 85.535 17.76C85.535 15.1467 86.415 13.1067 88.175 11.64C89.935 10.1733 92.1617 9.44 94.855 9.44C97.5483 9.44 99.775 10.1733 101.535 11.64C103.295 13.1067 104.175 15.1467 104.175 17.76C104.175 20.1333 103.282 22.0133 101.495 23.4ZM96.975 16.2C96.4417 15.6933 95.735 15.44 94.855 15.44C93.975 15.44 93.2683 15.6933 92.735 16.2C92.2017 16.7067 91.935 17.36 91.935 18.16C91.935 18.96 92.2017 19.6133 92.735 20.12C93.2683 20.6267 93.975 20.88 94.855 20.88C95.735 20.88 96.4417 20.6267 96.975 20.12C97.5083 19.6133 97.775 18.96 97.775 18.16C97.775 17.36 97.5083 16.7067 96.975 16.2ZM92.055 31.68C92.775 32.2667 93.7083 32.56 94.855 32.56C96.0017 32.56 96.935 32.2667 97.655 31.68C98.375 31.0667 98.735 30.24 98.735 29.2C98.735 28.16 98.375 27.3467 97.655 26.76C96.935 26.1467 96.0017 25.84 94.855 25.84C93.7083 25.84 92.775 26.1467 92.055 26.76C91.335 27.3467 90.975 28.16 90.975 29.2C90.975 30.24 91.335 31.0667 92.055 31.68Z" fill="white"/>
<path d="M45.88 334V329.36L55.28 319.6C57.1733 317.653 58.12 316 58.12 314.64C58.12 313.76 57.8533 313.053 57.32 312.52C56.7867 311.96 56.0533 311.68 55.12 311.68C53.2533 311.68 51.88 312.693 51 314.72L45.6 311.56C46.4533 309.56 47.7333 308.04 49.44 307C51.1467 305.96 53.0133 305.44 55.04 305.44C57.6533 305.44 59.88 306.253 61.72 307.88C63.5867 309.48 64.52 311.64 64.52 314.36C64.52 317.32 63.0667 320.253 60.16 323.16L55.52 327.84H64.92V334H45.88ZM67.2081 334V329.36L76.6081 319.6C78.5015 317.653 79.4481 316 79.4481 314.64C79.4481 313.76 79.1815 313.053 78.6481 312.52C78.1148 311.96 77.3815 311.68 76.4481 311.68C74.5815 311.68 73.2081 312.693 72.3281 314.72L66.9281 311.56C67.7815 309.56 69.0615 308.04 70.7681 307C72.4748 305.96 74.3415 305.44 76.3681 305.44C78.9815 305.44 81.2081 306.253 83.0481 307.88C84.9148 309.48 85.8481 311.64 85.8481 314.36C85.8481 317.32 84.3948 320.253 81.4881 323.16L76.8481 327.84H86.2481V334H67.2081ZM88.5363 334V329.36L97.9362 319.6C99.8296 317.653 100.776 316 100.776 314.64C100.776 313.76 100.51 313.053 99.9763 312.52C99.4429 311.96 98.7096 311.68 97.7763 311.68C95.9096 311.68 94.5363 312.693 93.6563 314.72L88.2563 311.56C89.1096 309.56 90.3896 308.04 92.0963 307C93.8029 305.96 95.6696 305.44 97.6963 305.44C100.31 305.44 102.536 306.253 104.376 307.88C106.243 309.48 107.176 311.64 107.176 314.36C107.176 317.32 105.723 320.253 102.816 323.16L98.1763 327.84H107.576V334H88.5363Z" fill="white"/>
</svg>
