<svg width="132" height="364" viewBox="0 0 132 364" fill="none" xmlns="http://www.w3.org/2000/svg">
<rect x="44" y="30" width="48" height="17" fill="#DC8A74"/>
<rect x="24" y="324" width="82" height="17" fill="#DC8A74"/>
<path d="M6.208 355.888C7.08267 356.208 7.52 356.832 7.52 357.76C7.52 358.411 7.30133 358.949 6.864 359.376C6.43733 359.792 5.81867 360 5.008 360H1.12V352H4.688C5.46667 352 6.06933 352.203 6.496 352.608C6.92267 353.003 7.136 353.515 7.136 354.144C7.136 354.944 6.82667 355.525 6.208 355.888ZM4.688 353.024H2.176V355.456H4.688C5.616 355.456 6.08 355.04 6.08 354.208C6.08 353.835 5.95733 353.547 5.712 353.344C5.47733 353.131 5.136 353.024 4.688 353.024ZM5.008 358.976C5.47733 358.976 5.83467 358.864 6.08 358.64C6.336 358.416 6.464 358.101 6.464 357.696C6.464 357.323 6.336 357.029 6.08 356.816C5.83467 356.592 5.47733 356.48 5.008 356.48H2.176V358.976H5.008ZM12.848 360.192C11.6427 360.192 10.64 359.792 9.84 358.992C9.04 358.181 8.64 357.184 8.64 356C8.64 354.816 9.04 353.824 9.84 353.024C10.64 352.213 11.6427 351.808 12.848 351.808C13.6373 351.808 14.3467 352 14.976 352.384C15.6053 352.757 16.064 353.264 16.352 353.904L15.488 354.4C15.2747 353.92 14.928 353.541 14.448 353.264C13.9787 352.976 13.4453 352.832 12.848 352.832C11.9627 352.832 11.216 353.141 10.608 353.76C10 354.368 9.696 355.115 9.696 356C9.696 356.885 10 357.637 10.608 358.256C11.216 358.864 11.9627 359.168 12.848 359.168C13.4453 359.168 13.9787 359.029 14.448 358.752C14.9173 358.464 15.2853 358.08 15.552 357.6L16.432 358.112C16.1013 358.752 15.616 359.259 14.976 359.632C14.336 360.005 13.6267 360.192 12.848 360.192ZM21.566 351.808C22.75 351.808 23.7047 352.229 24.43 353.072C25.166 353.904 25.534 354.891 25.534 356.032C25.534 356.149 25.5233 356.315 25.502 356.528H18.478C18.5847 357.339 18.926 357.984 19.502 358.464C20.0887 358.933 20.8087 359.168 21.662 359.168C22.27 359.168 22.7927 359.045 23.23 358.8C23.678 358.544 24.014 358.213 24.238 357.808L25.166 358.352C24.814 358.917 24.334 359.365 23.726 359.696C23.118 360.027 22.4247 360.192 21.646 360.192C20.3873 360.192 19.3633 359.797 18.574 359.008C17.7847 358.219 17.39 357.216 17.39 356C17.39 354.805 17.7793 353.808 18.558 353.008C19.3367 352.208 20.3393 351.808 21.566 351.808ZM21.566 352.832C20.734 352.832 20.0353 353.083 19.47 353.584C18.9153 354.075 18.5847 354.715 18.478 355.504H24.446C24.3393 354.661 24.014 354.005 23.47 353.536C22.926 353.067 22.2913 352.832 21.566 352.832ZM32.3338 352V353.024H28.2698V360H27.2138V352H32.3338ZM40.0115 358.992C39.2008 359.792 38.2088 360.192 37.0355 360.192C35.8622 360.192 34.8648 359.792 34.0435 358.992C33.2328 358.181 32.8275 357.184 32.8275 356C32.8275 354.816 33.2328 353.824 34.0435 353.024C34.8648 352.213 35.8622 351.808 37.0355 351.808C38.2088 351.808 39.2008 352.213 40.0115 353.024C40.8328 353.824 41.2435 354.816 41.2435 356C41.2435 357.184 40.8328 358.181 40.0115 358.992ZM34.7955 358.256C35.4035 358.864 36.1502 359.168 37.0355 359.168C37.9208 359.168 38.6675 358.864 39.2755 358.256C39.8835 357.637 40.1875 356.885 40.1875 356C40.1875 355.115 39.8835 354.368 39.2755 353.76C38.6675 353.141 37.9208 352.832 37.0355 352.832C36.1502 352.832 35.4035 353.141 34.7955 353.76C34.1875 354.368 33.8835 355.115 33.8835 356C33.8835 356.885 34.1875 357.637 34.7955 358.256ZM52.7706 352H53.8906L50.4666 360.736C50.1573 361.525 49.7146 362.144 49.1386 362.592C48.5733 363.051 47.9386 363.253 47.2346 363.2V362.208C48.1946 362.315 48.9253 361.76 49.4266 360.544L49.6346 360.048L46.0506 352H47.1706L50.1786 358.704L52.7706 352ZM60.3509 352H61.4069V360H60.3509V356.96C59.7322 357.28 58.9695 357.44 58.0629 357.44C57.0175 357.44 56.2175 357.2 55.6629 356.72C55.1189 356.229 54.8469 355.509 54.8469 354.56V352H55.9029V354.56C55.9029 355.232 56.0789 355.717 56.4309 356.016C56.7829 356.304 57.3162 356.448 58.0309 356.448C58.8629 356.448 59.6362 356.293 60.3509 355.984V352ZM70.5312 352H71.5873V360H70.5312V358.432C69.7953 359.605 68.7179 360.192 67.2993 360.192C66.1579 360.192 65.1819 359.787 64.3713 358.976C63.5713 358.165 63.1713 357.173 63.1713 356C63.1713 354.827 63.5713 353.835 64.3713 353.024C65.1819 352.213 66.1579 351.808 67.2993 351.808C68.7179 351.808 69.7953 352.395 70.5312 353.568V352ZM65.1393 358.256C65.7473 358.864 66.4939 359.168 67.3793 359.168C68.2646 359.168 69.0113 358.864 69.6193 358.256C70.2273 357.637 70.5312 356.885 70.5312 356C70.5312 355.115 70.2273 354.368 69.6193 353.76C69.0113 353.141 68.2646 352.832 67.3793 352.832C66.4939 352.832 65.7473 353.141 65.1393 353.76C64.5313 354.368 64.2273 355.115 64.2273 356C64.2273 356.885 64.5313 357.637 65.1393 358.256ZM77.5511 360.192C76.3458 360.192 75.3431 359.792 74.5431 358.992C73.7431 358.181 73.3431 357.184 73.3431 356C73.3431 354.816 73.7431 353.824 74.5431 353.024C75.3431 352.213 76.3458 351.808 77.5511 351.808C78.3405 351.808 79.0498 352 79.6791 352.384C80.3085 352.757 80.7671 353.264 81.0551 353.904L80.1911 354.4C79.9778 353.92 79.6311 353.541 79.1511 353.264C78.6818 352.976 78.1485 352.832 77.5511 352.832C76.6658 352.832 75.9191 353.141 75.3111 353.76C74.7031 354.368 74.3991 355.115 74.3991 356C74.3991 356.885 74.7031 357.637 75.3111 358.256C75.9191 358.864 76.6658 359.168 77.5511 359.168C78.1485 359.168 78.6818 359.029 79.1511 358.752C79.6205 358.464 79.9885 358.08 80.2551 357.6L81.1351 358.112C80.8045 358.752 80.3191 359.259 79.6791 359.632C79.0391 360.005 78.3298 360.192 77.5511 360.192ZM88.255 352V353.024H85.423V360H84.367V353.024H81.535V352H88.255ZM95.2059 352H96.2619V360H95.2059V356.512H90.5979V360H89.5419V352H90.5979V355.488H95.2059V352ZM104.319 352H105.215V360H104.159V353.84L99.391 360H98.495V352H99.551V358.16L104.319 352ZM113.912 360H112.504L108.504 356.144V360H107.448V352H108.504V355.536L112.312 352H113.752L109.624 355.84L113.912 360ZM121.262 358.992C120.451 359.792 119.459 360.192 118.286 360.192C117.112 360.192 116.115 359.792 115.294 358.992C114.483 358.181 114.078 357.184 114.078 356C114.078 354.816 114.483 353.824 115.294 353.024C116.115 352.213 117.112 351.808 118.286 351.808C119.459 351.808 120.451 352.213 121.262 353.024C122.083 353.824 122.494 354.816 122.494 356C122.494 357.184 122.083 358.181 121.262 358.992ZM116.046 358.256C116.654 358.864 117.4 359.168 118.286 359.168C119.171 359.168 119.918 358.864 120.526 358.256C121.134 357.637 121.438 356.885 121.438 356C121.438 355.115 121.134 354.368 120.526 353.76C119.918 353.141 119.171 352.832 118.286 352.832C117.4 352.832 116.654 353.141 116.046 353.76C115.438 354.368 115.134 355.115 115.134 356C115.134 356.885 115.438 357.637 116.046 358.256ZM129.349 355.888C130.223 356.208 130.661 356.832 130.661 357.76C130.661 358.411 130.442 358.949 130.005 359.376C129.578 359.792 128.959 360 128.149 360H124.261V352H127.829C128.607 352 129.21 352.203 129.637 352.608C130.063 353.003 130.277 353.515 130.277 354.144C130.277 354.944 129.967 355.525 129.349 355.888ZM127.829 353.024H125.317V355.456H127.829C128.757 355.456 129.221 355.04 129.221 354.208C129.221 353.835 129.098 353.547 128.853 353.344C128.618 353.131 128.277 353.024 127.829 353.024ZM128.149 358.976C128.618 358.976 128.975 358.864 129.221 358.64C129.477 358.416 129.605 358.101 129.605 357.696C129.605 357.323 129.477 357.029 129.221 356.816C128.975 356.592 128.618 356.48 128.149 356.48H125.317V358.976H128.149Z" fill="white"/>
<path d="M61.84 70.976H62.96V74.144H61.904V72H55.376V74.144H54.32V70.976H55.296C55.84 70.2613 56.112 69.2533 56.112 67.952V64H61.84V70.976ZM56.576 70.976H60.784V65.024H57.168V67.952C57.168 69.1787 56.9707 70.1867 56.576 70.976ZM70.2215 64H71.2775V72H70.2215V68.512H65.6135V72H64.5575V64H65.6135V67.488H70.2215V64ZM79.2706 64V72H78.2146V68.928H76.8386L74.3746 72H73.0306L75.5586 68.896C74.9186 68.8 74.3906 68.5333 73.9746 68.096C73.5586 67.6587 73.3506 67.12 73.3506 66.48C73.3506 65.7547 73.6066 65.1627 74.1186 64.704C74.6413 64.2347 75.276 64 76.0226 64H79.2706ZM76.0226 67.936H78.2146V65.024H76.0226C75.5746 65.024 75.1906 65.1573 74.8706 65.424C74.5613 65.6907 74.4066 66.0427 74.4066 66.48C74.4066 66.9173 74.5613 67.2693 74.8706 67.536C75.1906 67.8027 75.5746 67.936 76.0226 67.936Z" fill="white"/>
<path d="M71.84 21.36C73.6267 21.9733 75.0667 22.9733 76.16 24.36C77.2533 25.72 77.8 27.3333 77.8 29.2C77.8 32.1333 76.8133 34.4267 74.84 36.08C72.8667 37.7333 70.4533 38.56 67.6 38.56C65.3867 38.56 63.4 38.0533 61.64 37.04C59.9067 36.0267 58.6267 34.5333 57.8 32.56L63.32 29.36C64.0133 31.3333 65.44 32.32 67.6 32.32C68.8533 32.32 69.8 32.0267 70.44 31.44C71.08 30.8533 71.4 30.1067 71.4 29.2C71.4 28.2933 71.08 27.5467 70.44 26.96C69.8 26.3733 68.8533 26.08 67.6 26.08H66.28L63.84 22.44L68.92 16H58.68V10H76.68V15.2L71.84 21.36Z" fill="white"/>
<path d="M41.4 315.84C44.1467 315.84 46.4267 316.667 48.24 318.32C50.08 319.947 51 322.24 51 325.2C51 328.133 50.0133 330.427 48.04 332.08C46.0667 333.733 43.6533 334.56 40.8 334.56C38.48 334.56 36.44 334.067 34.68 333.08C32.92 332.067 31.6267 330.56 30.8 328.56L36.32 325.36C37.0133 327.333 38.5067 328.32 40.8 328.32C42.0533 328.32 43 328.027 43.64 327.44C44.28 326.853 44.6 326.107 44.6 325.2C44.6 324.293 44.2933 323.547 43.68 322.96C43.0667 322.373 42.1733 322.08 41 322.08H32.24L33.4 306H49.6V312H39.4L39.12 315.84H41.4ZM72.7569 330.6C70.7569 333.24 67.9702 334.56 64.3969 334.56C60.8235 334.56 58.0235 333.24 55.9969 330.6C53.9969 327.933 52.9969 324.4 52.9969 320C52.9969 315.6 53.9969 312.08 55.9969 309.44C58.0235 306.773 60.8235 305.44 64.3969 305.44C67.9702 305.44 70.7569 306.773 72.7569 309.44C74.7835 312.08 75.7969 315.6 75.7969 320C75.7969 324.4 74.7835 327.933 72.7569 330.6ZM59.3969 320C59.3969 325.547 61.0635 328.32 64.3969 328.32C67.7302 328.32 69.3969 325.547 69.3969 320C69.3969 314.453 67.7302 311.68 64.3969 311.68C61.0635 311.68 59.3969 314.453 59.3969 320ZM97.9522 330.6C95.9522 333.24 93.1655 334.56 89.5922 334.56C86.0189 334.56 83.2189 333.24 81.1922 330.6C79.1922 327.933 78.1922 324.4 78.1922 320C78.1922 315.6 79.1922 312.08 81.1922 309.44C83.2189 306.773 86.0189 305.44 89.5922 305.44C93.1655 305.44 95.9522 306.773 97.9522 309.44C99.9789 312.08 100.992 315.6 100.992 320C100.992 324.4 99.9789 327.933 97.9522 330.6ZM84.5922 320C84.5922 325.547 86.2589 328.32 89.5922 328.32C92.9255 328.32 94.5922 325.547 94.5922 320C94.5922 314.453 92.9255 311.68 89.5922 311.68C86.2589 311.68 84.5922 314.453 84.5922 320Z" fill="white"/>
</svg>
