<svg width="23" height="25" viewBox="0 0 23 25" fill="none" xmlns="http://www.w3.org/2000/svg">
<path d="M20.2385 24.3955C14.4145 24.3955 8.58794 24.3955 2.76396 24.3955C2.64553 24.3756 2.52447 24.3631 2.40604 24.3382C0.977023 24.0445 0.00328964 22.9017 0.000657928 21.5175C0.000657928 21.2013 0.000657928 20.8877 0.000657928 20.5715C0.000657928 18.2064 0.000657928 15.8413 0.000657928 13.4786C0.000657928 11.0886 -0.00197378 8.69862 0.00328964 6.31111C0.00328964 5.86796 -0.0151323 5.41735 0.063819 4.98665C0.248039 3.95347 0.898072 3.24642 1.91128 2.84062C2.27183 2.69622 2.65606 2.63647 3.04818 2.63896C3.36135 2.63896 3.67716 2.63896 4.00086 2.63896C4.00086 2.36013 4.00086 2.09623 4.00086 1.82985C4.00086 1.0033 4.57194 0.286303 5.40883 0.0597501C5.49831 0.0348543 5.59305 0.0199167 5.68516 0C5.81674 0 5.94833 0 6.07991 0C6.0957 0.00746877 6.10886 0.0174271 6.12728 0.0199167C6.86153 0.12199 7.35366 0.515345 7.64052 1.15268C7.79316 1.49126 7.78526 1.84479 7.78263 2.2008C7.78263 2.34519 7.78263 2.4871 7.78263 2.6315C8.43793 2.6315 9.0748 2.6315 9.73536 2.6315C9.73536 2.2954 9.70641 1.96429 9.74063 1.64064C9.81695 0.918658 10.2301 0.410782 10.9354 0.126969C11.0802 0.0697085 11.2407 0.042323 11.3933 0.00248959C11.5328 0.00248959 11.6749 0.00248959 11.8144 0.00248959C11.8249 0.00995836 11.8355 0.0199167 11.846 0.0224063C12.6039 0.129459 13.1066 0.537751 13.3698 1.20496C13.4513 1.4116 13.475 1.64562 13.4934 1.86968C13.5145 2.12362 13.4987 2.38005 13.4987 2.63399C14.154 2.63399 14.7909 2.63399 15.4383 2.63399C15.4383 2.3676 15.4357 2.10619 15.4383 1.84728C15.4488 1.12778 15.7804 0.575095 16.4462 0.224063C16.6541 0.114521 16.9015 0.0746877 17.1305 0.00248959C17.2621 0.00248959 17.3936 0.00248959 17.5252 0.00248959C17.5437 0.00995836 17.5621 0.0224063 17.5831 0.0248959C18.4832 0.129459 19.1753 0.888783 19.2069 1.74022C19.2174 2.03648 19.2095 2.33523 19.2095 2.64145C19.3253 2.64145 19.4253 2.63647 19.5227 2.64145C19.8753 2.65888 20.2385 2.63896 20.5806 2.70369C22.0334 2.98751 23.0018 4.14517 22.9966 5.54929C22.9939 7.40902 22.9939 9.26625 22.9939 11.126C22.9939 14.4869 22.9966 17.8454 22.9939 21.2063C22.9939 21.4827 22.9939 21.764 22.9413 22.0354C22.7202 23.1457 22.0255 23.8851 20.9043 24.2586C20.6938 24.3283 20.4622 24.3507 20.2385 24.3955ZM1.76391 6.82396C1.76391 6.87376 1.76391 6.9111 1.76391 6.94844C1.76391 11.7982 1.76391 16.6479 1.76654 21.4976C1.76654 21.6071 1.7797 21.7217 1.80864 21.8287C1.96128 22.3864 2.44026 22.7275 3.06134 22.7275C7.46419 22.7275 11.867 22.7275 16.2699 22.7275C17.4989 22.7275 18.7253 22.7275 19.9543 22.7275C20.2122 22.7275 20.457 22.6702 20.6728 22.5283C21.0754 22.2669 21.2359 21.8984 21.2359 21.4453C21.2333 16.628 21.2333 11.8131 21.2333 6.99575C21.2333 6.93849 21.2333 6.88371 21.2333 6.82396C14.7356 6.82396 8.25897 6.82396 1.76391 6.82396ZM16.5015 3.47049C16.5015 4.0182 16.5015 4.56591 16.5015 5.11113C16.5015 5.1883 16.5094 5.26797 16.5304 5.34515C16.6436 5.77834 17.0989 6.03227 17.5489 5.92024C17.8937 5.8356 18.1595 5.47959 18.1595 5.09619C18.1595 4.03562 18.1595 2.97257 18.1595 1.912C18.1595 1.82238 18.1516 1.73026 18.1332 1.64064C18.0542 1.25973 17.6463 0.956002 17.2752 1.00081C16.8226 1.05559 16.5041 1.39666 16.5041 1.82985C16.5015 2.37756 16.5015 2.92278 16.5015 3.47049ZM6.71152 3.48045C6.71152 2.90784 6.71942 2.33523 6.70626 1.76512C6.69837 1.45143 6.52204 1.21492 6.22729 1.07799C5.94043 0.943554 5.65621 0.980898 5.40356 1.16513C5.14566 1.34936 5.05618 1.61076 5.05618 1.90454C5.05618 2.92776 5.05618 3.95347 5.05618 4.97669C5.05618 5.07129 5.06407 5.1659 5.07723 5.2605C5.13513 5.67626 5.50883 5.96755 5.95622 5.94763C6.34572 5.93269 6.70363 5.56921 6.70889 5.17337C6.71679 4.60823 6.71152 4.04558 6.71152 3.48045ZM10.788 3.47049C10.7854 3.47049 10.7828 3.47049 10.7828 3.47049C10.7828 3.99828 10.7802 4.52358 10.7854 5.05138C10.7854 5.15345 10.7907 5.2605 10.8223 5.3576C10.9144 5.66382 11.1275 5.86796 11.4591 5.93518C11.7565 5.99493 12.0118 5.89784 12.2144 5.68622C12.3881 5.50448 12.4434 5.28291 12.4434 5.04391C12.4434 4.03064 12.4434 3.01987 12.4434 2.00661C12.4434 1.90703 12.4355 1.80744 12.425 1.71035C12.3802 1.31699 11.996 0.985877 11.6012 0.998325C11.1802 1.01077 10.8038 1.35185 10.7959 1.75516C10.7802 2.32528 10.788 2.89788 10.788 3.47049Z" fill="white"/>
<path d="M3.37402 12.5121C3.37402 11.6009 3.37402 10.6997 3.37402 9.79102C4.45303 9.79102 5.52414 9.79102 6.60051 9.79102C6.60051 10.6997 6.60051 11.6009 6.60051 12.5121C5.52677 12.5121 4.45566 12.5121 3.37402 12.5121Z" fill="white"/>
<path d="M7.71631 9.79102C8.79268 9.79102 9.86379 9.79102 10.9428 9.79102C10.9428 10.6997 10.9428 11.6034 10.9428 12.5121C9.86905 12.5121 8.79794 12.5121 7.71631 12.5121C7.71631 11.6084 7.71631 10.7022 7.71631 9.79102Z" fill="white"/>
<path d="M12.0588 9.79102C13.1326 9.79102 14.2063 9.79102 15.2827 9.79102C15.2827 10.6972 15.2827 11.6009 15.2827 12.5121C14.2116 12.5121 13.1405 12.5121 12.0588 12.5121C12.0588 11.6084 12.0588 10.7022 12.0588 9.79102Z" fill="white"/>
<path d="M16.3984 9.79102C17.4748 9.79102 18.5485 9.79102 19.6249 9.79102C19.6249 10.6997 19.6249 11.6009 19.6249 12.5121C18.5512 12.5121 17.4801 12.5121 16.3984 12.5121C16.3984 11.6084 16.3984 10.7022 16.3984 9.79102Z" fill="white"/>
<path d="M6.60037 16.1748C5.524 16.1748 4.45552 16.1748 3.37915 16.1748C3.37915 15.2661 3.37915 14.3624 3.37915 13.4487C4.45026 13.4487 5.52137 13.4487 6.60037 13.4487C6.60037 14.3525 6.60037 15.2587 6.60037 16.1748Z" fill="white"/>
<path d="M10.9402 16.1748C9.86116 16.1748 8.79268 16.1748 7.71631 16.1748C7.71631 15.2661 7.71631 14.3599 7.71631 13.4487C8.78742 13.4487 9.86116 13.4487 10.9402 13.4487C10.9402 14.3549 10.9402 15.2587 10.9402 16.1748Z" fill="white"/>
<path d="M15.2801 16.1748C14.2037 16.1748 13.1352 16.1748 12.0588 16.1748C12.0588 15.2661 12.0588 14.3599 12.0588 13.4487C13.1273 13.4487 14.2011 13.4487 15.2801 13.4487C15.2801 14.3525 15.2801 15.2587 15.2801 16.1748Z" fill="white"/>
<path d="M19.6249 16.1748C18.5459 16.1748 17.4774 16.1748 16.3984 16.1748C16.3984 15.2661 16.3984 14.3599 16.3984 13.4487C17.4722 13.4487 18.5433 13.4487 19.6249 13.4487C19.6249 14.3549 19.6249 15.2587 19.6249 16.1748Z" fill="white"/>
<path d="M6.60051 19.827C5.52414 19.827 4.45303 19.827 3.37402 19.827C3.37402 18.9183 3.37402 18.0171 3.37402 17.1084C4.44776 17.1084 5.51887 17.1084 6.60051 17.1084C6.60051 18.0121 6.60051 18.9158 6.60051 19.827Z" fill="white"/>
<path d="M10.9428 19.8266C9.86647 19.8266 8.798 19.8266 7.71899 19.8266C7.71899 18.9204 7.71899 18.0167 7.71899 17.1055C8.7901 17.1055 9.86121 17.1055 10.9428 17.1055C10.9428 18.0067 10.9428 18.9104 10.9428 19.8266Z" fill="white"/>
<path d="M15.2827 19.8266C14.2063 19.8266 13.1378 19.8266 12.0588 19.8266C12.0588 18.9204 12.0588 18.0142 12.0588 17.103C13.1326 17.103 14.2037 17.103 15.2827 17.103C15.2827 18.0117 15.2827 18.913 15.2827 19.8266Z" fill="white"/>
<path d="M19.6249 19.8241C18.5459 19.8241 17.4748 19.8241 16.3958 19.8241C16.3958 18.9154 16.3958 18.0142 16.3958 17.103C17.4721 17.103 18.5459 17.103 19.6249 17.103C19.6249 18.0067 19.6249 18.9105 19.6249 19.8241Z" fill="white"/>
</svg>
