<svg width="19" height="25" viewBox="0 0 19 25" fill="none" xmlns="http://www.w3.org/2000/svg">
<path d="M9.50189 20.8173C9.04072 20.0708 8.5767 19.3558 8.14969 18.6207C7.33268 17.225 6.51851 15.8292 5.73851 14.4135C5.04106 13.1521 4.40054 11.8594 3.8739 10.5151C3.66039 9.96596 3.48105 9.40251 3.31594 8.83907C3.08251 8.05253 3.14514 7.25455 3.25901 6.45658C3.40134 5.46411 3.71448 4.53171 4.2696 3.69084C4.98128 2.61543 5.94917 1.86035 7.15333 1.42561C8.76458 0.845009 10.3815 0.847869 11.9785 1.46566C13.7037 2.13493 14.8566 3.37908 15.4572 5.1352C15.7618 6.02184 15.8786 6.9428 15.8615 7.87806C15.8501 8.50443 15.6679 9.09934 15.4629 9.6828C14.8964 11.3159 14.1392 12.8633 13.3051 14.3677C12.4653 15.8864 11.5857 17.3823 10.7117 18.881C10.3474 19.5045 9.95167 20.1108 9.57021 20.7229C9.55313 20.7486 9.53605 20.7687 9.50189 20.8173ZM7.3099 7.53485C7.3156 8.75326 8.30057 9.75145 9.49335 9.74573C10.7317 9.74001 11.7223 8.74754 11.7081 7.52627C11.6939 6.28211 10.7117 5.32397 9.45634 5.33255C8.28633 5.34113 7.30421 6.35075 7.3099 7.53485Z" fill="white"/>
<path d="M6.6922 17.1247C6.41892 17.1648 6.16271 17.1991 5.90651 17.242C4.91015 17.405 3.93657 17.6396 3.03131 18.1C2.69255 18.2716 2.37372 18.4804 2.11182 18.7607C1.56809 19.3471 1.56524 20.0535 2.09189 20.6599C2.5616 21.1976 3.15941 21.5351 3.80277 21.8096C4.87884 22.273 6.01184 22.5189 7.16761 22.6619C8.54258 22.8336 9.91755 22.8479 11.2982 22.722C12.454 22.6162 13.5898 22.4074 14.6858 22.0184C15.4317 21.7524 16.1434 21.4235 16.7298 20.8715C17.023 20.5969 17.2479 20.2766 17.3077 19.8647C17.3731 19.4214 17.1938 19.0639 16.8977 18.755C16.4593 18.2974 15.9071 18.0285 15.3263 17.8083C14.4268 17.4651 13.4874 17.2792 12.5365 17.1591C12.4881 17.1533 12.4426 17.1476 12.3942 17.1419C12.38 17.139 12.3686 17.1333 12.3544 17.1276C12.4654 17.0103 12.5679 16.8816 12.6903 16.7787C12.7358 16.7415 12.8354 16.7472 12.9066 16.7586C13.6183 16.8759 14.33 16.9789 15.036 17.1219C15.759 17.2649 16.4536 17.5051 17.1112 17.8426C17.6094 18.0972 18.0649 18.4089 18.4293 18.8408C19.084 19.6159 19.1837 20.7028 18.6855 21.5894C18.3296 22.2215 17.8115 22.6848 17.2166 23.0738C16.3312 23.6487 15.3577 24.0119 14.3442 24.2808C12.9436 24.6526 11.5174 24.8213 10.0713 24.8614C8.63937 24.8986 7.21885 24.8042 5.81257 24.5411C4.62833 24.318 3.48109 23.989 2.40503 23.4313C1.67911 23.0538 1.00728 22.5962 0.529034 21.9155C-0.0659323 21.066 -0.191188 20.1622 0.318376 19.2298C0.65429 18.6149 1.20086 18.2202 1.80722 17.8998C2.7324 17.4107 3.72591 17.1448 4.74789 16.9646C5.18059 16.8873 5.61899 16.8416 6.05454 16.7729C6.21395 16.7472 6.34775 16.7501 6.45308 16.8988C6.51855 16.9731 6.60396 17.0389 6.6922 17.1247Z" fill="white"/>
</svg>
