<svg width="188" height="182" viewBox="0 0 188 182" fill="none" xmlns="http://www.w3.org/2000/svg">
<g filter="url(#filter0_d)">
<circle cx="92.5" cy="78.5" r="68.15" fill="#E19B8C"/>
</g>
<g filter="url(#filter1_di)">
<path d="M33.75 80.6193C33.75 78.8382 33.75 77.0693 33.75 75.2882C33.7862 75.058 33.8345 74.8157 33.8465 74.5855C34.1121 69.5815 34.9569 64.6866 36.5378 59.9371C42.0411 43.338 52.6977 31.2461 68.5075 23.9159C80.2744 18.4637 92.6206 17.252 105.293 19.9782C118.23 22.7649 129.044 29.2712 137.661 39.3397C145.952 49.0205 150.598 60.2764 151.696 73.0104C152.276 79.6985 151.757 86.3139 150.031 92.796C145.976 108.05 137.25 119.912 123.975 128.333C116.396 133.143 108.08 135.954 99.1497 136.899C97.9307 137.032 96.7118 137.129 95.505 137.25C93.7309 137.25 91.9689 137.25 90.1948 137.25C89.9413 137.214 89.6879 137.153 89.4224 137.141C83.5933 136.814 77.921 135.663 72.454 133.615C60.1561 128.999 50.3805 121.148 43.2118 110.11C38.1068 102.271 35.0896 93.6562 34.1 84.3389C33.9672 83.091 33.8707 81.8551 33.75 80.6193ZM78.0538 77.9659C78.0538 83.091 78.0417 88.2161 78.0658 93.3412C78.0658 94.0076 78.1503 94.7346 78.3917 95.3525C79.2727 97.5455 81.7106 98.3452 83.9432 97.2305C88.9396 94.7346 93.924 92.2265 98.9083 89.7185C104.279 87.0287 109.637 84.3268 115.008 81.6492C115.985 81.1645 116.734 80.4739 117.144 79.4562C117.94 77.4933 117.108 75.3609 115.128 74.3674C109.082 71.3262 103.036 68.2972 96.9894 65.2682C92.6326 63.0873 88.2638 60.8943 83.907 58.7134C82.3381 57.9258 80.8296 58.047 79.4537 59.1617C78.3917 60.0219 78.0417 61.2093 78.0417 62.5542C78.0658 67.6793 78.0538 72.8165 78.0538 77.9659Z" fill="#EAAA99"/>
</g>
<g filter="url(#filter2_d)">
<path d="M121.693 82.9145C119.908 84.3869 118.052 85.7578 116.173 87.0779C106.119 94.0593 96.0411 100.99 85.9633 107.92C84.9062 108.657 83.8256 109.368 82.5336 109.621C80.3489 110.002 78.6106 109.291 77.2951 107.362C76.9427 106.829 76.5669 106.296 76.285 105.737C76.144 105.458 76.0735 105.052 76.0735 104.722C76.05 95.8871 76.05 87.0779 76.05 78.2433C76.05 69.4341 76.05 60.6249 76.0735 51.841C76.0735 51.3841 76.285 50.8763 76.4729 50.4448C76.6138 50.0894 76.8722 49.7847 77.0837 49.4547C78.5401 47.1699 80.3724 46.3067 82.8625 47.0175C83.9666 47.3222 85.0237 47.9569 86.0103 48.6169C97.4271 56.1314 108.679 63.9505 119.767 72.0489C120.472 72.5567 121.153 73.0898 121.787 73.6483C125.17 76.7201 124.348 80.7058 121.693 82.9145Z" fill="black"/>
</g>
<g filter="url(#filter3_d)">
<circle cx="92.5" cy="78.5" r="68.5" stroke="#DC8A74" stroke-width="4"/>
<circle cx="92.5" cy="78.5" r="68.5" stroke="url(#paint0_linear)" stroke-width="4"/>
</g>
<g filter="url(#filter4_d)">
<circle cx="93.675" cy="77.325" r="64.8" stroke="#DC8A74" stroke-width="2"/>
<circle cx="93.675" cy="77.325" r="64.8" stroke="url(#paint1_linear)" stroke-width="2"/>
</g>
<g clip-path="url(#clip0)">
<path d="M8.73517 136.227C6.76869 135.968 5.26767 135.03 3.94154 133.538C2.76493 131.913 2.30211 130.19 2.56153 128.227C2.82095 126.265 3.76034 124.767 5.25555 123.444C6.88337 122.271 8.60999 121.809 10.5765 122.069C12.543 122.328 14.044 123.266 15.3701 124.758C16.5467 126.383 17.0095 128.106 16.7501 130.068C16.4907 132.031 15.5513 133.528 14.0561 134.851C12.5609 136.174 10.7017 136.487 8.73517 136.227ZM3.96375 128.453C3.72969 129.993 4.06835 131.426 5.1208 132.761C6.17325 134.095 7.40904 134.735 8.95232 134.969C10.4956 135.203 11.9401 134.724 13.2689 133.815C14.6061 132.765 15.2464 131.532 15.4805 129.992C15.7146 128.452 15.3759 127.019 14.3235 125.684C13.271 124.35 12.0352 123.71 10.4919 123.476C8.94865 123.242 7.50417 123.721 6.17539 124.63C4.84661 125.539 4.20626 126.772 3.96375 128.453Z" fill="black"/>
<path d="M26.5011 137.435L25.5956 138.37L22.6612 135.368L13.7803 144.159L12.852 143.115L21.7329 134.323L18.7985 131.322L19.7041 130.387L26.5011 137.435Z" fill="black"/>
<path d="M27.7601 147.118C28.1411 147.847 28.3809 148.568 28.3387 149.272C28.2964 149.976 27.972 150.663 27.5065 151.341C26.742 152.284 25.8702 152.656 24.7333 152.729C23.5963 152.802 22.4931 152.312 21.2742 151.391C20.1964 150.478 19.6829 149.6 19.4514 148.738C19.2285 147.736 19.2792 146.891 19.6205 145.923L21.0227 146.148C20.6983 146.835 20.6561 147.539 20.7549 148.251C20.8537 148.964 21.3757 149.702 22.1798 150.456C22.9839 151.211 23.8134 151.543 24.5272 151.445C25.2325 151.487 25.9632 151.107 26.4202 150.57C26.8857 149.891 27.0606 149.337 26.9618 148.624C26.863 147.912 26.4821 147.183 25.6695 146.569L24.4591 145.507L25.2236 144.564L26.0277 145.319C26.6992 145.924 27.5287 146.256 28.2425 146.158C28.9563 146.06 29.5375 145.812 29.9945 145.274C30.4515 144.737 30.6348 144.041 30.536 143.329C30.4372 142.617 30.0479 142.028 29.2353 141.414C27.8838 140.344 26.6226 140.127 25.3023 140.895L24.8141 139.595C25.5448 139.215 26.4081 138.984 27.3956 139.043C28.242 139.094 29.2041 139.576 30.1493 140.339C31.0945 141.102 31.7407 142.13 31.8141 143.264C32.0286 144.407 31.6957 145.235 30.9312 146.178C30.3162 146.989 29.1539 147.484 27.7601 147.118Z" fill="black"/>
<path d="M27.7749 156.302L35.1321 144.594L36.3594 145.374L33.5497 149.726L36.5517 151.602C37.6465 152.233 38.3011 153.12 38.5156 154.263C38.7301 155.406 38.5214 156.524 37.8895 157.616C37.2576 158.708 36.3689 159.361 35.2235 159.575C34.078 159.789 32.9579 159.58 31.8632 158.949L27.7749 156.302ZM29.6426 155.849L32.6446 157.725C33.3246 158.189 34.1626 158.381 34.8848 158.142C35.607 157.903 36.3377 157.523 36.8117 156.704C37.2856 155.884 37.4689 155.189 37.2291 154.468C36.9892 153.747 36.6083 153.018 35.9283 152.553L32.9263 150.678L29.6426 155.849ZM36.9136 162.078L44.2708 150.37L45.4981 151.15L38.141 162.858L36.9136 162.078Z" fill="black"/>
<path d="M51.9597 161.428C52.4901 162.025 52.7385 162.605 52.8373 163.317C52.9361 164.029 52.8938 164.733 52.5694 165.42C52.087 166.38 51.3394 167.042 50.4676 167.413C49.5959 167.785 48.4674 167.717 47.5052 167.235L41.9894 164.785L47.696 152.271L52.7971 154.555C53.7592 155.037 54.4308 155.642 54.7948 156.653C55.1588 157.664 55.1081 158.509 54.7668 159.477C54.1349 160.569 53.2462 161.222 51.9597 161.428ZM48.0045 165.994C48.693 166.318 49.2572 166.352 49.8384 166.104C50.4196 165.856 51.0092 165.468 51.1925 164.772C51.5169 164.085 51.5508 163.522 51.3109 162.802C51.071 162.081 50.6732 161.633 49.9763 161.45L45.7047 159.498L43.5834 164.174L48.0045 165.994ZM52.3063 155.656L48.4494 153.87L46.4861 158.273L50.2019 160.051C50.7493 160.366 51.3135 160.4 52.0358 160.161C52.617 159.913 53.0655 159.516 53.3899 158.829C53.7059 158.283 53.7481 157.579 53.4998 156.999C53.2515 156.419 52.8537 155.972 52.3063 155.656Z" fill="black"/>
<path d="M54.2654 170.184L58.313 157.006L59.7068 157.372L58.2824 162.231L61.7583 163.288C63.011 163.645 63.8151 164.4 64.3202 165.419C64.8253 166.439 65.0398 167.582 64.6901 168.691C64.3318 169.941 63.5758 170.743 62.5545 171.247C61.5332 171.751 60.3878 171.965 59.2762 171.615L54.2654 170.184ZM56.0174 169.301L59.4933 170.357C60.3312 170.549 61.0366 170.591 61.7673 170.211C62.498 169.831 62.9634 169.153 63.1552 168.316C63.347 167.48 63.3977 166.636 63.0084 166.047C62.619 165.459 62.0885 164.862 61.2506 164.67L57.7746 163.614L56.0174 169.301ZM64.7017 173.213L68.7493 160.034L70.1431 160.401L65.9459 173.711L64.7017 173.213Z" fill="black"/>
<path d="M85.02 162.565L86.4222 162.791L80.5687 173.035C79.9368 174.128 79.3303 174.798 78.5996 175.178C77.8689 175.558 76.873 175.639 75.894 175.439L75.9701 174.172C76.6669 174.355 77.3807 174.257 77.8208 174.001C78.2609 173.744 78.8506 173.356 79.1834 172.528L79.5078 171.841L75.8929 161.311L77.2952 161.536L80.2977 170.476L85.02 162.565Z" fill="black"/>
<path d="M95.4844 162.77L96.9035 162.714L96.9214 176.56L95.5023 176.616L95.5668 170.828C94.396 171.464 93.1095 171.669 91.8314 171.734C90.5534 171.798 89.4502 171.308 88.6376 170.694C87.8335 169.94 87.461 169.07 87.396 167.794L87.4098 162.85L88.8289 162.794L88.8151 167.738C88.7644 168.583 89.0127 169.163 89.5516 169.619C90.0905 170.075 90.779 170.399 91.7749 170.318C93.0529 170.253 94.3395 170.048 95.5103 169.412L95.4844 162.77Z" fill="black"/>
<path d="M110.167 175.237L108.52 172.03L101.963 172.766L101.046 176.243L99.6186 176.44L103.17 162.101L104.597 161.904L111.595 175.04L110.167 175.237ZM102.321 171.516L107.882 170.861L104.197 163.858L102.321 171.516Z" fill="black"/>
<path d="M120.335 173.304C118.318 173.89 116.493 173.639 114.718 172.543C113.076 171.597 111.891 170.113 111.445 168.108C110.999 166.103 111.242 164.423 112.198 162.643C113.146 161.005 114.633 159.823 116.782 159.387C118.077 159.041 119.206 159.108 120.459 159.466C121.711 159.824 122.665 160.446 123.469 161.201L122.422 162.127C121.759 161.381 120.938 160.908 120.1 160.716C119.13 160.375 118.134 160.457 117.129 160.679C115.403 161.141 114.215 162.058 113.434 163.283C112.644 164.648 112.418 166.047 112.889 167.63C113.361 169.212 114.14 170.389 115.508 171.178C116.876 171.966 118.42 172.2 120.005 171.73C121.01 171.508 121.89 170.996 122.496 170.326C123.103 169.656 123.718 168.845 123.918 167.868L125.312 168.235C124.962 169.344 124.471 170.445 123.574 171.238C122.66 172.314 121.63 172.958 120.335 173.304Z" fill="black"/>
<path d="M132.09 154.372L132.587 155.532L128.668 157.134L133.203 168.85L131.9 169.337L127.365 157.621L123.446 159.222L122.95 158.062L132.09 154.372Z" fill="black"/>
<path d="M141.149 149.689L142.32 149.053L148.804 161.31L147.634 161.946L144.578 156.252L138.001 159.672L141.057 165.366L139.887 166.002L133.402 153.745L134.573 153.109L137.364 158.504L143.949 154.943L141.149 149.689Z" fill="black"/>
<path d="M159.875 153.78L153.346 144.629L153.663 158.211L152.633 158.855L144.529 147.631L145.708 146.855L152.238 156.006L151.921 142.424L152.95 141.78L161.054 153.004L159.875 153.78Z" fill="black"/>
<path d="M171.379 143.734L170.034 144.925L160.723 144.366L165.241 149.299L164.194 150.225L154.894 140.06L155.941 139.134L160.193 143.769L160.584 134.892L161.93 133.701L161.646 143.149L171.379 143.734Z" fill="black"/>
<path d="M178.562 132.58C178.726 134.568 178.201 136.232 176.83 137.845C175.467 139.317 173.856 140.209 172.006 140.381C170.014 140.544 168.346 140.02 166.73 138.651C165.245 137.432 164.359 135.683 164.187 133.836C164.023 131.849 164.548 130.185 165.919 128.572C167.282 127.099 168.893 126.207 170.743 126.036C172.735 125.873 174.403 126.397 176.019 127.765C177.636 129.134 178.39 130.733 178.562 132.58ZM171.949 138.965C173.509 138.917 174.83 138.149 175.893 136.941C176.957 135.733 177.464 134.351 177.275 132.786C177.086 131.22 176.457 129.911 175.246 128.849C174.036 127.788 172.651 127.281 171.082 127.469C169.522 127.517 168.202 128.285 167.138 129.493C166.074 130.7 165.567 132.083 165.756 133.648C165.945 135.213 166.574 136.523 167.785 137.584C168.995 138.646 170.38 139.153 171.949 138.965Z" fill="black"/>
<path d="M181.357 119.044C181.946 118.656 182.669 118.416 183.374 118.459C184.079 118.501 184.776 118.684 185.323 119C186.277 119.622 186.799 120.36 187.022 121.362C187.245 122.365 187.045 123.342 186.562 124.302L183.287 129.332L171.561 121.847L174.529 117.221C175.144 116.411 175.892 115.749 176.887 115.668C177.883 115.586 178.871 115.645 179.692 116.119C180.928 116.758 181.433 117.777 181.357 119.044ZM175.765 117.861L173.57 121.402L177.658 124.049L179.853 120.508C180.169 119.962 180.344 119.407 180.104 118.686C179.997 118.115 179.607 117.526 179.06 117.211C178.513 116.895 177.957 116.721 177.243 116.819C176.67 116.926 176.081 117.314 175.765 117.861ZM185.476 123.53C185.792 122.984 185.975 122.288 185.727 121.708C185.628 120.996 185.23 120.548 184.551 120.084C184.003 119.768 183.306 119.585 182.593 119.683C181.879 119.782 181.43 120.179 180.973 120.716L178.471 124.663L182.833 127.468L185.476 123.53Z" fill="black"/>
</g>
<defs>
<filter id="filter0_d" x="12.35" y="2.35" width="160.3" height="160.3" filterUnits="userSpaceOnUse" color-interpolation-filters="sRGB">
<feFlood flood-opacity="0" result="BackgroundImageFix"/>
<feColorMatrix in="SourceAlpha" type="matrix" values="0 0 0 0 0 0 0 0 0 0 0 0 0 0 0 0 0 0 127 0"/>
<feOffset dy="4"/>
<feGaussianBlur stdDeviation="6"/>
<feColorMatrix type="matrix" values="0 0 0 0 1 0 0 0 0 1 0 0 0 0 1 0 0 0 0.25 0"/>
<feBlend mode="normal" in2="BackgroundImageFix" result="effect1_dropShadow"/>
<feBlend mode="normal" in="SourceGraphic" in2="effect1_dropShadow" result="shape"/>
</filter>
<filter id="filter1_di" x="29.75" y="18.575" width="126.174" height="126.675" filterUnits="userSpaceOnUse" color-interpolation-filters="sRGB">
<feFlood flood-opacity="0" result="BackgroundImageFix"/>
<feColorMatrix in="SourceAlpha" type="matrix" values="0 0 0 0 0 0 0 0 0 0 0 0 0 0 0 0 0 0 127 0"/>
<feOffset dy="4"/>
<feGaussianBlur stdDeviation="2"/>
<feColorMatrix type="matrix" values="0 0 0 0 0 0 0 0 0 0 0 0 0 0 0 0 0 0 0.25 0"/>
<feBlend mode="normal" in2="BackgroundImageFix" result="effect1_dropShadow"/>
<feBlend mode="normal" in="SourceGraphic" in2="effect1_dropShadow" result="shape"/>
<feColorMatrix in="SourceAlpha" type="matrix" values="0 0 0 0 0 0 0 0 0 0 0 0 0 0 0 0 0 0 127 0" result="hardAlpha"/>
<feOffset dy="4"/>
<feGaussianBlur stdDeviation="2"/>
<feComposite in2="hardAlpha" operator="arithmetic" k2="-1" k3="1"/>
<feColorMatrix type="matrix" values="0 0 0 0 0 0 0 0 0 0 0 0 0 0 0 0 0 0 0.25 0"/>
<feBlend mode="normal" in2="shape" result="effect2_innerShadow"/>
</filter>
<filter id="filter2_d" x="72.05" y="46.775" width="55.9673" height="70.9454" filterUnits="userSpaceOnUse" color-interpolation-filters="sRGB">
<feFlood flood-opacity="0" result="BackgroundImageFix"/>
<feColorMatrix in="SourceAlpha" type="matrix" values="0 0 0 0 0 0 0 0 0 0 0 0 0 0 0 0 0 0 127 0"/>
<feOffset dy="4"/>
<feGaussianBlur stdDeviation="2"/>
<feColorMatrix type="matrix" values="0 0 0 0 0 0 0 0 0 0 0 0 0 0 0 0 0 0 0.25 0"/>
<feBlend mode="normal" in2="BackgroundImageFix" result="effect1_dropShadow"/>
<feBlend mode="normal" in="SourceGraphic" in2="effect1_dropShadow" result="shape"/>
</filter>
<filter id="filter3_d" x="10" y="0" width="165" height="165" filterUnits="userSpaceOnUse" color-interpolation-filters="sRGB">
<feFlood flood-opacity="0" result="BackgroundImageFix"/>
<feColorMatrix in="SourceAlpha" type="matrix" values="0 0 0 0 0 0 0 0 0 0 0 0 0 0 0 0 0 0 127 0"/>
<feOffset dy="4"/>
<feGaussianBlur stdDeviation="6"/>
<feColorMatrix type="matrix" values="0 0 0 0 1 0 0 0 0 1 0 0 0 0 1 0 0 0 0.25 0"/>
<feBlend mode="normal" in2="BackgroundImageFix" result="effect1_dropShadow"/>
<feBlend mode="normal" in="SourceGraphic" in2="effect1_dropShadow" result="shape"/>
</filter>
<filter id="filter4_d" x="23.875" y="11.525" width="139.6" height="139.6" filterUnits="userSpaceOnUse" color-interpolation-filters="sRGB">
<feFlood flood-opacity="0" result="BackgroundImageFix"/>
<feColorMatrix in="SourceAlpha" type="matrix" values="0 0 0 0 0 0 0 0 0 0 0 0 0 0 0 0 0 0 127 0"/>
<feOffset dy="4"/>
<feGaussianBlur stdDeviation="2"/>
<feColorMatrix type="matrix" values="0 0 0 0 0 0 0 0 0 0 0 0 0 0 0 0 0 0 0.25 0"/>
<feBlend mode="normal" in2="BackgroundImageFix" result="effect1_dropShadow"/>
<feBlend mode="normal" in="SourceGraphic" in2="effect1_dropShadow" result="shape"/>
</filter>
<linearGradient id="paint0_linear" x1="92.5" y1="8" x2="92.5" y2="149" gradientUnits="userSpaceOnUse">
<stop stop-color="white"/>
<stop offset="1" stop-color="white" stop-opacity="0"/>
</linearGradient>
<linearGradient id="paint1_linear" x1="93.675" y1="11.525" x2="93.675" y2="143.125" gradientUnits="userSpaceOnUse">
<stop stop-color="white"/>
<stop offset="1" stop-color="white" stop-opacity="0"/>
</linearGradient>
<clipPath id="clip0">
<rect width="184" height="66" fill="white" transform="translate(3.9563 105) rotate(3.43665)"/>
</clipPath>
</defs>
</svg>
