<svg width="189" height="56" viewBox="0 0 189 56" fill="none" xmlns="http://www.w3.org/2000/svg">
<path d="M92.4734 46.0752V46.9996H90.3236V53.4143H89.3719V46.9996H87.2222V46.0752H92.4734Z" fill="black"/>
<path d="M95.1606 52.6588C95.6869 52.6588 96.1235 52.4784 96.4818 52.1177C96.8401 51.7569 97.0081 51.3172 97.0081 50.7874C97.0081 50.2575 96.8289 49.8066 96.4818 49.4571C96.1235 49.0963 95.6869 48.916 95.1606 48.916C94.6456 48.916 94.2089 49.0963 93.8506 49.4571C93.4923 49.8179 93.3243 50.2575 93.3243 50.7874C93.3243 51.3172 93.5035 51.7682 93.8506 52.1177C94.1977 52.4784 94.6344 52.6588 95.1606 52.6588ZM97.0081 48.1606H97.915V53.4029H97.0081V52.501C96.5602 53.1887 95.8996 53.5381 95.0374 53.5381C94.3097 53.5381 93.6938 53.2676 93.1788 52.7377C92.6637 52.2079 92.4062 51.554 92.4062 50.7874C92.4062 50.0208 92.6637 49.3669 93.1788 48.837C93.6938 48.3072 94.3097 48.0366 95.0374 48.0366C95.8996 48.0366 96.549 48.3861 97.0081 49.0738V48.1606Z" fill="black"/>
<path d="M103.469 48.1606V49.04H101.699V53.4029H100.793V49.04H99.0123V48.1606H103.469Z" fill="black"/>
<path d="M106.76 52.5574C107.018 52.5574 107.231 52.4785 107.41 52.3319C107.589 52.1854 107.679 51.9824 107.679 51.7344C107.679 51.4864 107.589 51.2835 107.41 51.1257C107.231 50.9678 107.018 50.9002 106.76 50.9002H105.473V52.5687H106.76V52.5574ZM106.76 50.0547C107.275 50.0547 107.712 50.2125 108.059 50.5169C108.406 50.8325 108.574 51.2271 108.574 51.7232C108.574 52.2192 108.406 52.625 108.059 52.9294C107.712 53.2451 107.287 53.3916 106.76 53.3916H104.566V48.1494H105.473V50.0547H106.76Z" fill="black"/>
<path d="M111.239 50.6972H112.527V49.0062H111.239C110.982 49.0062 110.769 49.0851 110.59 49.2316C110.41 49.3895 110.321 49.5924 110.321 49.8517C110.321 50.0997 110.41 50.3026 110.59 50.4605C110.769 50.6183 110.982 50.6972 111.239 50.6972ZM113.422 48.1606V53.4029H112.527V51.5202H111.765L110.31 53.4029H109.212L110.735 51.4638C110.343 51.3624 110.03 51.1707 109.783 50.8776C109.537 50.5845 109.425 50.2463 109.425 49.8517C109.425 49.3669 109.593 48.9723 109.94 48.6454C110.276 48.3297 110.702 48.1606 111.217 48.1606H113.422Z" fill="black"/>
<path d="M118.707 48.1606H119.614V53.4029H118.707V51.2158H116.009V53.4029H115.102V48.1606H116.009V50.3365H118.707V48.1606Z" fill="black"/>
<path d="M125.974 48.1607H126.881V53.4029H125.974V48.1607ZM123.488 50.0547C124.003 50.0547 124.44 50.2125 124.787 50.5169C125.134 50.8325 125.302 51.2271 125.302 51.7231C125.302 52.2192 125.134 52.625 124.787 52.9294C124.44 53.2451 124.014 53.3916 123.488 53.3916H121.294V48.1494H122.201V50.0547H123.488ZM123.488 52.5574C123.746 52.5574 123.958 52.4785 124.138 52.3319C124.317 52.1854 124.406 51.9824 124.406 51.7344C124.406 51.4864 124.317 51.2835 124.138 51.1256C123.958 50.9678 123.746 50.9002 123.488 50.9002H122.201V52.5687H123.488V52.5574Z" fill="black"/>
<path d="M138.391 46.0752V53.403H137.439V47.676L135.054 51.6669H134.931L132.546 47.6873V53.403H131.583V46.0752H132.669L134.987 49.9533L137.294 46.0752H138.391Z" fill="black"/>
<path d="M142.623 52.6588C143.15 52.6588 143.586 52.4784 143.945 52.1177C144.303 51.7569 144.471 51.3172 144.471 50.7874C144.471 50.2575 144.292 49.8066 143.945 49.4571C143.586 49.0963 143.15 48.916 142.623 48.916C142.108 48.916 141.672 49.0963 141.313 49.4571C140.955 49.8179 140.787 50.2575 140.787 50.7874C140.787 51.3172 140.966 51.7682 141.313 52.1177C141.66 52.4784 142.097 52.6588 142.623 52.6588ZM144.471 48.1606H145.378V53.4029H144.471V52.501C144.023 53.1887 143.362 53.5381 142.5 53.5381C141.772 53.5381 141.157 53.2676 140.642 52.7377C140.126 52.2079 139.869 51.554 139.869 50.7874C139.869 50.0208 140.126 49.3669 140.642 48.837C141.157 48.3072 141.772 48.0366 142.5 48.0366C143.362 48.0366 144.012 48.3861 144.471 49.0738V48.1606Z" fill="black"/>
<path d="M149.812 52.6588C150.327 52.6588 150.763 52.4785 151.122 52.1177C151.48 51.757 151.648 51.3173 151.648 50.7874C151.648 50.2576 151.469 49.8066 151.122 49.4571C150.775 49.1077 150.327 48.916 149.812 48.916C149.285 48.916 148.849 49.0964 148.49 49.4571C148.132 49.8179 147.964 50.2576 147.964 50.7874C147.964 51.3173 148.143 51.7682 148.49 52.1177C148.849 52.4785 149.285 52.6588 149.812 52.6588ZM149.935 48.0254C150.663 48.0254 151.278 48.296 151.793 48.8258C152.308 49.3557 152.566 50.0095 152.566 50.7762C152.566 51.5428 152.308 52.1966 151.793 52.7265C151.278 53.2563 150.663 53.5269 149.935 53.5269C149.073 53.5269 148.423 53.1774 147.975 52.4897V55.4885H147.068V48.1607H147.975V49.0626C148.412 48.3749 149.073 48.0254 149.935 48.0254Z" fill="black"/>
<path d="M157.728 48.1606H158.455V53.4029H157.56V49.7277L154.682 53.4029H153.954V48.1606H154.85V51.8358L157.728 48.1606Z" fill="black"/>
<path d="M163.416 48.1606H164.323V53.4029H163.416V51.5202C163.001 51.7006 162.531 51.7907 162.016 51.7907C161.355 51.7907 160.84 51.6329 160.471 51.3173C160.113 51.0016 159.922 50.5281 159.922 49.9081V48.1719H160.829V49.863C160.829 50.2575 160.93 50.5281 161.143 50.6972C161.355 50.8663 161.669 50.9452 162.072 50.9452C162.565 50.9452 163.013 50.855 163.416 50.6747V48.1606Z" fill="black"/>
<path d="M168.432 48.8935C167.95 48.8935 167.547 49.0287 167.222 49.3106C166.909 49.5811 166.707 49.9532 166.629 50.4154H170.1C170.022 49.9194 169.831 49.5473 169.518 49.288C169.215 49.0175 168.857 48.8935 168.432 48.8935ZM166.64 51.2045C166.73 51.6668 166.943 52.0388 167.278 52.2981C167.614 52.5574 168.029 52.6814 168.521 52.6814C169.204 52.6814 169.708 52.4221 170.022 51.9148L170.794 52.3545C170.29 53.1436 169.529 53.5382 168.51 53.5382C167.682 53.5382 167.01 53.2789 166.495 52.7603C165.98 52.2417 165.722 51.5766 165.722 50.7874C165.722 49.9983 165.98 49.3444 166.483 48.8145C166.987 48.296 167.648 48.0254 168.443 48.0254C169.204 48.0254 169.831 48.296 170.313 48.8371C170.794 49.3782 171.041 50.0321 171.041 50.7874C171.041 50.9227 171.029 51.058 171.007 51.1933H166.64V51.2045Z" fill="black"/>
<path d="M174.724 48.9836H173.257V50.359H174.724C175.25 50.359 175.519 50.1223 175.519 49.66C175.519 49.2091 175.25 48.9836 174.724 48.9836ZM175.844 50.7085C176.381 50.934 176.639 51.3398 176.639 51.926C176.639 52.3544 176.493 52.7152 176.202 52.9858C175.911 53.2563 175.508 53.4029 174.971 53.4029H172.373V48.1606H174.769C175.284 48.1606 175.687 48.2959 175.978 48.5552C176.258 48.8145 176.404 49.164 176.404 49.5924C176.404 50.0884 176.213 50.4717 175.844 50.7085ZM174.926 52.5799C175.194 52.5799 175.396 52.5123 175.53 52.3883C175.676 52.2642 175.743 52.0839 175.743 51.8584C175.743 51.6442 175.676 51.4751 175.53 51.3511C175.385 51.2271 175.183 51.1707 174.926 51.1707H173.257V52.5799H174.926Z" fill="black"/>
<path d="M180.367 52.6476C180.882 52.6476 181.319 52.4672 181.677 52.1178C182.036 51.757 182.204 51.3173 182.204 50.7875C182.204 50.2576 182.024 49.8179 181.677 49.4572C181.319 49.0964 180.882 48.9273 180.367 48.9273C179.852 48.9273 179.416 49.1077 179.069 49.4572C178.71 49.8179 178.542 50.2576 178.542 50.7875C178.542 51.3173 178.721 51.757 179.069 52.1178C179.427 52.4672 179.863 52.6476 180.367 52.6476ZM182.316 52.7378C181.778 53.2677 181.129 53.5382 180.367 53.5382C179.606 53.5382 178.957 53.2677 178.43 52.7378C177.904 52.2079 177.635 51.5541 177.635 50.7762C177.635 49.9983 177.904 49.3444 178.43 48.8146C178.957 48.2847 179.606 48.0142 180.367 48.0142C181.129 48.0142 181.778 48.2847 182.316 48.8146C182.853 49.3444 183.111 49.9983 183.111 50.7762C183.122 51.5541 182.853 52.2079 182.316 52.7378Z" fill="black"/>
<path d="M185.35 47.3829V46.5825H188.16V47.3829H185.35ZM188.272 48.1608H189V53.403H188.104V49.7279L185.227 53.403H184.499V48.1608H185.395V51.836L188.272 48.1608Z" fill="black"/>
<path d="M7.7593 35.6921C12.0446 35.6921 15.5186 32.1943 15.5186 27.8795C15.5186 23.5647 12.0446 20.0669 7.7593 20.0669C3.47396 20.0669 0 23.5647 0 27.8795C0 32.1943 3.47396 35.6921 7.7593 35.6921Z" fill="#DC8A74"/>
<path d="M45.4697 35.692C49.7489 35.692 53.2178 32.1993 53.2178 27.8907C53.2178 23.5821 49.7489 20.0894 45.4697 20.0894C41.1906 20.0894 37.7216 23.5821 37.7216 27.8907C37.7216 32.1993 41.1906 35.692 45.4697 35.692Z" fill="black"/>
<path d="M45.4697 17.8346C49.7489 17.8346 53.2178 14.3418 53.2178 10.0333C53.2178 5.72471 49.7489 2.23193 45.4697 2.23193C41.1906 2.23193 37.7216 5.72471 37.7216 10.0333C37.7216 14.3418 41.1906 17.8346 45.4697 17.8346Z" fill="black"/>
<path d="M63.8099 35.692C68.0891 35.692 71.558 32.1993 71.558 27.8907C71.558 23.5821 68.0891 20.0894 63.8099 20.0894C59.5307 20.0894 56.0618 23.5821 56.0618 27.8907C56.0618 32.1993 59.5307 35.692 63.8099 35.692Z" fill="black"/>
<path d="M63.8099 17.8346C68.0891 17.8346 71.558 14.3418 71.558 10.0333C71.558 5.72471 68.0891 2.23193 63.8099 2.23193C59.5307 2.23193 56.0618 5.72471 56.0618 10.0333C56.0618 14.3418 59.5307 17.8346 63.8099 17.8346Z" fill="black"/>
<path d="M0.0783997 17.8461H2.29534V9.19922C0.895757 11.7583 0.0783997 14.712 0.0783997 17.8461Z" fill="black"/>
<path d="M4.51224 6.0541V17.8576H6.74038V3.91211C5.93422 4.55471 5.19524 5.27622 4.51224 6.0541Z" fill="black"/>
<path d="M8.93494 2.38993V17.8461H11.1631V1.29639C10.3905 1.61205 9.65152 1.9728 8.93494 2.38993Z" fill="black"/>
<path d="M13.3688 0.563608V17.8461H15.597V0.146484C14.8356 0.236673 14.0966 0.371957 13.3688 0.563608Z" fill="black"/>
<path d="M52.6692 40.1454C52.8595 39.4239 52.9939 38.6686 53.0835 37.9132H35.5047V35.6923V17.8462C35.5047 27.6993 27.5774 35.6923 17.7915 35.6923C17.7915 38.9955 18.6872 42.0845 20.2436 44.745C20.3443 44.9254 20.4563 45.0945 20.5683 45.2749C20.8594 45.7371 21.1841 46.1881 21.5088 46.6277C24.7446 50.8328 29.8167 53.5497 35.5159 53.5497C38.6285 53.5497 41.5509 52.738 44.0925 51.3176H35.5159V49.0854H47.2276C47.989 48.409 48.7055 47.6536 49.3438 46.8532H35.5159V44.621H50.8553C51.2696 43.9108 51.6279 43.1667 51.9414 42.3889H35.5159V40.1454H52.6692Z" fill="black"/>
<path d="M17.8027 0V35.6923C27.5886 35.6923 35.5159 27.6993 35.5159 17.8461C35.5159 7.99299 27.5774 0 17.8027 0Z" fill="#DC8A74"/>
<path d="M101.755 3.59619V16.1099H87.211V3.59619H90.0437V13.3479H93.0556V3.59619H95.8884V13.3479H98.9003V3.59619H101.755Z" fill="black"/>
<path d="M109.817 16.1099L106.984 12.1641V16.1099H104.319V7.16992H106.984V11.0819L109.649 7.16992H112.751L109.526 11.6343L112.84 16.0986H109.817V16.1099Z" fill="black"/>
<path d="M120.107 11.6342C120.107 10.3603 119.222 9.52608 118.069 9.52608C116.916 9.52608 116.031 10.3716 116.031 11.6342C116.031 12.8969 116.916 13.7424 118.069 13.7424C119.222 13.7424 120.107 12.9082 120.107 11.6342ZM113.366 11.6342C113.366 8.97367 115.46 6.92188 118.069 6.92188C120.678 6.92188 122.772 8.97367 122.772 11.6342C122.772 14.2948 120.678 16.3466 118.069 16.3466C115.46 16.3579 113.366 14.3061 113.366 11.6342Z" fill="black"/>
<path d="M132.345 16.1099H129.68V9.74031H127.765V12.4009C127.765 15.0953 126.422 16.403 123.824 16.0986V13.5959C124.653 13.8439 125.101 13.3253 125.101 12.2205V7.16992H132.334V16.1099H132.345Z" fill="black"/>
<path d="M141.269 11.6342C141.269 10.2926 140.384 9.4584 139.152 9.4584C137.932 9.4584 137.047 10.3039 137.047 11.6342C137.047 12.9758 137.932 13.81 139.152 13.81C140.384 13.8213 141.269 12.9758 141.269 11.6342ZM143.922 7.16985V16.1098H141.257V15.2643C140.675 15.9407 139.802 16.3578 138.615 16.3578C136.286 16.3578 134.371 14.306 134.371 11.6455C134.371 8.9849 136.286 6.93311 138.615 6.93311C139.802 6.93311 140.675 7.33896 141.257 8.02665V7.18113H143.922V7.16985Z" fill="black"/>
<path d="M96.605 35.7935H93.7722V26.0418H90.0437V35.7935H87.211V23.2798H96.6162V35.7935H96.605Z" fill="black"/>
<path d="M106.055 31.3291C106.055 29.9876 105.17 29.1533 103.939 29.1533C102.718 29.1533 101.834 29.9988 101.834 31.3291C101.834 32.6707 102.718 33.5049 103.939 33.5049C105.17 33.5049 106.055 32.6594 106.055 31.3291ZM108.72 31.3291C108.72 33.9897 106.805 36.0415 104.476 36.0415C103.289 36.0415 102.416 35.6356 101.834 34.9479V39.3672H99.169V26.8535H101.834V27.699C102.416 27.0226 103.289 26.6055 104.476 26.6055C106.805 26.6055 108.72 28.6573 108.72 31.3291Z" fill="black"/>
<path d="M117.061 31.3291C117.061 30.0551 116.177 29.2209 115.024 29.2209C113.87 29.2209 112.986 30.0664 112.986 31.3291C112.986 32.5917 113.87 33.4372 115.024 33.4372C116.166 33.4372 117.061 32.5917 117.061 31.3291ZM110.321 31.3291C110.321 28.6685 112.415 26.6167 115.024 26.6167C117.632 26.6167 119.726 28.6685 119.726 31.3291C119.726 33.9896 117.632 36.0414 115.024 36.0414C112.415 36.0414 110.321 33.9896 110.321 31.3291Z" fill="black"/>
<path d="M126.97 33.2907V29.2548H125V30.2017C125 31.5095 124.821 32.4903 124.485 33.2907H126.97ZM130.71 33.2907V38.1835H128.124V35.7935H123.197V38.1835H120.611V33.2907H121.708C122.156 32.5917 122.413 31.735 122.413 30.2017V26.8647H129.557V33.302H130.71V33.2907Z" fill="black"/>
<path d="M142.858 31.3292C142.858 30.0553 141.974 29.221 140.821 29.221C139.667 29.221 138.783 30.0666 138.783 31.3292C138.783 32.5919 139.667 33.4374 140.821 33.4374C141.974 33.4374 142.858 32.5919 142.858 31.3292ZM145.523 31.3292C145.523 33.9898 143.429 36.0416 140.821 36.0416C138.637 36.0416 136.868 34.6098 136.353 32.5693H135.234V35.7823H132.569V26.8423H135.234V30.0553H136.353C136.868 28.0148 138.637 26.583 140.821 26.583C143.429 26.6056 145.523 28.6574 145.523 31.3292Z" fill="black"/>
<path d="M147.124 31.3291C147.124 28.6685 149.129 26.6167 151.827 26.6167C153.551 26.6167 155.074 27.5299 155.835 28.9052L153.507 30.2581C153.204 29.638 152.566 29.2547 151.782 29.2547C150.629 29.2547 149.778 30.089 149.778 31.3291C149.778 32.5579 150.629 33.4034 151.782 33.4034C152.566 33.4034 153.215 33.0314 153.507 32.4001L155.835 33.7416C155.074 35.1395 153.562 36.0414 151.827 36.0414C149.117 36.0414 147.124 33.9896 147.124 31.3291Z" fill="black"/>
<path d="M163.382 30.3934C163.102 29.3562 162.296 28.9842 161.501 28.9842C160.493 28.9842 159.821 29.4802 159.564 30.3934H163.382ZM161.747 33.6514C162.475 33.6514 163.091 33.3696 163.449 32.975L165.577 34.2038C164.703 35.4214 163.393 36.0414 161.714 36.0414C158.679 36.0414 156.798 33.9896 156.798 31.3291C156.798 28.6685 158.713 26.6167 161.512 26.6167C164.099 26.6167 166.013 28.6347 166.013 31.3291C166.013 31.7011 165.98 32.0619 165.901 32.4001H159.609C159.956 33.3245 160.773 33.6514 161.747 33.6514Z" fill="black"/>
<path d="M174.948 31.3291C174.948 29.9876 174.064 29.1533 172.832 29.1533C171.612 29.1533 170.727 29.9988 170.727 31.3291C170.727 32.6707 171.612 33.5049 172.832 33.5049C174.064 33.5049 174.948 32.6594 174.948 31.3291ZM177.613 31.3291C177.613 33.9897 175.698 36.0415 173.369 36.0415C172.183 36.0415 171.309 35.6356 170.727 34.9479V39.3672H168.062V26.8535H170.727V27.699C171.309 27.0226 172.183 26.6055 173.369 26.6055C175.687 26.6055 177.613 28.6573 177.613 31.3291Z" fill="black"/>
<path d="M186.089 31.3291C186.089 29.9875 185.204 29.1533 183.973 29.1533C182.752 29.1533 181.868 29.9988 181.868 31.3291C181.868 32.6706 182.752 33.5049 183.973 33.5049C185.193 33.5049 186.089 32.6594 186.089 31.3291ZM188.742 26.8534V35.7934H186.089V34.9479C185.507 35.6243 184.633 36.0414 183.446 36.0414C181.118 36.0414 179.203 33.9896 179.203 31.3291C179.203 28.6685 181.118 26.6167 183.446 26.6167C184.633 26.6167 185.507 27.0225 186.089 27.7102V26.8647H188.742V26.8534Z" fill="black"/>
</svg>
