<svg width="274" height="36" viewBox="0 0 274 36" fill="none" xmlns="http://www.w3.org/2000/svg">
<rect y="15" width="24" height="9" fill="#DC8A74"/>
<path d="M7.9 32.36H8.6V34.34H7.94V33H3.86V34.34H3.2V32.36H3.81C4.15 31.9133 4.32 31.2833 4.32 30.47V28H7.9V32.36ZM4.61 32.36H7.24V28.64H4.98V30.47C4.98 31.2367 4.85667 31.8667 4.61 32.36ZM13.1384 28H13.7984V33H13.1384V30.82H10.2584V33H9.59844V28H10.2584V30.18H13.1384V28ZM18.7941 28V33H18.1341V31.08H17.2741L15.7341 33H14.8941L16.4741 31.06C16.0741 31 15.7441 30.8333 15.4841 30.56C15.2241 30.2867 15.0941 29.95 15.0941 29.55C15.0941 29.0967 15.2541 28.7267 15.5741 28.44C15.9008 28.1467 16.2975 28 16.7641 28H18.7941ZM16.7641 30.46H18.1341V28.64H16.7641C16.4841 28.64 16.2441 28.7233 16.0441 28.89C15.8508 29.0567 15.7541 29.2767 15.7541 29.55C15.7541 29.8233 15.8508 30.0433 16.0441 30.21C16.2441 30.3767 16.4841 30.46 16.7641 30.46Z" fill="white"/>
<path d="M13.42 10.68C14.3133 10.9867 15.0333 11.4867 15.58 12.18C16.1267 12.86 16.4 13.6667 16.4 14.6C16.4 16.0667 15.9067 17.2133 14.92 18.04C13.9333 18.8667 12.7267 19.28 11.3 19.28C10.1933 19.28 9.2 19.0267 8.32 18.52C7.45333 18.0133 6.81333 17.2667 6.4 16.28L9.16 14.68C9.50667 15.6667 10.22 16.16 11.3 16.16C11.9267 16.16 12.4 16.0133 12.72 15.72C13.04 15.4267 13.2 15.0533 13.2 14.6C13.2 14.1467 13.04 13.7733 12.72 13.48C12.4 13.1867 11.9267 13.04 11.3 13.04H10.64L9.42 11.22L11.96 8H6.84V5H15.84V7.6L13.42 10.68Z" fill="white"/>
<rect x="60" y="15" width="40" height="9" fill="#DC8A74"/>
<path d="M57.3 28H58L55.86 33.46C55.6667 33.9533 55.39 34.34 55.03 34.62C54.6767 34.9067 54.28 35.0333 53.84 35V34.38C54.44 34.4467 54.8967 34.1 55.21 33.34L55.34 33.03L53.1 28H53.8L55.68 32.19L57.3 28ZM62.0377 28H62.6977V33H62.0377V31.1C61.651 31.3 61.1743 31.4 60.6077 31.4C59.9543 31.4 59.4543 31.25 59.1077 30.95C58.7677 30.6433 58.5977 30.1933 58.5977 29.6V28H59.2577V29.6C59.2577 30.02 59.3677 30.3233 59.5877 30.51C59.8077 30.69 60.141 30.78 60.5877 30.78C61.1077 30.78 61.591 30.6833 62.0377 30.49V28ZM68.4004 28H69.0604V33H68.4004V32.02C67.9404 32.7533 67.2671 33.12 66.3804 33.12C65.6671 33.12 65.0571 32.8667 64.5504 32.36C64.0504 31.8533 63.8004 31.2333 63.8004 30.5C63.8004 29.7667 64.0504 29.1467 64.5504 28.64C65.0571 28.1333 65.6671 27.88 66.3804 27.88C67.2671 27.88 67.9404 28.2467 68.4004 28.98V28ZM65.0304 31.91C65.4104 32.29 65.8771 32.48 66.4304 32.48C66.9837 32.48 67.4504 32.29 67.8304 31.91C68.2104 31.5233 68.4004 31.0533 68.4004 30.5C68.4004 29.9467 68.2104 29.48 67.8304 29.1C67.4504 28.7133 66.9837 28.52 66.4304 28.52C65.8771 28.52 65.4104 28.7133 65.0304 29.1C64.6504 29.48 64.4604 29.9467 64.4604 30.5C64.4604 31.0533 64.6504 31.5233 65.0304 31.91ZM72.7878 33.12C72.0345 33.12 71.4078 32.87 70.9078 32.37C70.4078 31.8633 70.1578 31.24 70.1578 30.5C70.1578 29.76 70.4078 29.14 70.9078 28.64C71.4078 28.1333 72.0345 27.88 72.7878 27.88C73.2811 27.88 73.7245 28 74.1178 28.24C74.5111 28.4733 74.7978 28.79 74.9778 29.19L74.4378 29.5C74.3045 29.2 74.0878 28.9633 73.7878 28.79C73.4945 28.61 73.1611 28.52 72.7878 28.52C72.2345 28.52 71.7678 28.7133 71.3878 29.1C71.0078 29.48 70.8178 29.9467 70.8178 30.5C70.8178 31.0533 71.0078 31.5233 71.3878 31.91C71.7678 32.29 72.2345 32.48 72.7878 32.48C73.1611 32.48 73.4945 32.3933 73.7878 32.22C74.0811 32.04 74.3111 31.8 74.4778 31.5L75.0278 31.82C74.8211 32.22 74.5178 32.5367 74.1178 32.77C73.7178 33.0033 73.2745 33.12 72.7878 33.12ZM79.4777 28V28.64H77.7077V33H77.0477V28.64H75.2777V28H79.4777ZM83.822 28H84.482V33H83.822V30.82H80.942V33H80.282V28H80.942V30.18H83.822V28ZM89.5177 28H90.0777V33H89.4177V29.15L86.4377 33H85.8777V28H86.5377V31.85L89.5177 28ZM95.5134 33H94.6334L92.1334 30.59V33H91.4734V28H92.1334V30.21L94.5134 28H95.4134L92.8334 30.4L95.5134 33ZM100.107 32.37C99.6001 32.87 98.9801 33.12 98.2468 33.12C97.5135 33.12 96.8901 32.87 96.3768 32.37C95.8701 31.8633 95.6168 31.24 95.6168 30.5C95.6168 29.76 95.8701 29.14 96.3768 28.64C96.8901 28.1333 97.5135 27.88 98.2468 27.88C98.9801 27.88 99.6001 28.1333 100.107 28.64C100.62 29.14 100.877 29.76 100.877 30.5C100.877 31.24 100.62 31.8633 100.107 32.37ZM96.8468 31.91C97.2268 32.29 97.6935 32.48 98.2468 32.48C98.8001 32.48 99.2668 32.29 99.6468 31.91C100.027 31.5233 100.217 31.0533 100.217 30.5C100.217 29.9467 100.027 29.48 99.6468 29.1C99.2668 28.7133 98.8001 28.52 98.2468 28.52C97.6935 28.52 97.2268 28.7133 96.8468 29.1C96.4668 29.48 96.2768 29.9467 96.2768 30.5C96.2768 31.0533 96.4668 31.5233 96.8468 31.91ZM105.161 30.43C105.708 30.63 105.981 31.02 105.981 31.6C105.981 32.0067 105.845 32.3433 105.571 32.61C105.305 32.87 104.918 33 104.411 33H101.981V28H104.211C104.698 28 105.075 28.1267 105.341 28.38C105.608 28.6267 105.741 28.9467 105.741 29.34C105.741 29.84 105.548 30.2033 105.161 30.43ZM104.211 28.64H102.641V30.16H104.211C104.791 30.16 105.081 29.9 105.081 29.38C105.081 29.1467 105.005 28.9667 104.851 28.84C104.705 28.7067 104.491 28.64 104.211 28.64ZM104.411 32.36C104.705 32.36 104.928 32.29 105.081 32.15C105.241 32.01 105.321 31.8133 105.321 31.56C105.321 31.3267 105.241 31.1433 105.081 31.01C104.928 30.87 104.705 30.8 104.411 30.8H102.641V32.36H104.411Z" fill="white"/>
<path d="M66.7 9.92C68.0733 9.92 69.2133 10.3333 70.12 11.16C71.04 11.9733 71.5 13.12 71.5 14.6C71.5 16.0667 71.0067 17.2133 70.02 18.04C69.0333 18.8667 67.8267 19.28 66.4 19.28C65.24 19.28 64.22 19.0333 63.34 18.54C62.46 18.0333 61.8133 17.28 61.4 16.28L64.16 14.68C64.5067 15.6667 65.2533 16.16 66.4 16.16C67.0267 16.16 67.5 16.0133 67.82 15.72C68.14 15.4267 68.3 15.0533 68.3 14.6C68.3 14.1467 68.1467 13.7733 67.84 13.48C67.5333 13.1867 67.0867 13.04 66.5 13.04H62.12L62.7 5H70.8V8H65.7L65.56 9.92H66.7ZM82.3784 17.3C81.3784 18.62 79.9851 19.28 78.1984 19.28C76.4118 19.28 75.0118 18.62 73.9984 17.3C72.9984 15.9667 72.4984 14.2 72.4984 12C72.4984 9.8 72.9984 8.04 73.9984 6.72C75.0118 5.38667 76.4118 4.72 78.1984 4.72C79.9851 4.72 81.3784 5.38667 82.3784 6.72C83.3918 8.04 83.8984 9.8 83.8984 12C83.8984 14.2 83.3918 15.9667 82.3784 17.3ZM75.6984 12C75.6984 14.7733 76.5318 16.16 78.1984 16.16C79.8651 16.16 80.6984 14.7733 80.6984 12C80.6984 9.22667 79.8651 7.84 78.1984 7.84C76.5318 7.84 75.6984 9.22667 75.6984 12ZM94.9761 17.3C93.9761 18.62 92.5828 19.28 90.7961 19.28C89.0094 19.28 87.6094 18.62 86.5961 17.3C85.5961 15.9667 85.0961 14.2 85.0961 12C85.0961 9.8 85.5961 8.04 86.5961 6.72C87.6094 5.38667 89.0094 4.72 90.7961 4.72C92.5828 4.72 93.9761 5.38667 94.9761 6.72C95.9894 8.04 96.4961 9.8 96.4961 12C96.4961 14.2 95.9894 15.9667 94.9761 17.3ZM88.2961 12C88.2961 14.7733 89.1294 16.16 90.7961 16.16C92.4628 16.16 93.2961 14.7733 93.2961 12C93.2961 9.22667 92.4628 7.84 90.7961 7.84C89.1294 7.84 88.2961 9.22667 88.2961 12Z" fill="white"/>
<rect x="219" y="15" width="40" height="9" fill="#DC8A74"/>
<path d="M210.6 28V33H209.94V29.01L208.19 31.85H208.11L206.36 29.01V33H205.7V28H206.46L208.15 30.74L209.84 28H210.6ZM214.309 27.88C215.049 27.88 215.645 28.1433 216.099 28.67C216.559 29.19 216.789 29.8067 216.789 30.52C216.789 30.5933 216.782 30.6967 216.769 30.83H212.379C212.445 31.3367 212.659 31.74 213.019 32.04C213.385 32.3333 213.835 32.48 214.369 32.48C214.749 32.48 215.075 32.4033 215.349 32.25C215.629 32.09 215.839 31.8833 215.979 31.63L216.559 31.97C216.339 32.3233 216.039 32.6033 215.659 32.81C215.279 33.0167 214.845 33.12 214.359 33.12C213.572 33.12 212.932 32.8733 212.439 32.38C211.945 31.8867 211.699 31.26 211.699 30.5C211.699 29.7533 211.942 29.13 212.429 28.63C212.915 28.13 213.542 27.88 214.309 27.88ZM214.309 28.52C213.789 28.52 213.352 28.6767 212.999 28.99C212.652 29.2967 212.445 29.6967 212.379 30.19H216.109C216.042 29.6633 215.839 29.2533 215.499 28.96C215.159 28.6667 214.762 28.52 214.309 28.52ZM220.169 33.12C219.415 33.12 218.789 32.87 218.289 32.37C217.789 31.8633 217.539 31.24 217.539 30.5C217.539 29.76 217.789 29.14 218.289 28.64C218.789 28.1333 219.415 27.88 220.169 27.88C220.662 27.88 221.105 28 221.499 28.24C221.892 28.4733 222.179 28.79 222.359 29.19L221.819 29.5C221.685 29.2 221.469 28.9633 221.169 28.79C220.875 28.61 220.542 28.52 220.169 28.52C219.615 28.52 219.149 28.7133 218.769 29.1C218.389 29.48 218.199 29.9467 218.199 30.5C218.199 31.0533 218.389 31.5233 218.769 31.91C219.149 32.29 219.615 32.48 220.169 32.48C220.542 32.48 220.875 32.3933 221.169 32.22C221.462 32.04 221.692 31.8 221.859 31.5L222.409 31.82C222.202 32.22 221.899 32.5367 221.499 32.77C221.099 33.0033 220.655 33.12 220.169 33.12ZM226.859 28V28.64H225.089V33H224.429V28.64H222.659V28H226.859ZM234.353 32.37C233.846 32.87 233.226 33.12 232.493 33.12C231.76 33.12 231.136 32.87 230.623 32.37C230.116 31.8633 229.863 31.24 229.863 30.5C229.863 29.76 230.116 29.14 230.623 28.64C231.136 28.1333 231.76 27.88 232.493 27.88C233.226 27.88 233.846 28.1333 234.353 28.64C234.866 29.14 235.123 29.76 235.123 30.5C235.123 31.24 234.866 31.8633 234.353 32.37ZM231.093 31.91C231.473 32.29 231.94 32.48 232.493 32.48C233.046 32.48 233.513 32.29 233.893 31.91C234.273 31.5233 234.463 31.0533 234.463 30.5C234.463 29.9467 234.273 29.48 233.893 29.1C233.513 28.7133 233.046 28.52 232.493 28.52C231.94 28.52 231.473 28.7133 231.093 29.1C230.713 29.48 230.523 29.9467 230.523 30.5C230.523 31.0533 230.713 31.5233 231.093 31.91ZM238.557 33.12C237.804 33.12 237.177 32.87 236.677 32.37C236.177 31.8633 235.927 31.24 235.927 30.5C235.927 29.76 236.177 29.14 236.677 28.64C237.177 28.1333 237.804 27.88 238.557 27.88C239.051 27.88 239.494 28 239.887 28.24C240.281 28.4733 240.567 28.79 240.747 29.19L240.207 29.5C240.074 29.2 239.857 28.9633 239.557 28.79C239.264 28.61 238.931 28.52 238.557 28.52C238.004 28.52 237.537 28.7133 237.157 29.1C236.777 29.48 236.587 29.9467 236.587 30.5C236.587 31.0533 236.777 31.5233 237.157 31.91C237.537 32.29 238.004 32.48 238.557 32.48C238.931 32.48 239.264 32.3933 239.557 32.22C239.851 32.04 240.081 31.8 240.247 31.5L240.797 31.82C240.591 32.22 240.287 32.5367 239.887 32.77C239.487 33.0033 239.044 33.12 238.557 33.12ZM245.247 28V28.64H243.477V33H242.817V28.64H241.047V28H245.247ZM250.156 28H250.816V33H250.156V32.02C249.696 32.7533 249.023 33.12 248.136 33.12C247.423 33.12 246.813 32.8667 246.306 32.36C245.806 31.8533 245.556 31.2333 245.556 30.5C245.556 29.7667 245.806 29.1467 246.306 28.64C246.813 28.1333 247.423 27.88 248.136 27.88C249.023 27.88 249.696 28.2467 250.156 28.98V28ZM246.786 31.91C247.166 32.29 247.633 32.48 248.186 32.48C248.74 32.48 249.206 32.29 249.586 31.91C249.966 31.5233 250.156 31.0533 250.156 30.5C250.156 29.9467 249.966 29.48 249.586 29.1C249.206 28.7133 248.74 28.52 248.186 28.52C247.633 28.52 247.166 28.7133 246.786 29.1C246.406 29.48 246.216 29.9467 246.216 30.5C246.216 31.0533 246.406 31.5233 246.786 31.91ZM256.314 28V33H255.654V28.64H253.394V30.87C253.394 31.7033 253.234 32.2767 252.914 32.59C252.6 32.9033 252.167 33.04 251.614 33V32.38C251.994 32.42 252.274 32.33 252.454 32.11C252.64 31.89 252.734 31.4767 252.734 30.87V28H256.314ZM261.902 32.37C261.395 32.87 260.775 33.12 260.042 33.12C259.308 33.12 258.685 32.87 258.172 32.37C257.665 31.8633 257.412 31.24 257.412 30.5C257.412 29.76 257.665 29.14 258.172 28.64C258.685 28.1333 259.308 27.88 260.042 27.88C260.775 27.88 261.395 28.1333 261.902 28.64C262.415 29.14 262.672 29.76 262.672 30.5C262.672 31.24 262.415 31.8633 261.902 32.37ZM258.642 31.91C259.022 32.29 259.488 32.48 260.042 32.48C260.595 32.48 261.062 32.29 261.442 31.91C261.822 31.5233 262.012 31.0533 262.012 30.5C262.012 29.9467 261.822 29.48 261.442 29.1C261.062 28.7133 260.595 28.52 260.042 28.52C259.488 28.52 259.022 28.7133 258.642 29.1C258.262 29.48 258.072 29.9467 258.072 30.5C258.072 31.0533 258.262 31.5233 258.642 31.91ZM266.106 33.12C265.353 33.12 264.726 32.87 264.226 32.37C263.726 31.8633 263.476 31.24 263.476 30.5C263.476 29.76 263.726 29.14 264.226 28.64C264.726 28.1333 265.353 27.88 266.106 27.88C266.6 27.88 267.043 28 267.436 28.24C267.83 28.4733 268.116 28.79 268.296 29.19L267.756 29.5C267.623 29.2 267.406 28.9633 267.106 28.79C266.813 28.61 266.48 28.52 266.106 28.52C265.553 28.52 265.086 28.7133 264.706 29.1C264.326 29.48 264.136 29.9467 264.136 30.5C264.136 31.0533 264.326 31.5233 264.706 31.91C265.086 32.29 265.553 32.48 266.106 32.48C266.48 32.48 266.813 32.3933 267.106 32.22C267.4 32.04 267.63 31.8 267.796 31.5L268.346 31.82C268.14 32.22 267.836 32.5367 267.436 32.77C267.036 33.0033 266.593 33.12 266.106 33.12ZM271.324 29.9C271.79 29.9 272.184 30.0467 272.504 30.34C272.83 30.6267 272.994 30.9967 272.994 31.45C272.994 31.9033 272.83 32.2767 272.504 32.57C272.184 32.8567 271.79 33 271.324 33H269.294V28H269.954V29.9H271.324ZM271.324 32.36C271.604 32.36 271.84 32.2767 272.034 32.11C272.234 31.9433 272.334 31.7233 272.334 31.45C272.334 31.1767 272.234 30.9567 272.034 30.79C271.84 30.6233 271.604 30.54 271.324 30.54H269.954V32.36H271.324Z" fill="white"/>
<path d="M223.44 19V16.68L228.14 11.8C229.087 10.8267 229.56 10 229.56 9.32C229.56 8.88 229.427 8.52667 229.16 8.26C228.893 7.98 228.527 7.84 228.06 7.84C227.127 7.84 226.44 8.34667 226 9.36L223.3 7.78C223.727 6.78 224.367 6.02 225.22 5.5C226.073 4.98 227.007 4.72 228.02 4.72C229.327 4.72 230.44 5.12667 231.36 5.94C232.293 6.74 232.76 7.82 232.76 9.18C232.76 10.66 232.033 12.1267 230.58 13.58L228.26 15.92H232.96V19H223.44ZM234.104 19V16.68L238.804 11.8C239.751 10.8267 240.224 10 240.224 9.32C240.224 8.88 240.091 8.52667 239.824 8.26C239.557 7.98 239.191 7.84 238.724 7.84C237.791 7.84 237.104 8.34667 236.664 9.36L233.964 7.78C234.391 6.78 235.031 6.02 235.884 5.5C236.737 4.98 237.671 4.72 238.684 4.72C239.991 4.72 241.104 5.12667 242.024 5.94C242.957 6.74 243.424 7.82 243.424 9.18C243.424 10.66 242.697 12.1267 241.244 13.58L238.924 15.92H243.624V19H234.104ZM244.768 19V16.68L249.468 11.8C250.415 10.8267 250.888 10 250.888 9.32C250.888 8.88 250.755 8.52667 250.488 8.26C250.221 7.98 249.855 7.84 249.388 7.84C248.455 7.84 247.768 8.34667 247.328 9.36L244.628 7.78C245.055 6.78 245.695 6.02 246.548 5.5C247.401 4.98 248.335 4.72 249.348 4.72C250.655 4.72 251.768 5.12667 252.688 5.94C253.621 6.74 254.088 7.82 254.088 9.18C254.088 10.66 253.361 12.1267 251.908 13.58L249.588 15.92H254.288V19H244.768Z" fill="white"/>
<rect x="136" y="15" width="40" height="9" fill="#DC8A74"/>
<path d="M134.3 28H135L132.86 33.46C132.667 33.9533 132.39 34.34 132.03 34.62C131.677 34.9067 131.28 35.0333 130.84 35V34.38C131.44 34.4467 131.897 34.1 132.21 33.34L132.34 33.03L130.1 28H130.8L132.68 32.19L134.3 28ZM141.54 33H140.74L138.7 30.59V33H138.04V30.59L136 33H135.2L137.44 30.4L135.3 28H136.1L138.04 30.22V28H138.7V30.22L140.64 28H141.44L139.3 30.4L141.54 33ZM144.348 27.88C145.088 27.88 145.685 28.1433 146.138 28.67C146.598 29.19 146.828 29.8067 146.828 30.52C146.828 30.5933 146.821 30.6967 146.808 30.83H142.418C142.485 31.3367 142.698 31.74 143.058 32.04C143.425 32.3333 143.875 32.48 144.408 32.48C144.788 32.48 145.115 32.4033 145.388 32.25C145.668 32.09 145.878 31.8833 146.018 31.63L146.598 31.97C146.378 32.3233 146.078 32.6033 145.698 32.81C145.318 33.0167 144.885 33.12 144.398 33.12C143.611 33.12 142.971 32.8733 142.478 32.38C141.985 31.8867 141.738 31.26 141.738 30.5C141.738 29.7533 141.981 29.13 142.468 28.63C142.955 28.13 143.581 27.88 144.348 27.88ZM144.348 28.52C143.828 28.52 143.391 28.6767 143.038 28.99C142.691 29.2967 142.485 29.6967 142.418 30.19H146.148C146.081 29.6633 145.878 29.2533 145.538 28.96C145.198 28.6667 144.801 28.52 144.348 28.52ZM152.708 33.12C151.954 33.12 151.328 32.87 150.828 32.37C150.328 31.8633 150.078 31.24 150.078 30.5C150.078 29.76 150.328 29.14 150.828 28.64C151.328 28.1333 151.954 27.88 152.708 27.88C153.201 27.88 153.644 28 154.038 28.24C154.431 28.4733 154.718 28.79 154.898 29.19L154.358 29.5C154.224 29.2 154.008 28.9633 153.708 28.79C153.414 28.61 153.081 28.52 152.708 28.52C152.154 28.52 151.688 28.7133 151.308 29.1C150.928 29.48 150.738 29.9467 150.738 30.5C150.738 31.0533 150.928 31.5233 151.308 31.91C151.688 32.29 152.154 32.48 152.708 32.48C153.081 32.48 153.414 32.3933 153.708 32.22C154.001 32.04 154.231 31.8 154.398 31.5L154.948 31.82C154.741 32.22 154.438 32.5367 154.038 32.77C153.638 33.0033 153.194 33.12 152.708 33.12ZM161.935 28H162.595V33H161.935V30.82H159.055V33H158.395V28H159.055V30.18H161.935V28ZM168.291 28H168.951V33H168.291V32.02C167.831 32.7533 167.158 33.12 166.271 33.12C165.558 33.12 164.948 32.8667 164.441 32.36C163.941 31.8533 163.691 31.2333 163.691 30.5C163.691 29.7667 163.941 29.1467 164.441 28.64C164.948 28.1333 165.558 27.88 166.271 27.88C167.158 27.88 167.831 28.2467 168.291 28.98V28ZM164.921 31.91C165.301 32.29 165.768 32.48 166.321 32.48C166.874 32.48 167.341 32.29 167.721 31.91C168.101 31.5233 168.291 31.0533 168.291 30.5C168.291 29.9467 168.101 29.48 167.721 29.1C167.341 28.7133 166.874 28.52 166.321 28.52C165.768 28.52 165.301 28.7133 164.921 29.1C164.541 29.48 164.351 29.9467 164.351 30.5C164.351 31.0533 164.541 31.5233 164.921 31.91ZM175.248 28V33H174.588V29.01L172.838 31.85H172.758L171.008 29.01V33H170.348V28H171.108L172.798 30.74L174.488 28H175.248ZM180.287 28H180.847V33H180.187V29.15L177.207 33H176.647V28H177.307V31.85L180.287 28Z" fill="white"/>
<path d="M140.44 19V16.68L145.14 11.8C146.087 10.8267 146.56 10 146.56 9.32C146.56 8.88 146.427 8.52667 146.16 8.26C145.893 7.98 145.527 7.84 145.06 7.84C144.127 7.84 143.44 8.34667 143 9.36L140.3 7.78C140.727 6.78 141.367 6.02 142.22 5.5C143.073 4.98 144.007 4.72 145.02 4.72C146.327 4.72 147.44 5.12667 148.36 5.94C149.293 6.74 149.76 7.82 149.76 9.18C149.76 10.66 149.033 12.1267 147.58 13.58L145.26 15.92H149.96V19H140.44ZM150.473 5H159.673V7.68L155.113 19H151.713L156.113 8.08H150.473V5ZM168.748 11.7C169.961 12.4867 170.568 13.6067 170.568 15.06C170.568 16.3533 170.114 17.38 169.208 18.14C168.314 18.9 167.054 19.28 165.428 19.28C163.801 19.28 162.534 18.9 161.628 18.14C160.734 17.38 160.288 16.3533 160.288 15.06C160.288 13.6067 160.894 12.4867 162.108 11.7C161.214 11.0067 160.768 10.0667 160.768 8.88C160.768 7.57333 161.208 6.55333 162.088 5.82C162.968 5.08667 164.081 4.72 165.428 4.72C166.774 4.72 167.888 5.08667 168.768 5.82C169.648 6.55333 170.088 7.57333 170.088 8.88C170.088 10.0667 169.641 11.0067 168.748 11.7ZM166.488 8.1C166.221 7.84667 165.868 7.72 165.428 7.72C164.988 7.72 164.634 7.84667 164.368 8.1C164.101 8.35333 163.968 8.68 163.968 9.08C163.968 9.48 164.101 9.80667 164.368 10.06C164.634 10.3133 164.988 10.44 165.428 10.44C165.868 10.44 166.221 10.3133 166.488 10.06C166.754 9.80667 166.888 9.48 166.888 9.08C166.888 8.68 166.754 8.35333 166.488 8.1ZM164.028 15.84C164.388 16.1333 164.854 16.28 165.428 16.28C166.001 16.28 166.468 16.1333 166.828 15.84C167.188 15.5333 167.368 15.12 167.368 14.6C167.368 14.08 167.188 13.6733 166.828 13.38C166.468 13.0733 166.001 12.92 165.428 12.92C164.854 12.92 164.388 13.0733 164.028 13.38C163.668 13.6733 163.488 14.08 163.488 14.6C163.488 15.12 163.668 15.5333 164.028 15.84Z" fill="white"/>
</svg>
