<svg width="306" height="45" viewBox="0 0 306 45" fill="none" xmlns="http://www.w3.org/2000/svg">
<rect y="20" width="24" height="9" fill="#DC8A74"/>
<path d="M6.86 41.104H7.84V43.876H6.916V42H1.204V43.876H0.28V41.104H1.134C1.61 40.4787 1.848 39.5967 1.848 38.458V35H6.86V41.104ZM2.254 41.104H5.936V35.896H2.772V38.458C2.772 39.5313 2.59933 40.4133 2.254 41.104ZM14.1938 35H15.1178V42H14.1938V38.948H10.1618V42H9.23781V35H10.1618V38.052H14.1938V35ZM22.1118 35V42H21.1878V39.312H19.9838L17.8278 42H16.6518L18.8638 39.284C18.3038 39.2 17.8418 38.9667 17.4778 38.584C17.1138 38.2013 16.9318 37.73 16.9318 37.17C16.9318 36.5353 17.1558 36.0173 17.6038 35.616C18.0611 35.2053 18.6165 35 19.2698 35H22.1118ZM19.2698 38.444H21.1878V35.896H19.2698C18.8778 35.896 18.5418 36.0127 18.2618 36.246C17.9911 36.4793 17.8558 36.7873 17.8558 37.17C17.8558 37.5527 17.9911 37.8607 18.2618 38.094C18.5418 38.3273 18.8778 38.444 19.2698 38.444Z" fill="white"/>
<path d="M12.646 14.184C13.8073 14.5827 14.7433 15.2327 15.454 16.134C16.1647 17.018 16.52 18.0667 16.52 19.28C16.52 21.1867 15.8787 22.6773 14.596 23.752C13.3133 24.8267 11.7447 25.364 9.89 25.364C8.45133 25.364 7.16 25.0347 6.016 24.376C4.88933 23.7173 4.05733 22.7467 3.52 21.464L7.108 19.384C7.55867 20.6667 8.486 21.308 9.89 21.308C10.7047 21.308 11.32 21.1173 11.736 20.736C12.152 20.3547 12.36 19.8693 12.36 19.28C12.36 18.6907 12.152 18.2053 11.736 17.824C11.32 17.4427 10.7047 17.252 9.89 17.252H9.032L7.446 14.886L10.748 10.7H4.092V6.8H15.792V10.18L12.646 14.184Z" fill="white"/>
<rect x="57" y="20" width="40" height="9" fill="#DC8A74"/>
<path d="M62.41 13.196C64.1953 13.196 65.6773 13.7333 66.856 14.808C68.052 15.8653 68.65 17.356 68.65 19.28C68.65 21.1867 68.0087 22.6773 66.726 23.752C65.4433 24.8267 63.8747 25.364 62.02 25.364C60.512 25.364 59.186 25.0433 58.042 24.402C56.898 23.7433 56.0573 22.764 55.52 21.464L59.108 19.384C59.5587 20.6667 60.5293 21.308 62.02 21.308C62.8347 21.308 63.45 21.1173 63.866 20.736C64.282 20.3547 64.49 19.8693 64.49 19.28C64.49 18.6907 64.2907 18.2053 63.892 17.824C63.4933 17.4427 62.9127 17.252 62.15 17.252H56.456L57.21 6.8H67.74V10.7H61.11L60.928 13.196H62.41ZM82.792 22.79C81.492 24.506 79.6806 25.364 77.358 25.364C75.0353 25.364 73.2153 24.506 71.898 22.79C70.598 21.0567 69.948 18.76 69.948 15.9C69.948 13.04 70.598 10.752 71.898 9.036C73.2153 7.30267 75.0353 6.436 77.358 6.436C79.6806 6.436 81.492 7.30267 82.792 9.036C84.1093 10.752 84.768 13.04 84.768 15.9C84.768 18.76 84.1093 21.0567 82.792 22.79ZM74.108 15.9C74.108 19.5053 75.1913 21.308 77.358 21.308C79.5246 21.308 80.608 19.5053 80.608 15.9C80.608 12.2947 79.5246 10.492 77.358 10.492C75.1913 10.492 74.108 12.2947 74.108 15.9ZM99.1689 22.79C97.8689 24.506 96.0576 25.364 93.7349 25.364C91.4123 25.364 89.5923 24.506 88.2749 22.79C86.9749 21.0567 86.3249 18.76 86.3249 15.9C86.3249 13.04 86.9749 10.752 88.2749 9.036C89.5923 7.30267 91.4123 6.436 93.7349 6.436C96.0576 6.436 97.8689 7.30267 99.1689 9.036C100.486 10.752 101.145 13.04 101.145 15.9C101.145 18.76 100.486 21.0567 99.1689 22.79ZM90.4849 15.9C90.4849 19.5053 91.5683 21.308 93.7349 21.308C95.9016 21.308 96.9849 19.5053 96.9849 15.9C96.9849 12.2947 95.9016 10.492 93.7349 10.492C91.5683 10.492 90.4849 12.2947 90.4849 15.9Z" fill="white"/>
<path d="M47.02 35H48L45.004 42.644C44.7333 43.3347 44.346 43.876 43.842 44.268C43.3473 44.6693 42.792 44.8467 42.176 44.8V43.932C43.016 44.0253 43.6553 43.54 44.094 42.476L44.276 42.042L41.14 35H42.12L44.752 40.866L47.02 35ZM53.6527 35H54.5767V42H53.6527V39.34C53.1114 39.62 52.4441 39.76 51.6507 39.76C50.7361 39.76 50.0361 39.55 49.5507 39.13C49.0747 38.7007 48.8367 38.0707 48.8367 37.24V35H49.7607V37.24C49.7607 37.828 49.9147 38.2527 50.2227 38.514C50.5307 38.766 50.9974 38.892 51.6227 38.892C52.3507 38.892 53.0274 38.7567 53.6527 38.486V35ZM62.5605 35H63.4845V42H62.5605V40.628C61.9165 41.6547 60.9739 42.168 59.7325 42.168C58.7339 42.168 57.8799 41.8133 57.1705 41.104C56.4705 40.3947 56.1205 39.5267 56.1205 38.5C56.1205 37.4733 56.4705 36.6053 57.1705 35.896C57.8799 35.1867 58.7339 34.832 59.7325 34.832C60.9739 34.832 61.9165 35.3453 62.5605 36.372V35ZM57.8425 40.474C58.3745 41.006 59.0279 41.272 59.8025 41.272C60.5772 41.272 61.2305 41.006 61.7625 40.474C62.2945 39.9327 62.5605 39.2747 62.5605 38.5C62.5605 37.7253 62.2945 37.072 61.7625 36.54C61.2305 35.9987 60.5772 35.728 59.8025 35.728C59.0279 35.728 58.3745 35.9987 57.8425 36.54C57.3105 37.072 57.0445 37.7253 57.0445 38.5C57.0445 39.2747 57.3105 39.9327 57.8425 40.474ZM68.7029 42.168C67.6483 42.168 66.7709 41.818 66.0709 41.118C65.3709 40.4087 65.0209 39.536 65.0209 38.5C65.0209 37.464 65.3709 36.596 66.0709 35.896C66.7709 35.1867 67.6483 34.832 68.7029 34.832C69.3936 34.832 70.0143 35 70.5649 35.336C71.1156 35.6627 71.5169 36.106 71.7689 36.666L71.0129 37.1C70.8263 36.68 70.5229 36.3487 70.1029 36.106C69.6923 35.854 69.2256 35.728 68.7029 35.728C67.9283 35.728 67.2749 35.9987 66.7429 36.54C66.2109 37.072 65.9449 37.7253 65.9449 38.5C65.9449 39.2747 66.2109 39.9327 66.7429 40.474C67.2749 41.006 67.9283 41.272 68.7029 41.272C69.2256 41.272 69.6923 41.1507 70.1029 40.908C70.5136 40.656 70.8356 40.32 71.0689 39.9L71.8389 40.348C71.5496 40.908 71.1249 41.3513 70.5649 41.678C70.0049 42.0047 69.3843 42.168 68.7029 42.168ZM78.0688 35V35.896H75.5908V42H74.6668V35.896H72.1888V35H78.0688ZM84.1508 35H85.0748V42H84.1508V38.948H80.1188V42H79.1948V35H80.1188V38.052H84.1508V35ZM92.1248 35H92.9088V42H91.9848V36.61L87.8128 42H87.0288V35H87.9528V40.39L92.1248 35ZM100.519 42H99.2868L95.7868 38.626V42H94.8628V35H95.7868V38.094L99.1188 35H100.379L96.7668 38.36L100.519 42ZM106.95 41.118C106.24 41.818 105.372 42.168 104.346 42.168C103.319 42.168 102.446 41.818 101.728 41.118C101.018 40.4087 100.664 39.536 100.664 38.5C100.664 37.464 101.018 36.596 101.728 35.896C102.446 35.1867 103.319 34.832 104.346 34.832C105.372 34.832 106.24 35.1867 106.95 35.896C107.668 36.596 108.028 37.464 108.028 38.5C108.028 39.536 107.668 40.4087 106.95 41.118ZM102.386 40.474C102.918 41.006 103.571 41.272 104.346 41.272C105.12 41.272 105.774 41.006 106.306 40.474C106.838 39.9327 107.104 39.2747 107.104 38.5C107.104 37.7253 106.838 37.072 106.306 36.54C105.774 35.9987 105.12 35.728 104.346 35.728C103.571 35.728 102.918 35.9987 102.386 36.54C101.854 37.072 101.588 37.7253 101.588 38.5C101.588 39.2747 101.854 39.9327 102.386 40.474ZM114.026 38.402C114.791 38.682 115.174 39.228 115.174 40.04C115.174 40.6093 114.982 41.0807 114.6 41.454C114.226 41.818 113.685 42 112.976 42H109.574V35H112.696C113.377 35 113.904 35.1773 114.278 35.532C114.651 35.8773 114.838 36.3253 114.838 36.876C114.838 37.576 114.567 38.0847 114.026 38.402ZM112.696 35.896H110.498V38.024H112.696C113.508 38.024 113.914 37.66 113.914 36.932C113.914 36.6053 113.806 36.3533 113.592 36.176C113.386 35.9893 113.088 35.896 112.696 35.896ZM112.976 41.104C113.386 41.104 113.699 41.006 113.914 40.81C114.138 40.614 114.25 40.3387 114.25 39.984C114.25 39.6573 114.138 39.4007 113.914 39.214C113.699 39.018 113.386 38.92 112.976 38.92H110.498V41.104H112.976Z" fill="white"/>
<path d="M217.84 35V42H216.916V36.414L214.466 40.39H214.354L211.904 36.414V42H210.98V35H212.044L214.41 38.836L216.776 35H217.84ZM223.032 34.832C224.068 34.832 224.904 35.2007 225.538 35.938C226.182 36.666 226.504 37.5293 226.504 38.528C226.504 38.6307 226.495 38.7753 226.476 38.962H220.33C220.424 39.6713 220.722 40.236 221.226 40.656C221.74 41.0667 222.37 41.272 223.116 41.272C223.648 41.272 224.106 41.1647 224.488 40.95C224.88 40.726 225.174 40.4367 225.37 40.082L226.182 40.558C225.874 41.0527 225.454 41.4447 224.922 41.734C224.39 42.0233 223.784 42.168 223.102 42.168C222.001 42.168 221.105 41.8227 220.414 41.132C219.724 40.4413 219.378 39.564 219.378 38.5C219.378 37.4547 219.719 36.582 220.4 35.882C221.082 35.182 221.959 34.832 223.032 34.832ZM223.032 35.728C222.304 35.728 221.693 35.9473 221.198 36.386C220.713 36.8153 220.424 37.3753 220.33 38.066H225.552C225.459 37.3287 225.174 36.7547 224.698 36.344C224.222 35.9333 223.667 35.728 223.032 35.728ZM231.236 42.168C230.181 42.168 229.304 41.818 228.604 41.118C227.904 40.4087 227.554 39.536 227.554 38.5C227.554 37.464 227.904 36.596 228.604 35.896C229.304 35.1867 230.181 34.832 231.236 34.832C231.927 34.832 232.547 35 233.098 35.336C233.649 35.6627 234.05 36.106 234.302 36.666L233.546 37.1C233.359 36.68 233.056 36.3487 232.636 36.106C232.225 35.854 231.759 35.728 231.236 35.728C230.461 35.728 229.808 35.9987 229.276 36.54C228.744 37.072 228.478 37.7253 228.478 38.5C228.478 39.2747 228.744 39.9327 229.276 40.474C229.808 41.006 230.461 41.272 231.236 41.272C231.759 41.272 232.225 41.1507 232.636 40.908C233.047 40.656 233.369 40.32 233.602 39.9L234.372 40.348C234.083 40.908 233.658 41.3513 233.098 41.678C232.538 42.0047 231.917 42.168 231.236 42.168ZM240.602 35V35.896H238.124V42H237.2V35.896H234.722V35H240.602ZM251.094 41.118C250.385 41.818 249.517 42.168 248.49 42.168C247.463 42.168 246.591 41.818 245.872 41.118C245.163 40.4087 244.808 39.536 244.808 38.5C244.808 37.464 245.163 36.596 245.872 35.896C246.591 35.1867 247.463 34.832 248.49 34.832C249.517 34.832 250.385 35.1867 251.094 35.896C251.813 36.596 252.172 37.464 252.172 38.5C252.172 39.536 251.813 40.4087 251.094 41.118ZM246.53 40.474C247.062 41.006 247.715 41.272 248.49 41.272C249.265 41.272 249.918 41.006 250.45 40.474C250.982 39.9327 251.248 39.2747 251.248 38.5C251.248 37.7253 250.982 37.072 250.45 36.54C249.918 35.9987 249.265 35.728 248.49 35.728C247.715 35.728 247.062 35.9987 246.53 36.54C245.998 37.072 245.732 37.7253 245.732 38.5C245.732 39.2747 245.998 39.9327 246.53 40.474ZM256.98 42.168C255.926 42.168 255.048 41.818 254.348 41.118C253.648 40.4087 253.298 39.536 253.298 38.5C253.298 37.464 253.648 36.596 254.348 35.896C255.048 35.1867 255.926 34.832 256.98 34.832C257.671 34.832 258.292 35 258.842 35.336C259.393 35.6627 259.794 36.106 260.046 36.666L259.29 37.1C259.104 36.68 258.8 36.3487 258.38 36.106C257.97 35.854 257.503 35.728 256.98 35.728C256.206 35.728 255.552 35.9987 255.02 36.54C254.488 37.072 254.222 37.7253 254.222 38.5C254.222 39.2747 254.488 39.9327 255.02 40.474C255.552 41.006 256.206 41.272 256.98 41.272C257.503 41.272 257.97 41.1507 258.38 40.908C258.791 40.656 259.113 40.32 259.346 39.9L260.116 40.348C259.827 40.908 259.402 41.3513 258.842 41.678C258.282 42.0047 257.662 42.168 256.98 42.168ZM266.346 35V35.896H263.868V42H262.944V35.896H260.466V35H266.346ZM273.219 35H274.143V42H273.219V40.628C272.575 41.6547 271.632 42.168 270.391 42.168C269.392 42.168 268.538 41.8133 267.829 41.104C267.129 40.3947 266.779 39.5267 266.779 38.5C266.779 37.4733 267.129 36.6053 267.829 35.896C268.538 35.1867 269.392 34.832 270.391 34.832C271.632 34.832 272.575 35.3453 273.219 36.372V35ZM268.501 40.474C269.033 41.006 269.686 41.272 270.461 41.272C271.235 41.272 271.889 41.006 272.421 40.474C272.953 39.9327 273.219 39.2747 273.219 38.5C273.219 37.7253 272.953 37.072 272.421 36.54C271.889 35.9987 271.235 35.728 270.461 35.728C269.686 35.728 269.033 35.9987 268.501 36.54C267.969 37.072 267.703 37.7253 267.703 38.5C267.703 39.2747 267.969 39.9327 268.501 40.474ZM281.839 35V42H280.915V35.896H277.751V39.018C277.751 40.1847 277.527 40.9873 277.079 41.426C276.64 41.8647 276.034 42.056 275.259 42V41.132C275.791 41.188 276.183 41.062 276.435 40.754C276.696 40.446 276.827 39.8673 276.827 39.018V35H281.839ZM289.662 41.118C288.953 41.818 288.085 42.168 287.058 42.168C286.032 42.168 285.159 41.818 284.44 41.118C283.731 40.4087 283.376 39.536 283.376 38.5C283.376 37.464 283.731 36.596 284.44 35.896C285.159 35.1867 286.032 34.832 287.058 34.832C288.085 34.832 288.953 35.1867 289.662 35.896C290.381 36.596 290.74 37.464 290.74 38.5C290.74 39.536 290.381 40.4087 289.662 41.118ZM285.098 40.474C285.63 41.006 286.284 41.272 287.058 41.272C287.833 41.272 288.486 41.006 289.018 40.474C289.55 39.9327 289.816 39.2747 289.816 38.5C289.816 37.7253 289.55 37.072 289.018 36.54C288.486 35.9987 287.833 35.728 287.058 35.728C286.284 35.728 285.63 35.9987 285.098 36.54C284.566 37.072 284.3 37.7253 284.3 38.5C284.3 39.2747 284.566 39.9327 285.098 40.474ZM295.549 42.168C294.494 42.168 293.617 41.818 292.917 41.118C292.217 40.4087 291.867 39.536 291.867 38.5C291.867 37.464 292.217 36.596 292.917 35.896C293.617 35.1867 294.494 34.832 295.549 34.832C296.239 34.832 296.86 35 297.411 35.336C297.961 35.6627 298.363 36.106 298.615 36.666L297.859 37.1C297.672 36.68 297.369 36.3487 296.949 36.106C296.538 35.854 296.071 35.728 295.549 35.728C294.774 35.728 294.121 35.9987 293.589 36.54C293.057 37.072 292.791 37.7253 292.791 38.5C292.791 39.2747 293.057 39.9327 293.589 40.474C294.121 41.006 294.774 41.272 295.549 41.272C296.071 41.272 296.538 41.1507 296.949 40.908C297.359 40.656 297.681 40.32 297.915 39.9L298.685 40.348C298.395 40.908 297.971 41.3513 297.411 41.678C296.851 42.0047 296.23 42.168 295.549 42.168ZM302.853 37.66C303.507 37.66 304.057 37.8653 304.505 38.276C304.963 38.6773 305.191 39.1953 305.191 39.83C305.191 40.4647 304.963 40.9873 304.505 41.398C304.057 41.7993 303.507 42 302.853 42H300.011V35H300.935V37.66H302.853ZM302.853 41.104C303.245 41.104 303.577 40.9873 303.847 40.754C304.127 40.5207 304.267 40.2127 304.267 39.83C304.267 39.4473 304.127 39.1393 303.847 38.906C303.577 38.6727 303.245 38.556 302.853 38.556H300.935V41.104H302.853Z" fill="white"/>
<rect x="237" y="20" width="40" height="9" fill="#DC8A74"/>
<path d="M238.572 25V21.984L244.682 15.64C245.913 14.3747 246.528 13.3 246.528 12.416C246.528 11.844 246.355 11.3847 246.008 11.038C245.661 10.674 245.185 10.492 244.578 10.492C243.365 10.492 242.472 11.1507 241.9 12.468L238.39 10.414C238.945 9.114 239.777 8.126 240.886 7.45C241.995 6.774 243.209 6.436 244.526 6.436C246.225 6.436 247.672 6.96467 248.868 8.022C250.081 9.062 250.688 10.466 250.688 12.234C250.688 14.158 249.743 16.0647 247.854 17.954L244.838 20.996H250.948V25H238.572ZM252.435 25V21.984L258.545 15.64C259.776 14.3747 260.391 13.3 260.391 12.416C260.391 11.844 260.218 11.3847 259.871 11.038C259.525 10.674 259.048 10.492 258.441 10.492C257.228 10.492 256.335 11.1507 255.763 12.468L252.253 10.414C252.808 9.114 253.64 8.126 254.749 7.45C255.859 6.774 257.072 6.436 258.389 6.436C260.088 6.436 261.535 6.96467 262.731 8.022C263.945 9.062 264.551 10.466 264.551 12.234C264.551 14.158 263.607 16.0647 261.717 17.954L258.701 20.996H264.811V25H252.435ZM266.299 25V21.984L272.409 15.64C273.639 14.3747 274.255 13.3 274.255 12.416C274.255 11.844 274.081 11.3847 273.735 11.038C273.388 10.674 272.911 10.492 272.305 10.492C271.091 10.492 270.199 11.1507 269.627 12.468L266.117 10.414C266.671 9.114 267.503 8.126 268.613 7.45C269.722 6.774 270.935 6.436 272.253 6.436C273.951 6.436 275.399 6.96467 276.595 8.022C277.808 9.062 278.415 10.466 278.415 12.234C278.415 14.158 277.47 16.0647 275.581 17.954L272.565 20.996H278.675V25H266.299Z" fill="white"/>
<path d="M133.02 35H134L131.004 42.644C130.733 43.3347 130.346 43.876 129.842 44.268C129.347 44.6693 128.792 44.8467 128.176 44.8V43.932C129.016 44.0253 129.655 43.54 130.094 42.476L130.276 42.042L127.14 35H128.12L130.752 40.866L133.02 35ZM143.156 42H142.036L139.18 38.626V42H138.256V38.626L135.4 42H134.28L137.416 38.36L134.42 35H135.54L138.256 38.108V35H139.18V38.108L141.896 35H143.016L140.02 38.36L143.156 42ZM147.087 34.832C148.123 34.832 148.958 35.2007 149.593 35.938C150.237 36.666 150.559 37.5293 150.559 38.528C150.559 38.6307 150.55 38.7753 150.531 38.962H144.385C144.478 39.6713 144.777 40.236 145.281 40.656C145.794 41.0667 146.424 41.272 147.171 41.272C147.703 41.272 148.16 41.1647 148.543 40.95C148.935 40.726 149.229 40.4367 149.425 40.082L150.237 40.558C149.929 41.0527 149.509 41.4447 148.977 41.734C148.445 42.0233 147.838 42.168 147.157 42.168C146.056 42.168 145.16 41.8227 144.469 41.132C143.778 40.4413 143.433 39.564 143.433 38.5C143.433 37.4547 143.774 36.582 144.455 35.882C145.136 35.182 146.014 34.832 147.087 34.832ZM147.087 35.728C146.359 35.728 145.748 35.9473 145.253 36.386C144.768 36.8153 144.478 37.3753 144.385 38.066H149.607C149.514 37.3287 149.229 36.7547 148.753 36.344C148.277 35.9333 147.722 35.728 147.087 35.728ZM158.791 42.168C157.736 42.168 156.859 41.818 156.159 41.118C155.459 40.4087 155.109 39.536 155.109 38.5C155.109 37.464 155.459 36.596 156.159 35.896C156.859 35.1867 157.736 34.832 158.791 34.832C159.481 34.832 160.102 35 160.653 35.336C161.203 35.6627 161.605 36.106 161.857 36.666L161.101 37.1C160.914 36.68 160.611 36.3487 160.191 36.106C159.78 35.854 159.313 35.728 158.791 35.728C158.016 35.728 157.363 35.9987 156.831 36.54C156.299 37.072 156.033 37.7253 156.033 38.5C156.033 39.2747 156.299 39.9327 156.831 40.474C157.363 41.006 158.016 41.272 158.791 41.272C159.313 41.272 159.78 41.1507 160.191 40.908C160.601 40.656 160.923 40.32 161.157 39.9L161.927 40.348C161.637 40.908 161.213 41.3513 160.653 41.678C160.093 42.0047 159.472 42.168 158.791 42.168ZM171.709 35H172.633V42H171.709V38.948H167.677V42H166.753V35H167.677V38.052H171.709V35ZM180.607 35H181.531V42H180.607V40.628C179.963 41.6547 179.021 42.168 177.779 42.168C176.781 42.168 175.927 41.8133 175.217 41.104C174.517 40.3947 174.167 39.5267 174.167 38.5C174.167 37.4733 174.517 36.6053 175.217 35.896C175.927 35.1867 176.781 34.832 177.779 34.832C179.021 34.832 179.963 35.3453 180.607 36.372V35ZM175.889 40.474C176.421 41.006 177.075 41.272 177.849 41.272C178.624 41.272 179.277 41.006 179.809 40.474C180.341 39.9327 180.607 39.2747 180.607 38.5C180.607 37.7253 180.341 37.072 179.809 36.54C179.277 35.9987 178.624 35.728 177.849 35.728C177.075 35.728 176.421 35.9987 175.889 36.54C175.357 37.072 175.091 37.7253 175.091 38.5C175.091 39.2747 175.357 39.9327 175.889 40.474ZM190.348 35V42H189.424V36.414L186.974 40.39H186.862L184.412 36.414V42H183.488V35H184.552L186.918 38.836L189.284 35H190.348ZM197.402 35H198.186V42H197.262V36.61L193.09 42H192.306V35H193.23V40.39L197.402 35Z" fill="white"/>
<rect x="142" y="20" width="40" height="9" fill="#DC8A74"/>
<path d="M143.572 25V21.984L149.682 15.64C150.913 14.3747 151.528 13.3 151.528 12.416C151.528 11.844 151.355 11.3847 151.008 11.038C150.661 10.674 150.185 10.492 149.578 10.492C148.365 10.492 147.472 11.1507 146.9 12.468L143.39 10.414C143.945 9.114 144.777 8.126 145.886 7.45C146.995 6.774 148.209 6.436 149.526 6.436C151.225 6.436 152.672 6.96467 153.868 8.022C155.081 9.062 155.688 10.466 155.688 12.234C155.688 14.158 154.743 16.0647 152.854 17.954L149.838 20.996H155.948V25H143.572ZM156.615 6.8H168.575V10.284L162.647 25H158.227L163.947 10.804H156.615V6.8ZM180.372 15.51C181.949 16.5327 182.738 17.9887 182.738 19.878C182.738 21.5593 182.148 22.894 180.97 23.882C179.808 24.87 178.17 25.364 176.056 25.364C173.941 25.364 172.294 24.87 171.116 23.882C169.954 22.894 169.374 21.5593 169.374 19.878C169.374 17.9887 170.162 16.5327 171.74 15.51C170.578 14.6087 169.998 13.3867 169.998 11.844C169.998 10.1453 170.57 8.81933 171.714 7.866C172.858 6.91267 174.305 6.436 176.056 6.436C177.806 6.436 179.254 6.91267 180.398 7.866C181.542 8.81933 182.114 10.1453 182.114 11.844C182.114 13.3867 181.533 14.6087 180.372 15.51ZM177.434 10.83C177.087 10.5007 176.628 10.336 176.056 10.336C175.484 10.336 175.024 10.5007 174.678 10.83C174.331 11.1593 174.158 11.584 174.158 12.104C174.158 12.624 174.331 13.0487 174.678 13.378C175.024 13.7073 175.484 13.872 176.056 13.872C176.628 13.872 177.087 13.7073 177.434 13.378C177.78 13.0487 177.954 12.624 177.954 12.104C177.954 11.584 177.78 11.1593 177.434 10.83ZM174.236 20.892C174.704 21.2733 175.31 21.464 176.056 21.464C176.801 21.464 177.408 21.2733 177.876 20.892C178.344 20.4933 178.578 19.956 178.578 19.28C178.578 18.604 178.344 18.0753 177.876 17.694C177.408 17.2953 176.801 17.096 176.056 17.096C175.31 17.096 174.704 17.2953 174.236 17.694C173.768 18.0753 173.534 18.604 173.534 19.28C173.534 19.956 173.768 20.4933 174.236 20.892Z" fill="white"/>
</svg>
