<svg width="306" height="45" viewBox="0 0 306 45" fill="none" xmlns="http://www.w3.org/2000/svg">
<rect y="20" width="24" height="9" fill="#DC8A74"/>
<path d="M6.86 41.104H7.84V43.876H6.916V42H1.204V43.876H0.28V41.104H1.134C1.61 40.4787 1.848 39.5967 1.848 38.458V35H6.86V41.104ZM2.254 41.104H5.936V35.896H2.772V38.458C2.772 39.5313 2.59933 40.4133 2.254 41.104ZM14.1938 35H15.1178V42H14.1938V38.948H10.1618V42H9.23781V35H10.1618V38.052H14.1938V35ZM22.1118 35V42H21.1878V39.312H19.9838L17.8278 42H16.6518L18.8638 39.284C18.3038 39.2 17.8418 38.9667 17.4778 38.584C17.1138 38.2013 16.9318 37.73 16.9318 37.17C16.9318 36.5353 17.1558 36.0173 17.6038 35.616C18.0611 35.2053 18.6165 35 19.2698 35H22.1118ZM19.2698 38.444H21.1878V35.896H19.2698C18.8778 35.896 18.5418 36.0127 18.2618 36.246C17.9911 36.4793 17.8558 36.7873 17.8558 37.17C17.8558 37.5527 17.9911 37.8607 18.2618 38.094C18.5418 38.3273 18.8778 38.444 19.2698 38.444Z" fill="white"/>
<path d="M11.13 16.52C12.47 16.98 13.55 17.73 14.37 18.77C15.19 19.79 15.6 21 15.6 22.4C15.6 24.6 14.86 26.32 13.38 27.56C11.9 28.8 10.09 29.42 7.95 29.42C6.29 29.42 4.8 29.04 3.48 28.28C2.18 27.52 1.22 26.4 0.6 24.92L4.74 22.52C5.26 24 6.33 24.74 7.95 24.74C8.89 24.74 9.6 24.52 10.08 24.08C10.56 23.64 10.8 23.08 10.8 22.4C10.8 21.72 10.56 21.16 10.08 20.72C9.6 20.28 8.89 20.06 7.95 20.06H6.96L5.13 17.33L8.94 12.5H1.26V8H14.76V11.9L11.13 16.52Z" fill="white"/>
<rect x="57" y="20" width="40" height="9" fill="#DC8A74"/>
<path d="M60.55 15.38C62.61 15.38 64.32 16 65.68 17.24C67.06 18.46 67.75 20.18 67.75 22.4C67.75 24.6 67.01 26.32 65.53 27.56C64.05 28.8 62.24 29.42 60.1 29.42C58.36 29.42 56.83 29.05 55.51 28.31C54.19 27.55 53.22 26.42 52.6 24.92L56.74 22.52C57.26 24 58.38 24.74 60.1 24.74C61.04 24.74 61.75 24.52 62.23 24.08C62.71 23.64 62.95 23.08 62.95 22.4C62.95 21.72 62.72 21.16 62.26 20.72C61.8 20.28 61.13 20.06 60.25 20.06H53.68L54.55 8H66.7V12.5H59.05L58.84 15.38H60.55ZM84.0677 26.45C82.5677 28.43 80.4777 29.42 77.7977 29.42C75.1177 29.42 73.0177 28.43 71.4977 26.45C69.9977 24.45 69.2477 21.8 69.2477 18.5C69.2477 15.2 69.9977 12.56 71.4977 10.58C73.0177 8.58 75.1177 7.58 77.7977 7.58C80.4777 7.58 82.5677 8.58 84.0677 10.58C85.5877 12.56 86.3477 15.2 86.3477 18.5C86.3477 21.8 85.5877 24.45 84.0677 26.45ZM74.0477 18.5C74.0477 22.66 75.2977 24.74 77.7977 24.74C80.2977 24.74 81.5477 22.66 81.5477 18.5C81.5477 14.34 80.2977 12.26 77.7977 12.26C75.2977 12.26 74.0477 14.34 74.0477 18.5ZM102.964 26.45C101.464 28.43 99.3741 29.42 96.6941 29.42C94.0141 29.42 91.9141 28.43 90.3941 26.45C88.8941 24.45 88.1441 21.8 88.1441 18.5C88.1441 15.2 88.8941 12.56 90.3941 10.58C91.9141 8.58 94.0141 7.58 96.6941 7.58C99.3741 7.58 101.464 8.58 102.964 10.58C104.484 12.56 105.244 15.2 105.244 18.5C105.244 21.8 104.484 24.45 102.964 26.45ZM92.9441 18.5C92.9441 22.66 94.1941 24.74 96.6941 24.74C99.1941 24.74 100.444 22.66 100.444 18.5C100.444 14.34 99.1941 12.26 96.6941 12.26C94.1941 12.26 92.9441 14.34 92.9441 18.5Z" fill="white"/>
<path d="M47.02 35H48L45.004 42.644C44.7333 43.3347 44.346 43.876 43.842 44.268C43.3473 44.6693 42.792 44.8467 42.176 44.8V43.932C43.016 44.0253 43.6553 43.54 44.094 42.476L44.276 42.042L41.14 35H42.12L44.752 40.866L47.02 35ZM53.6527 35H54.5767V42H53.6527V39.34C53.1114 39.62 52.4441 39.76 51.6507 39.76C50.7361 39.76 50.0361 39.55 49.5507 39.13C49.0747 38.7007 48.8367 38.0707 48.8367 37.24V35H49.7607V37.24C49.7607 37.828 49.9147 38.2527 50.2227 38.514C50.5307 38.766 50.9974 38.892 51.6227 38.892C52.3507 38.892 53.0274 38.7567 53.6527 38.486V35ZM62.5605 35H63.4845V42H62.5605V40.628C61.9165 41.6547 60.9739 42.168 59.7325 42.168C58.7339 42.168 57.8799 41.8133 57.1705 41.104C56.4705 40.3947 56.1205 39.5267 56.1205 38.5C56.1205 37.4733 56.4705 36.6053 57.1705 35.896C57.8799 35.1867 58.7339 34.832 59.7325 34.832C60.9739 34.832 61.9165 35.3453 62.5605 36.372V35ZM57.8425 40.474C58.3745 41.006 59.0279 41.272 59.8025 41.272C60.5772 41.272 61.2305 41.006 61.7625 40.474C62.2945 39.9327 62.5605 39.2747 62.5605 38.5C62.5605 37.7253 62.2945 37.072 61.7625 36.54C61.2305 35.9987 60.5772 35.728 59.8025 35.728C59.0279 35.728 58.3745 35.9987 57.8425 36.54C57.3105 37.072 57.0445 37.7253 57.0445 38.5C57.0445 39.2747 57.3105 39.9327 57.8425 40.474ZM68.7029 42.168C67.6483 42.168 66.7709 41.818 66.0709 41.118C65.3709 40.4087 65.0209 39.536 65.0209 38.5C65.0209 37.464 65.3709 36.596 66.0709 35.896C66.7709 35.1867 67.6483 34.832 68.7029 34.832C69.3936 34.832 70.0143 35 70.5649 35.336C71.1156 35.6627 71.5169 36.106 71.7689 36.666L71.0129 37.1C70.8263 36.68 70.5229 36.3487 70.1029 36.106C69.6923 35.854 69.2256 35.728 68.7029 35.728C67.9283 35.728 67.2749 35.9987 66.7429 36.54C66.2109 37.072 65.9449 37.7253 65.9449 38.5C65.9449 39.2747 66.2109 39.9327 66.7429 40.474C67.2749 41.006 67.9283 41.272 68.7029 41.272C69.2256 41.272 69.6923 41.1507 70.1029 40.908C70.5136 40.656 70.8356 40.32 71.0689 39.9L71.8389 40.348C71.5496 40.908 71.1249 41.3513 70.5649 41.678C70.0049 42.0047 69.3843 42.168 68.7029 42.168ZM78.0688 35V35.896H75.5908V42H74.6668V35.896H72.1888V35H78.0688ZM84.1508 35H85.0748V42H84.1508V38.948H80.1188V42H79.1948V35H80.1188V38.052H84.1508V35ZM92.1248 35H92.9088V42H91.9848V36.61L87.8128 42H87.0288V35H87.9528V40.39L92.1248 35ZM100.519 42H99.2868L95.7868 38.626V42H94.8628V35H95.7868V38.094L99.1188 35H100.379L96.7668 38.36L100.519 42ZM106.95 41.118C106.24 41.818 105.372 42.168 104.346 42.168C103.319 42.168 102.446 41.818 101.728 41.118C101.018 40.4087 100.664 39.536 100.664 38.5C100.664 37.464 101.018 36.596 101.728 35.896C102.446 35.1867 103.319 34.832 104.346 34.832C105.372 34.832 106.24 35.1867 106.95 35.896C107.668 36.596 108.028 37.464 108.028 38.5C108.028 39.536 107.668 40.4087 106.95 41.118ZM102.386 40.474C102.918 41.006 103.571 41.272 104.346 41.272C105.12 41.272 105.774 41.006 106.306 40.474C106.838 39.9327 107.104 39.2747 107.104 38.5C107.104 37.7253 106.838 37.072 106.306 36.54C105.774 35.9987 105.12 35.728 104.346 35.728C103.571 35.728 102.918 35.9987 102.386 36.54C101.854 37.072 101.588 37.7253 101.588 38.5C101.588 39.2747 101.854 39.9327 102.386 40.474ZM114.026 38.402C114.791 38.682 115.174 39.228 115.174 40.04C115.174 40.6093 114.982 41.0807 114.6 41.454C114.226 41.818 113.685 42 112.976 42H109.574V35H112.696C113.377 35 113.904 35.1773 114.278 35.532C114.651 35.8773 114.838 36.3253 114.838 36.876C114.838 37.576 114.567 38.0847 114.026 38.402ZM112.696 35.896H110.498V38.024H112.696C113.508 38.024 113.914 37.66 113.914 36.932C113.914 36.6053 113.806 36.3533 113.592 36.176C113.386 35.9893 113.088 35.896 112.696 35.896ZM112.976 41.104C113.386 41.104 113.699 41.006 113.914 40.81C114.138 40.614 114.25 40.3387 114.25 39.984C114.25 39.6573 114.138 39.4007 113.914 39.214C113.699 39.018 113.386 38.92 112.976 38.92H110.498V41.104H112.976Z" fill="white"/>
<path d="M217.84 35V42H216.916V36.414L214.466 40.39H214.354L211.904 36.414V42H210.98V35H212.044L214.41 38.836L216.776 35H217.84ZM223.032 34.832C224.068 34.832 224.904 35.2007 225.538 35.938C226.182 36.666 226.504 37.5293 226.504 38.528C226.504 38.6307 226.495 38.7753 226.476 38.962H220.33C220.424 39.6713 220.722 40.236 221.226 40.656C221.74 41.0667 222.37 41.272 223.116 41.272C223.648 41.272 224.106 41.1647 224.488 40.95C224.88 40.726 225.174 40.4367 225.37 40.082L226.182 40.558C225.874 41.0527 225.454 41.4447 224.922 41.734C224.39 42.0233 223.784 42.168 223.102 42.168C222.001 42.168 221.105 41.8227 220.414 41.132C219.724 40.4413 219.378 39.564 219.378 38.5C219.378 37.4547 219.719 36.582 220.4 35.882C221.082 35.182 221.959 34.832 223.032 34.832ZM223.032 35.728C222.304 35.728 221.693 35.9473 221.198 36.386C220.713 36.8153 220.424 37.3753 220.33 38.066H225.552C225.459 37.3287 225.174 36.7547 224.698 36.344C224.222 35.9333 223.667 35.728 223.032 35.728ZM231.236 42.168C230.181 42.168 229.304 41.818 228.604 41.118C227.904 40.4087 227.554 39.536 227.554 38.5C227.554 37.464 227.904 36.596 228.604 35.896C229.304 35.1867 230.181 34.832 231.236 34.832C231.927 34.832 232.547 35 233.098 35.336C233.649 35.6627 234.05 36.106 234.302 36.666L233.546 37.1C233.359 36.68 233.056 36.3487 232.636 36.106C232.225 35.854 231.759 35.728 231.236 35.728C230.461 35.728 229.808 35.9987 229.276 36.54C228.744 37.072 228.478 37.7253 228.478 38.5C228.478 39.2747 228.744 39.9327 229.276 40.474C229.808 41.006 230.461 41.272 231.236 41.272C231.759 41.272 232.225 41.1507 232.636 40.908C233.047 40.656 233.369 40.32 233.602 39.9L234.372 40.348C234.083 40.908 233.658 41.3513 233.098 41.678C232.538 42.0047 231.917 42.168 231.236 42.168ZM240.602 35V35.896H238.124V42H237.2V35.896H234.722V35H240.602ZM251.094 41.118C250.385 41.818 249.517 42.168 248.49 42.168C247.463 42.168 246.591 41.818 245.872 41.118C245.163 40.4087 244.808 39.536 244.808 38.5C244.808 37.464 245.163 36.596 245.872 35.896C246.591 35.1867 247.463 34.832 248.49 34.832C249.517 34.832 250.385 35.1867 251.094 35.896C251.813 36.596 252.172 37.464 252.172 38.5C252.172 39.536 251.813 40.4087 251.094 41.118ZM246.53 40.474C247.062 41.006 247.715 41.272 248.49 41.272C249.265 41.272 249.918 41.006 250.45 40.474C250.982 39.9327 251.248 39.2747 251.248 38.5C251.248 37.7253 250.982 37.072 250.45 36.54C249.918 35.9987 249.265 35.728 248.49 35.728C247.715 35.728 247.062 35.9987 246.53 36.54C245.998 37.072 245.732 37.7253 245.732 38.5C245.732 39.2747 245.998 39.9327 246.53 40.474ZM256.98 42.168C255.926 42.168 255.048 41.818 254.348 41.118C253.648 40.4087 253.298 39.536 253.298 38.5C253.298 37.464 253.648 36.596 254.348 35.896C255.048 35.1867 255.926 34.832 256.98 34.832C257.671 34.832 258.292 35 258.842 35.336C259.393 35.6627 259.794 36.106 260.046 36.666L259.29 37.1C259.104 36.68 258.8 36.3487 258.38 36.106C257.97 35.854 257.503 35.728 256.98 35.728C256.206 35.728 255.552 35.9987 255.02 36.54C254.488 37.072 254.222 37.7253 254.222 38.5C254.222 39.2747 254.488 39.9327 255.02 40.474C255.552 41.006 256.206 41.272 256.98 41.272C257.503 41.272 257.97 41.1507 258.38 40.908C258.791 40.656 259.113 40.32 259.346 39.9L260.116 40.348C259.827 40.908 259.402 41.3513 258.842 41.678C258.282 42.0047 257.662 42.168 256.98 42.168ZM266.346 35V35.896H263.868V42H262.944V35.896H260.466V35H266.346ZM273.219 35H274.143V42H273.219V40.628C272.575 41.6547 271.632 42.168 270.391 42.168C269.392 42.168 268.538 41.8133 267.829 41.104C267.129 40.3947 266.779 39.5267 266.779 38.5C266.779 37.4733 267.129 36.6053 267.829 35.896C268.538 35.1867 269.392 34.832 270.391 34.832C271.632 34.832 272.575 35.3453 273.219 36.372V35ZM268.501 40.474C269.033 41.006 269.686 41.272 270.461 41.272C271.235 41.272 271.889 41.006 272.421 40.474C272.953 39.9327 273.219 39.2747 273.219 38.5C273.219 37.7253 272.953 37.072 272.421 36.54C271.889 35.9987 271.235 35.728 270.461 35.728C269.686 35.728 269.033 35.9987 268.501 36.54C267.969 37.072 267.703 37.7253 267.703 38.5C267.703 39.2747 267.969 39.9327 268.501 40.474ZM281.839 35V42H280.915V35.896H277.751V39.018C277.751 40.1847 277.527 40.9873 277.079 41.426C276.64 41.8647 276.034 42.056 275.259 42V41.132C275.791 41.188 276.183 41.062 276.435 40.754C276.696 40.446 276.827 39.8673 276.827 39.018V35H281.839ZM289.662 41.118C288.953 41.818 288.085 42.168 287.058 42.168C286.032 42.168 285.159 41.818 284.44 41.118C283.731 40.4087 283.376 39.536 283.376 38.5C283.376 37.464 283.731 36.596 284.44 35.896C285.159 35.1867 286.032 34.832 287.058 34.832C288.085 34.832 288.953 35.1867 289.662 35.896C290.381 36.596 290.74 37.464 290.74 38.5C290.74 39.536 290.381 40.4087 289.662 41.118ZM285.098 40.474C285.63 41.006 286.284 41.272 287.058 41.272C287.833 41.272 288.486 41.006 289.018 40.474C289.55 39.9327 289.816 39.2747 289.816 38.5C289.816 37.7253 289.55 37.072 289.018 36.54C288.486 35.9987 287.833 35.728 287.058 35.728C286.284 35.728 285.63 35.9987 285.098 36.54C284.566 37.072 284.3 37.7253 284.3 38.5C284.3 39.2747 284.566 39.9327 285.098 40.474ZM295.549 42.168C294.494 42.168 293.617 41.818 292.917 41.118C292.217 40.4087 291.867 39.536 291.867 38.5C291.867 37.464 292.217 36.596 292.917 35.896C293.617 35.1867 294.494 34.832 295.549 34.832C296.239 34.832 296.86 35 297.411 35.336C297.961 35.6627 298.363 36.106 298.615 36.666L297.859 37.1C297.672 36.68 297.369 36.3487 296.949 36.106C296.538 35.854 296.071 35.728 295.549 35.728C294.774 35.728 294.121 35.9987 293.589 36.54C293.057 37.072 292.791 37.7253 292.791 38.5C292.791 39.2747 293.057 39.9327 293.589 40.474C294.121 41.006 294.774 41.272 295.549 41.272C296.071 41.272 296.538 41.1507 296.949 40.908C297.359 40.656 297.681 40.32 297.915 39.9L298.685 40.348C298.395 40.908 297.971 41.3513 297.411 41.678C296.851 42.0047 296.23 42.168 295.549 42.168ZM302.853 37.66C303.507 37.66 304.057 37.8653 304.505 38.276C304.963 38.6773 305.191 39.1953 305.191 39.83C305.191 40.4647 304.963 40.9873 304.505 41.398C304.057 41.7993 303.507 42 302.853 42H300.011V35H300.935V37.66H302.853ZM302.853 41.104C303.245 41.104 303.577 40.9873 303.847 40.754C304.127 40.5207 304.267 40.2127 304.267 39.83C304.267 39.4473 304.127 39.1393 303.847 38.906C303.577 38.6727 303.245 38.556 302.853 38.556H300.935V41.104H302.853Z" fill="white"/>
<rect x="237" y="20" width="40" height="9" fill="#DC8A74"/>
<path d="M235.66 29V25.52L242.71 18.2C244.13 16.74 244.84 15.5 244.84 14.48C244.84 13.82 244.64 13.29 244.24 12.89C243.84 12.47 243.29 12.26 242.59 12.26C241.19 12.26 240.16 13.02 239.5 14.54L235.45 12.17C236.09 10.67 237.05 9.53 238.33 8.75C239.61 7.97 241.01 7.58 242.53 7.58C244.49 7.58 246.16 8.19 247.54 9.41C248.94 10.61 249.64 12.23 249.64 14.27C249.64 16.49 248.55 18.69 246.37 20.87L242.89 24.38H249.94V29H235.66ZM251.656 29V25.52L258.706 18.2C260.126 16.74 260.836 15.5 260.836 14.48C260.836 13.82 260.636 13.29 260.236 12.89C259.836 12.47 259.286 12.26 258.586 12.26C257.186 12.26 256.156 13.02 255.496 14.54L251.446 12.17C252.086 10.67 253.046 9.53 254.326 8.75C255.606 7.97 257.006 7.58 258.526 7.58C260.486 7.58 262.156 8.19 263.536 9.41C264.936 10.61 265.636 12.23 265.636 14.27C265.636 16.49 264.546 18.69 262.366 20.87L258.886 24.38H265.936V29H251.656ZM267.652 29V25.52L274.702 18.2C276.122 16.74 276.832 15.5 276.832 14.48C276.832 13.82 276.632 13.29 276.232 12.89C275.832 12.47 275.282 12.26 274.582 12.26C273.182 12.26 272.152 13.02 271.492 14.54L267.442 12.17C268.082 10.67 269.042 9.53 270.322 8.75C271.602 7.97 273.002 7.58 274.522 7.58C276.482 7.58 278.152 8.19 279.532 9.41C280.932 10.61 281.632 12.23 281.632 14.27C281.632 16.49 280.542 18.69 278.362 20.87L274.882 24.38H281.932V29H267.652Z" fill="white"/>
<path d="M133.02 35H134L131.004 42.644C130.733 43.3347 130.346 43.876 129.842 44.268C129.347 44.6693 128.792 44.8467 128.176 44.8V43.932C129.016 44.0253 129.655 43.54 130.094 42.476L130.276 42.042L127.14 35H128.12L130.752 40.866L133.02 35ZM143.156 42H142.036L139.18 38.626V42H138.256V38.626L135.4 42H134.28L137.416 38.36L134.42 35H135.54L138.256 38.108V35H139.18V38.108L141.896 35H143.016L140.02 38.36L143.156 42ZM147.087 34.832C148.123 34.832 148.958 35.2007 149.593 35.938C150.237 36.666 150.559 37.5293 150.559 38.528C150.559 38.6307 150.55 38.7753 150.531 38.962H144.385C144.478 39.6713 144.777 40.236 145.281 40.656C145.794 41.0667 146.424 41.272 147.171 41.272C147.703 41.272 148.16 41.1647 148.543 40.95C148.935 40.726 149.229 40.4367 149.425 40.082L150.237 40.558C149.929 41.0527 149.509 41.4447 148.977 41.734C148.445 42.0233 147.838 42.168 147.157 42.168C146.056 42.168 145.16 41.8227 144.469 41.132C143.778 40.4413 143.433 39.564 143.433 38.5C143.433 37.4547 143.774 36.582 144.455 35.882C145.136 35.182 146.014 34.832 147.087 34.832ZM147.087 35.728C146.359 35.728 145.748 35.9473 145.253 36.386C144.768 36.8153 144.478 37.3753 144.385 38.066H149.607C149.514 37.3287 149.229 36.7547 148.753 36.344C148.277 35.9333 147.722 35.728 147.087 35.728ZM158.791 42.168C157.736 42.168 156.859 41.818 156.159 41.118C155.459 40.4087 155.109 39.536 155.109 38.5C155.109 37.464 155.459 36.596 156.159 35.896C156.859 35.1867 157.736 34.832 158.791 34.832C159.481 34.832 160.102 35 160.653 35.336C161.203 35.6627 161.605 36.106 161.857 36.666L161.101 37.1C160.914 36.68 160.611 36.3487 160.191 36.106C159.78 35.854 159.313 35.728 158.791 35.728C158.016 35.728 157.363 35.9987 156.831 36.54C156.299 37.072 156.033 37.7253 156.033 38.5C156.033 39.2747 156.299 39.9327 156.831 40.474C157.363 41.006 158.016 41.272 158.791 41.272C159.313 41.272 159.78 41.1507 160.191 40.908C160.601 40.656 160.923 40.32 161.157 39.9L161.927 40.348C161.637 40.908 161.213 41.3513 160.653 41.678C160.093 42.0047 159.472 42.168 158.791 42.168ZM171.709 35H172.633V42H171.709V38.948H167.677V42H166.753V35H167.677V38.052H171.709V35ZM180.607 35H181.531V42H180.607V40.628C179.963 41.6547 179.021 42.168 177.779 42.168C176.781 42.168 175.927 41.8133 175.217 41.104C174.517 40.3947 174.167 39.5267 174.167 38.5C174.167 37.4733 174.517 36.6053 175.217 35.896C175.927 35.1867 176.781 34.832 177.779 34.832C179.021 34.832 179.963 35.3453 180.607 36.372V35ZM175.889 40.474C176.421 41.006 177.075 41.272 177.849 41.272C178.624 41.272 179.277 41.006 179.809 40.474C180.341 39.9327 180.607 39.2747 180.607 38.5C180.607 37.7253 180.341 37.072 179.809 36.54C179.277 35.9987 178.624 35.728 177.849 35.728C177.075 35.728 176.421 35.9987 175.889 36.54C175.357 37.072 175.091 37.7253 175.091 38.5C175.091 39.2747 175.357 39.9327 175.889 40.474ZM190.348 35V42H189.424V36.414L186.974 40.39H186.862L184.412 36.414V42H183.488V35H184.552L186.918 38.836L189.284 35H190.348ZM197.402 35H198.186V42H197.262V36.61L193.09 42H192.306V35H193.23V40.39L197.402 35Z" fill="white"/>
<rect x="142" y="20" width="40" height="9" fill="#DC8A74"/>
<path d="M140.66 29V25.52L147.71 18.2C149.13 16.74 149.84 15.5 149.84 14.48C149.84 13.82 149.64 13.29 149.24 12.89C148.84 12.47 148.29 12.26 147.59 12.26C146.19 12.26 145.16 13.02 144.5 14.54L140.45 12.17C141.09 10.67 142.05 9.53 143.33 8.75C144.61 7.97 146.01 7.58 147.53 7.58C149.49 7.58 151.16 8.19 152.54 9.41C153.94 10.61 154.64 12.23 154.64 14.27C154.64 16.49 153.55 18.69 151.37 20.87L147.89 24.38H154.94V29H140.66ZM155.71 8H169.51V12.02L162.67 29H157.57L164.17 12.62H155.71V8ZM183.121 18.05C184.941 19.23 185.851 20.91 185.851 23.09C185.851 25.03 185.171 26.57 183.811 27.71C182.471 28.85 180.581 29.42 178.141 29.42C175.701 29.42 173.801 28.85 172.441 27.71C171.101 26.57 170.431 25.03 170.431 23.09C170.431 20.91 171.341 19.23 173.161 18.05C171.821 17.01 171.151 15.6 171.151 13.82C171.151 11.86 171.811 10.33 173.131 9.23C174.451 8.13 176.121 7.58 178.141 7.58C180.161 7.58 181.831 8.13 183.151 9.23C184.471 10.33 185.131 11.86 185.131 13.82C185.131 15.6 184.461 17.01 183.121 18.05ZM179.731 12.65C179.331 12.27 178.801 12.08 178.141 12.08C177.481 12.08 176.951 12.27 176.551 12.65C176.151 13.03 175.951 13.52 175.951 14.12C175.951 14.72 176.151 15.21 176.551 15.59C176.951 15.97 177.481 16.16 178.141 16.16C178.801 16.16 179.331 15.97 179.731 15.59C180.131 15.21 180.331 14.72 180.331 14.12C180.331 13.52 180.131 13.03 179.731 12.65ZM176.041 24.26C176.581 24.7 177.281 24.92 178.141 24.92C179.001 24.92 179.701 24.7 180.241 24.26C180.781 23.8 181.051 23.18 181.051 22.4C181.051 21.62 180.781 21.01 180.241 20.57C179.701 20.11 179.001 19.88 178.141 19.88C177.281 19.88 176.581 20.11 176.041 20.57C175.501 21.01 175.231 21.62 175.231 22.4C175.231 23.18 175.501 23.8 176.041 24.26Z" fill="white"/>
</svg>
