<svg width="11" height="18" viewBox="0 0 11 18" fill="none" xmlns="http://www.w3.org/2000/svg">
<path d="M10.9992 8.98034C11.0049 9.39081 10.8664 9.71019 10.5937 9.97575C9.32628 11.2096 8.06061 12.4453 6.79098 13.6767C5.45751 14.97 4.12006 16.2591 2.78406 17.5496C2.48541 17.8381 2.12797 18.0041 1.70451 17.9991C1.32399 17.9946 0.990346 17.8606 0.716221 17.5978C0.630376 17.5155 0.548139 17.43 0.459769 17.3505C0.169413 17.0899 0.0240542 16.7547 0.00926587 16.384C-0.00371901 16.0523 0.104849 15.7386 0.315493 15.4656C0.419372 15.3309 0.52253 15.1934 0.608013 15.0474C1.00622 14.3657 1.39612 13.6799 1.79252 12.9971C2.11462 12.4418 2.44285 11.8899 2.76567 11.3348C3.07406 10.8055 3.39291 10.2814 3.6811 9.74149C3.92709 9.28072 3.94369 8.79322 3.70527 8.32119C3.53286 7.98036 3.33087 7.6536 3.13898 7.32262C2.86125 6.84391 2.57919 6.36696 2.30038 5.8886C1.88522 5.17634 1.47115 4.46337 1.05635 3.75041C0.852201 3.39902 0.648411 3.04729 0.443177 2.69661C0.419732 2.65651 0.390877 2.61747 0.358415 2.58406C-0.105434 2.10746 -0.127075 1.26963 0.34038 0.76911C0.489346 0.609775 0.641918 0.450791 0.811082 0.312911C1.34815 -0.124646 2.13879 -0.1053 2.67153 0.374465C2.89227 0.572843 3.0975 0.787752 3.31103 0.993868C4.73612 2.37161 6.16085 3.75005 7.58667 5.12709C8.57712 6.08346 9.56758 7.03947 10.5613 7.99267C10.8563 8.27511 11.0103 8.60855 10.9992 8.98034Z" fill="#DC8A74"/>
</svg>
