<svg width="15" height="8" viewBox="0 0 15 8" fill="none" xmlns="http://www.w3.org/2000/svg">
<path d="M7.74707 7.72098C7.41559 7.72503 7.15768 7.62781 6.94322 7.4364C5.94679 6.54668 4.94894 5.65824 3.9545 4.767C2.91007 3.83096 1.86904 2.89212 0.826878 1.9543C0.59396 1.74466 0.45989 1.49375 0.463867 1.1965C0.46756 0.929386 0.575781 0.695184 0.787963 0.502759C0.854429 0.442499 0.923452 0.384772 0.987647 0.32274C1.19812 0.118921 1.46882 0.0168851 1.7682 0.00650428C2.03606 -0.0026106 2.28943 0.0735999 2.50985 0.221464C2.61864 0.294383 2.7297 0.366795 2.84758 0.426802C3.39806 0.706324 3.95194 0.980024 4.50327 1.25828C4.95178 1.48438 5.39745 1.71478 5.84567 1.94139C6.27316 2.15787 6.69639 2.38169 7.1324 2.58399C7.5045 2.75667 7.89819 2.76831 8.27937 2.60095C8.55461 2.47993 8.81849 2.33814 9.08578 2.20344C9.47236 2.00849 9.85753 1.81049 10.2438 1.61477C10.819 1.32335 11.3948 1.03269 11.9705 0.741518C12.2543 0.598212 12.5383 0.455159 12.8215 0.311093C12.8539 0.294636 12.8855 0.27438 12.9124 0.251593C13.2973 -0.0740105 13.9739 -0.089202 14.3781 0.238934C14.5068 0.343502 14.6352 0.450601 14.7465 0.569348C15.0999 0.94635 15.0842 1.50134 14.6968 1.87531C14.5366 2.03026 14.3631 2.17433 14.1966 2.32422C13.084 3.32457 11.9708 4.32468 10.8588 5.32554C10.0865 6.02081 9.31444 6.71607 8.54467 7.41361C8.31658 7.62072 8.04731 7.72883 7.74707 7.72098Z" fill="#DC8A74"/>
</svg>
