<svg width="183" height="182" viewBox="0 0 183 182" fill="none" xmlns="http://www.w3.org/2000/svg">
<circle cx="91.5" cy="91.5" r="70.5" fill="#FFE4DE"/>
<g filter="url(#filter0_d)">
<path d="M166.842 82.5532C166.494 79.656 165.953 76.751 165.245 73.8318C155.348 33.0409 114.365 7.99847 73.6656 17.873C32.9923 27.7414 8.01654 68.787 17.9134 109.578C26.3373 144.298 57.3205 167.609 91.4255 167.677" stroke="#DC8A74" stroke-width="3" stroke-miterlimit="10"/>
<path d="M166.842 82.5532C166.494 79.656 165.953 76.751 165.245 73.8318C155.348 33.0409 114.365 7.99847 73.6656 17.873C32.9923 27.7414 8.01654 68.787 17.9134 109.578C26.3373 144.298 57.3205 167.609 91.4255 167.677" stroke="url(#paint0_linear)" stroke-width="3" stroke-miterlimit="10"/>
</g>
<path d="M85.4988 68.9517C84.9018 69.4521 84.4159 69.9108 83.8606 70.3C81.6672 71.8707 78.9324 71.7456 77.211 70.022C75.559 68.3679 75.4757 66.0606 77.0721 64.3648C78.6409 62.669 80.6122 62.2659 82.7778 62.8497C83.5969 63.0721 84.3604 63.4891 85.2211 63.8505C85.5821 62.5439 85.5265 61.2234 85.2072 59.8612C84.6381 60.1948 84.1383 60.5423 83.583 60.7925C81.7783 61.6126 79.9042 61.9323 78.0023 61.0983C76.4474 60.4172 75.5034 59.2357 75.434 57.4982C75.3507 55.8025 76.1698 54.5515 77.6136 53.7175C80.1818 52.2441 83.5136 52.7167 85.5959 54.8017C85.6792 54.8851 85.7487 54.9546 85.9708 55.1631C86.4011 54.2457 86.8176 53.4117 87.1924 52.5638C87.359 52.1746 87.4701 51.7576 87.595 51.3406C87.8449 50.5344 88.539 50.0896 89.3026 50.2842C89.9689 50.451 90.3715 51.2155 90.1771 52.0356C89.7329 53.8565 88.9277 55.5245 87.8449 57.0534C87.5256 57.5121 87.4284 57.8874 87.6089 58.4573C88.4141 60.9315 88.3724 63.3918 87.4284 65.8382C87.3451 66.0606 87.3451 66.3803 87.4423 66.5748C88.9555 69.3409 88.5946 72.2738 86.4705 74.7619C85.6515 75.721 84.9018 76.7356 84.0828 77.7642C85.4571 78.3341 86.7065 78.8484 87.956 79.3766C89.3303 75.3457 92.079 73.1912 96.3826 73.5665C99.7144 73.8584 102.227 76.2491 103.018 79.4878C103.824 82.8099 102.449 85.7844 98.9508 88.1891C99.0897 88.3559 99.2146 88.5366 99.3534 88.6895C101.061 90.5799 102.574 92.5954 103.754 94.861C103.976 95.278 104.198 95.3197 104.601 95.1946C106.642 94.5692 108.724 94.4441 110.834 94.597C111.084 94.6109 111.417 94.4163 111.612 94.2217C114.11 91.7892 117.053 90.5243 120.58 90.8857C122.495 91.0803 124.314 91.7475 125.869 92.8595C128.146 94.4858 130.297 96.2788 132.519 97.9885C133.463 98.7252 134.407 99.4619 135.42 100.101C136.808 100.977 138.266 101.102 139.807 100.351C140.223 100.157 140.862 100.129 141.278 100.31C141.625 100.463 141.972 101.005 142 101.394C142.028 101.741 141.681 102.256 141.362 102.45C139.057 103.799 136.642 103.938 134.337 102.562C132.657 101.561 131.13 100.31 129.548 99.1283C127.951 97.9329 126.452 96.6263 124.814 95.5004C122.981 94.2495 120.941 93.4294 118.65 93.5684C116.97 93.6796 115.499 94.3051 114.097 95.4448C114.36 95.5699 114.555 95.6672 114.735 95.7645C116.998 96.946 118.747 98.614 119.788 100.963C121.468 104.716 119.316 108.9 115.429 109.539C113.014 109.928 110.612 108.705 109.293 106.412C107.738 103.674 107.78 100.852 108.946 97.9885C109.016 97.8217 109.085 97.6549 109.154 97.4881C109.168 97.4464 109.154 97.4047 109.141 97.1684C107.822 97.3352 106.503 97.4881 105.156 97.6549C105.573 99.0032 105.975 100.157 106.267 101.338C106.919 103.924 107.072 106.537 106.17 109.095C105.351 111.402 103.837 113.098 101.547 114.043C93.1063 117.518 84.6658 120.993 76.2253 124.468C69.0203 127.428 61.7876 130.403 54.5688 133.391C53.2499 133.934 52.0005 133.947 50.9038 132.947C49.9598 132.071 49.7377 130.584 50.3207 129.166C55.1935 117.184 60.0801 105.203 64.9528 93.2209C66.4521 89.5374 67.9653 85.8539 69.4368 82.1566C70.7279 78.9318 73.2545 77.3611 76.5307 76.9163C77.919 76.7356 79.3627 76.9441 80.7787 76.9441C81.0009 76.9441 81.3202 76.8607 81.4451 76.7078C82.4169 75.4986 83.347 74.2337 84.3049 73.0105C85.0684 72.0514 85.6515 71.0228 85.6098 69.744C85.5959 69.4938 85.5404 69.2575 85.4988 68.9517ZM79.7792 79.6129C79.0712 79.6129 78.3077 79.5712 77.558 79.6129C74.49 79.7797 72.4215 81.3643 71.7135 84.1721C71.2554 85.9929 71.3804 87.8138 71.8801 89.6625C72.9074 93.3877 74.7399 96.6958 77.0444 99.726C78.266 101.338 79.7098 102.784 81.1536 104.216C84.055 107.107 87.4007 109.345 91.2044 110.86C93.3701 111.722 95.5913 112.264 97.9374 112.139C101.922 111.93 104.198 109.539 104.212 105.536C104.212 103.284 103.601 101.158 102.768 99.0866C102.699 98.9337 102.602 98.7808 102.505 98.6001C102.102 98.8086 101.727 98.9754 101.366 99.17C98.7009 100.616 96.4798 102.575 94.5779 104.925C94.1753 105.425 93.6894 105.606 93.0786 105.425C92.0513 105.119 91.7736 104.077 92.4955 103.145C94.6889 100.282 97.3821 98.0163 100.644 96.4317C100.853 96.3344 101.075 96.2093 101.297 96.0981C99.8948 93.4294 98.2151 91.0525 96.1605 88.9536C96.0078 88.8007 95.744 88.7034 95.5219 88.6617C94.8694 88.5644 94.1892 88.62 93.5783 88.4393C91.1489 87.7443 89.0666 86.4794 88.3724 83.8941C87.9837 82.4624 87.1091 81.823 85.9014 81.3365C85.7487 81.2809 85.6098 81.1975 85.471 81.1419C84.527 80.7805 83.5969 80.433 82.6251 80.0716C81.9032 81.6562 81.3757 83.1574 81.2508 84.7837C81.1952 85.6455 80.6122 86.2153 79.8347 86.1875C79.0296 86.1736 78.5437 85.6176 78.5437 84.6864C78.5437 84.4362 78.5437 84.186 78.6131 83.9497C78.9879 82.5736 79.3627 81.1697 79.7792 79.6129ZM64.4114 102.061C64.3697 102.131 64.3003 102.242 64.2587 102.367C63.634 103.938 63.037 105.536 62.3568 107.079C62.0514 107.774 62.1208 108.344 62.454 108.983C63.7589 111.513 65.8135 113.264 68.2429 114.641C72.6714 117.129 77.5164 118.255 82.5002 118.922C82.7501 118.95 83.0277 118.852 83.2776 118.755C84.7908 118.157 86.2901 117.532 87.8032 116.92C88.4696 116.656 89.1221 116.378 89.955 116.031C89.5802 115.947 89.3858 115.892 89.1915 115.864C85.4988 115.363 81.931 114.432 78.4743 113.028C74.3095 111.332 70.4919 109.067 67.41 105.745C66.3272 104.605 65.4109 103.312 64.4114 102.061ZM89.5663 113.251C88.8167 112.903 88.0115 112.639 87.3312 112.194C85.471 110.957 83.6108 109.72 81.8755 108.316C80.2096 106.968 78.3493 105.856 77.0027 104.146C76.4613 103.451 75.8921 102.77 75.3091 102.117C75.0314 101.811 74.6983 101.505 74.3373 101.311C71.6997 99.8928 69.3535 98.1414 67.5488 95.695C67.4933 95.6116 67.41 95.556 67.285 95.4448C66.8825 96.4317 66.4799 97.3491 66.1606 98.2804C66.0634 98.5584 66.0634 98.9476 66.1883 99.2256C66.9102 100.907 67.9514 102.381 69.1731 103.715C72.6575 107.51 76.9889 109.942 81.7922 111.61C84.291 112.472 86.8731 113.056 89.5663 113.251ZM90.7602 81.1697C90.8019 84.0887 92.8842 86.2292 95.4525 86.2014C98.6593 86.1736 100.603 83.8941 100.658 81.2392C100.714 78.4731 98.4511 76.2074 95.7023 76.1935C92.9675 76.1796 90.7741 78.3897 90.7602 81.1697ZM77.9329 121.034C77.5858 120.937 77.4192 120.895 77.2526 120.84C75.1286 120.214 72.9629 119.7 70.8945 118.936C66.8547 117.434 63.2314 115.28 60.7603 111.569C60.7464 111.541 60.677 111.555 60.5937 111.541C60.1634 112.569 59.7052 113.598 59.2888 114.641C59.2055 114.835 59.261 115.127 59.3443 115.349C59.8441 116.656 60.6215 117.796 61.5933 118.783C63.8283 121.048 66.6465 122.119 69.6728 122.786C71.4359 123.175 73.1434 123.286 74.7677 122.299C74.8648 122.244 74.9759 122.216 75.087 122.174C75.9893 121.813 76.8778 121.451 77.9329 121.034ZM110.973 101.978C110.973 103.785 111.612 105.244 112.917 106.356C114.069 107.343 115.665 107.315 116.817 106.328C117.942 105.369 118.289 103.882 117.664 102.381C116.734 100.101 114.957 98.7252 112.681 97.9329C112.528 97.8773 112.209 98.0163 112.111 98.1553C111.403 99.3507 111.001 100.657 110.973 101.978ZM57.8034 118.31C57.1786 119.825 56.6233 121.229 55.9986 122.591C55.7765 123.092 55.8182 123.495 56.1236 123.912C56.3179 124.19 56.5123 124.496 56.7761 124.69C59.1916 126.442 61.7737 127.47 64.7723 126.316C65.7163 125.955 66.6603 125.552 67.7987 125.093C63.634 123.884 60.1495 122.035 57.8034 118.31ZM84.2077 57.248C83.3609 55.6496 82.0004 55.4967 80.5427 55.7608C79.9042 55.872 79.2239 56.1222 78.6964 56.4975C78.0161 56.984 78.1272 57.9847 78.8352 58.4573C79.1129 58.638 79.446 58.777 79.7653 58.8465C81.57 59.2218 82.9028 58.3044 84.2077 57.248ZM58.4836 128.985C57.1509 128.151 55.8459 127.331 54.4855 126.483C53.944 127.776 53.3471 129.138 52.8057 130.514C52.6391 130.945 52.9584 131.181 53.4304 131.001C55.1379 130.333 56.8316 129.652 58.4836 128.985ZM84.2494 66.8389C83.4164 66.0745 82.5973 65.7409 81.7228 65.6297C80.8065 65.5185 79.9736 65.7548 79.3211 66.4636C78.8352 67.0057 78.8074 67.52 79.2378 68.1038C79.8347 68.91 81.0147 69.2019 81.9865 68.632C82.7778 68.1594 83.4581 67.4783 84.2494 66.8389ZM69.3119 90.288C69.1175 90.7328 68.9648 91.0247 68.8538 91.3444C68.7566 91.6363 68.5345 92.0116 68.6455 92.2201C69.2702 93.4572 70.0338 94.6109 71.1027 95.5421C70.8251 94.6943 70.4641 93.8742 70.1587 93.0402C69.8533 92.1784 69.6173 91.3166 69.3119 90.288Z" fill="#B45E47"/>
<path d="M116.207 65.7548C114.916 65.4768 113.444 65.1988 112 64.8514C111.306 64.6846 110.793 64.7402 110.265 65.2961C109.335 66.283 108.294 67.1587 107.294 68.09C106.878 68.4792 106.433 68.7294 105.837 68.4653C105.267 68.2151 105.045 67.7981 104.99 67.2004C104.851 65.7409 104.657 64.2815 104.532 62.8081C104.49 62.3772 104.337 62.127 103.949 61.9324C102.657 61.2791 101.38 60.5841 100.103 59.9169C99.6033 59.6528 99.1591 59.347 99.173 58.6937C99.1869 58.0543 99.5895 57.6512 100.131 57.401C101.477 56.7616 102.838 56.1361 104.198 55.5384C104.601 55.3578 104.781 55.1215 104.851 54.6906C105.087 53.245 105.378 51.7994 105.628 50.3538C105.739 49.7422 105.961 49.214 106.642 49.0472C107.294 48.8804 107.766 49.1723 108.183 49.6588C109.168 50.7847 110.154 51.8967 111.181 52.9809C111.376 53.1755 111.764 53.3145 112.042 53.2867C113.458 53.106 114.86 52.8558 116.262 52.6334C116.901 52.5222 117.553 52.4388 117.984 53.0782C118.4 53.7037 118.234 54.3153 117.873 54.9269C117.151 56.1361 116.484 57.3593 115.762 58.5686C115.526 58.9717 115.526 59.2775 115.721 59.6945C116.373 61.0567 116.998 62.4467 117.609 63.8228C118.025 64.7402 117.373 65.7826 116.207 65.7548ZM114.333 55.7052C113.333 55.8442 112.486 55.9137 111.653 56.0666C110.862 56.2195 110.265 56.011 109.738 55.3856C109.182 54.7323 108.544 54.1207 107.863 53.4118C107.683 54.4543 107.516 55.33 107.364 56.2195C107.266 56.8589 106.933 57.2759 106.336 57.54C105.476 57.9153 104.657 58.3462 103.699 58.8049C104.587 59.2775 105.323 59.7084 106.086 60.0698C106.808 60.4173 107.197 60.9177 107.225 61.7517C107.253 62.6135 107.364 63.4753 107.461 64.49C108.224 63.7811 108.905 63.2251 109.488 62.5718C110.071 61.9185 110.695 61.8073 111.487 62.0019C112.306 62.1965 113.139 62.2938 114.083 62.4606C113.611 61.4737 113.236 60.598 112.792 59.764C112.486 59.1941 112.514 58.7215 112.861 58.1794C113.361 57.4149 113.805 56.6087 114.333 55.7052Z" fill="#B45E47"/>
<path d="M121.288 76.2771C120.83 77.5698 121.315 78.4872 122.509 79.1266C122.995 79.3907 123.412 79.7938 123.87 80.1413C124.3 80.4749 124.508 80.9058 124.397 81.4479C124.286 82.0178 123.995 82.4348 123.398 82.6016C122.509 82.8518 121.621 83.1437 120.732 83.3661C120.33 83.4634 120.135 83.6719 120.01 84.0611C119.747 84.9229 119.441 85.7708 119.164 86.6464C118.983 87.2441 118.636 87.6472 117.998 87.7306C117.387 87.814 116.97 87.5082 116.665 86.9939C116.221 86.285 115.707 85.6179 115.29 84.8951C115.027 84.4364 114.694 84.2974 114.194 84.3252C113.43 84.3669 112.653 84.3391 111.889 84.3391C111.195 84.353 110.64 84.075 110.307 83.4773C109.96 82.8657 110.223 82.2958 110.612 81.7815C111.126 81.1004 111.681 80.4332 112.153 79.7104C112.306 79.4741 112.361 79.0849 112.292 78.8069C112.028 77.8756 111.695 76.9582 111.389 76.0408C111.098 75.1652 111.57 74.3868 112.486 74.4007C112.986 74.4146 113.5 74.6092 113.985 74.7621C114.805 75.0123 115.665 75.6239 116.401 75.4988C117.178 75.3737 117.831 74.5397 118.553 74.0393C118.858 73.8169 119.178 73.5806 119.525 73.4416C120.413 73.0941 121.232 73.6362 121.288 74.5953C121.302 75.1513 121.288 75.6934 121.288 76.2771ZM114.694 78.0007C115.402 79.3907 115.068 80.5166 114.055 81.5869C115.526 81.3367 116.512 81.8649 117.206 83.1715C117.373 81.5452 118.303 80.7529 119.566 80.6139C119.191 80.1552 118.692 79.7382 118.47 79.21C118.247 78.6957 118.303 78.0424 118.22 77.3057C117.192 78.4455 116.068 78.6957 114.694 78.0007Z" fill="#B45E47"/>
<path d="M129.423 69.6748C126.799 69.6748 124.675 67.5759 124.675 64.9488C124.661 62.3634 126.841 60.1812 129.409 60.1812C132.005 60.1812 134.157 62.3356 134.17 64.9349C134.17 67.5203 132.019 69.6748 129.423 69.6748ZM131.45 64.9488C131.463 63.8785 130.519 62.9055 129.437 62.8916C128.312 62.8777 127.41 63.7534 127.396 64.8793C127.382 65.9635 128.312 66.9365 129.395 66.9504C130.464 66.9643 131.422 66.0469 131.45 64.9488Z" fill="#B45E47"/>
<path d="M88.7334 93.9579C88.7472 91.9285 90.3715 90.3022 92.4122 90.3022C94.4252 90.3022 96.0633 91.9563 96.0633 93.9718C96.0633 95.9456 94.3419 97.6553 92.3706 97.6414C90.3437 97.6414 88.7195 96.0012 88.7334 93.9579ZM93.3423 93.9718C93.3285 93.4436 92.912 93.0405 92.3983 93.0405C91.8847 93.0405 91.4543 93.4714 91.4682 93.9857C91.4821 94.4722 91.9402 94.9309 92.4261 94.9309C92.9398 94.917 93.3423 94.5 93.3423 93.9718Z" fill="#B45E47"/>
<defs>
<filter id="filter0_d" x="8.24829" y="12.2207" width="166.083" height="166.957" filterUnits="userSpaceOnUse" color-interpolation-filters="sRGB">
<feFlood flood-opacity="0" result="BackgroundImageFix"/>
<feColorMatrix in="SourceAlpha" type="matrix" values="0 0 0 0 0 0 0 0 0 0 0 0 0 0 0 0 0 0 127 0"/>
<feOffset dy="4"/>
<feGaussianBlur stdDeviation="3"/>
<feColorMatrix type="matrix" values="0 0 0 0 1 0 0 0 0 1 0 0 0 0 1 0 0 0 0.25 0"/>
<feBlend mode="normal" in2="BackgroundImageFix" result="effect1_dropShadow"/>
<feBlend mode="normal" in="SourceGraphic" in2="effect1_dropShadow" result="shape"/>
</filter>
<linearGradient id="paint0_linear" x1="164.988" y1="72.7727" x2="17.6564" y2="108.519" gradientUnits="userSpaceOnUse">
<stop stop-color="white"/>
<stop offset="1" stop-color="white" stop-opacity="0"/>
</linearGradient>
</defs>
</svg>
