<svg width="183" height="182" viewBox="0 0 183 182" fill="none" xmlns="http://www.w3.org/2000/svg">
<circle cx="91.5" cy="91.5" r="70.5" fill="#FFE4DE"/>
<g filter="url(#filter0_d)">
<path d="M166.842 82.5532C166.494 79.656 165.953 76.751 165.245 73.8318C155.348 33.0409 114.365 7.99847 73.6656 17.873C32.9923 27.7414 8.01651 68.787 17.9134 109.578C26.3373 144.298 57.3205 167.609 91.4254 167.677" stroke="#DC8A74" stroke-width="3" stroke-miterlimit="10"/>
<path d="M166.842 82.5532C166.494 79.656 165.953 76.751 165.245 73.8318C155.348 33.0409 114.365 7.99847 73.6656 17.873C32.9923 27.7414 8.01651 68.787 17.9134 109.578C26.3373 144.298 57.3205 167.609 91.4254 167.677" stroke="url(#paint0_linear)" stroke-width="3" stroke-miterlimit="10"/>
</g>
<path d="M74.3476 128.711C73.9619 128.557 73.6019 128.364 73.3576 127.99C72.7533 127.062 73.2676 125.864 74.2962 125.632C74.6176 125.555 74.9519 125.568 75.2734 125.529C76.212 125.4 77.0348 125.014 77.742 124.37C78.462 123.713 78.9506 122.914 79.1692 121.96C79.2463 121.625 79.272 121.277 79.3363 120.904C79.182 120.904 79.0792 120.904 78.9763 120.904C72.6247 120.904 66.2731 120.904 59.9215 120.904C59.0344 120.904 58.2629 120.582 57.5686 120.054C56.7714 119.435 56.2957 118.611 56.0643 117.644C56.0129 117.451 56 117.245 56 117.039C56 104.052 56 91.0648 56 78.0779C56 77.2405 56.2957 76.4803 56.7843 75.8103C57.4529 74.8956 58.3786 74.3802 59.4844 74.1741C59.703 74.1354 59.9344 74.1226 60.1658 74.1226C64.8974 74.1226 69.6418 74.1226 74.3733 74.1226C74.7076 74.1226 74.7076 74.1226 74.7076 74.4575C74.7076 75.4238 75.0034 76.287 75.5691 77.073C75.6077 77.1245 75.6334 77.1889 75.6848 77.2791C75.5691 77.292 75.4662 77.3049 75.3762 77.3049C70.2847 77.3049 65.1802 77.3049 60.0887 77.3049C59.8701 77.3049 59.6901 77.3564 59.5101 77.4852C59.2787 77.6527 59.1758 77.8718 59.1372 78.1294C59.1244 78.181 59.1372 78.2454 59.1372 78.2969C59.1372 88.2304 59.1372 98.1638 59.1372 108.097C59.1372 108.2 59.1372 108.303 59.1372 108.419C76.7648 108.419 94.3796 108.419 112.007 108.419C112.007 103.227 112.007 98.0479 112.007 92.8428C112.084 92.8299 112.149 92.817 112.213 92.817C113.1 92.817 113.987 92.817 114.887 92.817C115.093 92.817 115.144 92.8815 115.144 93.0876C115.144 100.998 115.157 108.896 115.132 116.807C115.132 118.649 113.987 120.221 112.097 120.775C111.827 120.852 111.531 120.891 111.236 120.891C104.871 120.891 98.494 120.891 92.1295 120.891C92.0267 120.891 91.9238 120.891 91.8081 120.891C91.8081 122.012 92.1552 122.965 92.8367 123.803C93.5053 124.64 94.3539 125.181 95.3953 125.426C95.7296 125.503 96.0768 125.542 96.4239 125.555C97.3239 125.581 98.0182 126.264 97.9925 127.165C97.9797 127.861 97.5554 128.454 96.8225 128.647C96.7839 128.66 96.7582 128.686 96.7325 128.699C89.2366 128.711 81.7921 128.711 74.3476 128.711ZM59.0987 111.589C59.0987 111.705 59.0987 111.795 59.0987 111.885C59.0987 113.509 59.1244 115.145 59.0858 116.768C59.0729 117.283 59.5872 117.786 60.1144 117.786C77.0477 117.773 93.981 117.773 110.927 117.773C110.979 117.773 111.043 117.773 111.094 117.773C111.364 117.747 111.583 117.631 111.763 117.399C111.943 117.155 111.981 116.884 111.981 116.601C111.994 115.016 111.981 113.431 111.981 111.834C111.981 111.756 111.981 111.679 111.981 111.589C94.341 111.589 76.7391 111.589 59.0987 111.589ZM80.7121 125.555C83.9264 125.555 87.1151 125.555 90.3423 125.555C89.2752 124.163 88.658 122.63 88.6066 120.917C86.5237 120.917 84.4793 120.917 82.4221 120.917C82.3835 122.669 81.7535 124.176 80.7121 125.555Z" fill="#B86B56"/>
<path d="M122.846 78.8253C122.846 85.6022 122.846 92.3404 122.846 99.0916C121.805 99.0916 120.776 99.0916 119.735 99.0916C119.735 92.3404 119.735 85.6022 119.735 78.8381C118.192 78.8381 116.674 78.8381 115.106 78.8381C115.106 78.9283 115.106 79.0185 115.106 79.1216C115.106 82.0978 115.106 85.0739 115.106 88.063C115.106 88.8102 114.694 89.5189 113.91 89.6863C113.82 89.6992 113.743 89.725 113.653 89.725C106.26 89.725 98.854 89.725 91.4609 89.725C90.9852 89.725 90.6123 89.4802 90.3166 89.1323C89.918 88.6814 89.5452 88.2176 89.1466 87.7666C88.6066 87.1353 88.0537 86.504 87.5137 85.8856C87.1151 85.4347 86.7165 84.9966 86.3179 84.5457C85.8036 83.953 85.2893 83.3604 84.775 82.7677C84.3893 82.3168 83.9907 81.8787 83.605 81.4407C83.0779 80.8351 82.5636 80.2296 82.0364 79.6241C81.6507 79.1731 81.2521 78.7351 80.8664 78.297C80.3392 77.6915 79.8249 77.0859 79.2978 76.4804C78.9377 76.0681 78.6035 75.6558 78.2177 75.2564C77.652 74.6638 77.6134 73.8907 78.0634 73.1821C79.0663 71.6361 80.0564 70.0771 81.0464 68.5182C81.7793 67.3715 82.4993 66.2248 83.2322 65.0653C83.0907 64.8978 82.9364 64.7303 82.7821 64.5628C82.1778 63.9186 81.5607 63.2744 80.9564 62.6302C80.4806 62.1278 79.9921 61.6124 79.5292 61.0971C79.002 60.5173 78.4235 59.9633 77.9734 59.332C77.3177 58.3915 78.0634 57.2061 78.9892 57.0515C79.2078 57.0129 79.4263 57 79.6449 57C88.3109 57 96.9768 57 105.643 57C106.144 57 106.556 57.1675 106.916 57.5282C113.113 63.7511 119.31 69.9612 125.52 76.1712C125.958 76.6092 126.099 77.1246 125.932 77.7172C125.752 78.3228 125.328 78.6706 124.736 78.8253C124.672 78.8381 124.595 78.8253 124.518 78.8253C123.952 78.8253 123.412 78.8253 122.846 78.8253ZM120.622 75.6945C120.532 75.5914 120.48 75.5399 120.429 75.4883C115.376 70.425 110.31 65.3487 105.257 60.2854C105.141 60.1694 105.013 60.1179 104.846 60.1179C97.6325 60.1179 90.4066 60.1179 83.1936 60.1179C83.1036 60.1179 83.0264 60.1179 82.8979 60.1179C83.3864 60.659 83.8493 61.1615 84.3122 61.6511C85.0579 62.4499 85.8036 63.2358 86.5494 64.0346C87.0251 64.5499 87.5008 65.0524 87.9766 65.5678C88.7866 66.431 89.6095 67.2942 90.4195 68.1574C90.8309 68.5955 91.2295 69.0464 91.6409 69.4845C92.4124 70.309 93.171 71.1207 93.9424 71.9453C94.4053 72.4349 94.8553 72.9373 95.3182 73.4269C95.9739 74.1226 96.6425 74.8184 97.2982 75.5141C97.4268 75.6558 97.5554 75.6945 97.7482 75.6945C105.27 75.6945 112.792 75.6945 120.313 75.6945C120.403 75.6945 120.48 75.6945 120.622 75.6945ZM85.4436 67.423C85.3922 67.4875 85.3408 67.5261 85.3151 67.5776C84.7493 68.4795 84.1836 69.3943 83.605 70.2833C82.8464 71.4815 82.075 72.6668 81.3292 73.8521C81.2907 73.9036 81.3035 74.0196 81.3421 74.0711C81.6893 74.4834 82.0364 74.8828 82.3964 75.2822C82.9364 75.9006 83.4636 76.519 84.0036 77.1375C84.3765 77.5755 84.7622 78.0007 85.1479 78.4259C85.6879 79.0443 86.2151 79.6627 86.7551 80.2811C87.0123 80.5775 87.2823 80.8738 87.5394 81.1701C88.0537 81.7628 88.568 82.3683 89.0952 82.9739C89.4937 83.4248 89.8923 83.8628 90.2909 84.3138C90.9081 85.0224 91.5124 85.7439 92.1295 86.4396C92.2067 86.5298 92.361 86.5813 92.4895 86.5813C98.9054 86.5942 105.308 86.5813 111.724 86.5813C111.814 86.5813 111.891 86.5813 111.981 86.5813C111.981 83.9788 111.981 81.402 111.981 78.8124C111.866 78.8124 111.75 78.8124 111.647 78.8124C106.697 78.8124 101.734 78.8124 96.7839 78.8124C96.3339 78.8124 95.9482 78.632 95.6525 78.3099C95.0225 77.6399 94.4053 76.97 93.7753 76.2871C93.3767 75.862 92.991 75.4239 92.5795 74.9987C91.8081 74.1742 91.0495 73.3625 90.2781 72.5379C89.8152 72.0483 89.3652 71.5459 88.9023 71.0563C88.2594 70.3734 87.6166 69.7035 86.9737 69.0206C86.4465 68.5053 85.9579 67.977 85.4436 67.423Z" fill="#B86B56"/>
<path d="M124.106 105.379C124.106 106.938 122.795 108.239 121.239 108.239C119.683 108.226 118.385 106.925 118.397 105.366C118.41 103.82 119.696 102.532 121.252 102.519C122.807 102.506 124.119 103.82 124.106 105.379Z" fill="#B86B56"/>
<path d="M87.0765 114.707C87.0894 115.505 86.4079 116.253 85.5079 116.24C84.6465 116.24 83.965 115.531 83.9522 114.668C83.9393 113.843 84.685 113.096 85.5208 113.109C86.3565 113.122 87.1022 113.792 87.0765 114.707Z" fill="#B86B56"/>
<defs>
<filter id="filter0_d" x="8.24826" y="12.2207" width="166.083" height="166.957" filterUnits="userSpaceOnUse" color-interpolation-filters="sRGB">
<feFlood flood-opacity="0" result="BackgroundImageFix"/>
<feColorMatrix in="SourceAlpha" type="matrix" values="0 0 0 0 0 0 0 0 0 0 0 0 0 0 0 0 0 0 127 0"/>
<feOffset dy="4"/>
<feGaussianBlur stdDeviation="3"/>
<feColorMatrix type="matrix" values="0 0 0 0 1 0 0 0 0 1 0 0 0 0 1 0 0 0 0.25 0"/>
<feBlend mode="normal" in2="BackgroundImageFix" result="effect1_dropShadow"/>
<feBlend mode="normal" in="SourceGraphic" in2="effect1_dropShadow" result="shape"/>
</filter>
<linearGradient id="paint0_linear" x1="164.988" y1="72.7727" x2="17.6564" y2="108.519" gradientUnits="userSpaceOnUse">
<stop stop-color="white"/>
<stop offset="1" stop-color="white" stop-opacity="0"/>
</linearGradient>
</defs>
</svg>
