<svg width="183" height="182" viewBox="0 0 183 182" fill="none" xmlns="http://www.w3.org/2000/svg">
<circle cx="91.5" cy="91.5" r="70.5" fill="#FFE4DE"/>
<g filter="url(#filter0_d)">
<path d="M166.842 82.5532C166.494 79.656 165.953 76.751 165.245 73.8318C155.348 33.0409 114.365 7.99847 73.6656 17.873C32.9923 27.7414 8.01651 68.787 17.9134 109.578C26.3373 144.298 57.3205 167.609 91.4254 167.677" stroke="#DC8A74" stroke-width="3" stroke-miterlimit="10"/>
<path d="M166.842 82.5532C166.494 79.656 165.953 76.751 165.245 73.8318C155.348 33.0409 114.365 7.99847 73.6656 17.873C32.9923 27.7414 8.01651 68.787 17.9134 109.578C26.3373 144.298 57.3205 167.609 91.4254 167.677" stroke="url(#paint0_linear)" stroke-width="3" stroke-miterlimit="10"/>
</g>
<path d="M109.854 93.6938C109.446 93.3266 109.018 92.9402 108.609 92.5731C105.789 90.0031 102.988 87.4332 100.148 84.8827C99.9537 84.7088 99.6036 84.6121 99.3119 84.6121C95.2467 84.5928 91.1815 84.6121 87.1163 84.5928C82.5648 84.5928 78.7525 81.4626 77.8772 77.0184C77.7605 76.458 77.7216 75.8783 77.7216 75.2987C77.7021 73.3084 77.7021 71.3375 77.7216 69.3473C77.741 64.1882 81.9424 60.0145 87.1357 60.0145C95.5384 59.9952 103.941 59.9952 112.344 60.0145C117.343 60.0338 121.486 64.1882 121.505 69.1541C121.505 71.2216 121.505 73.3084 121.505 75.3759C121.505 80.4191 117.42 84.5349 112.344 84.6121C111.916 84.6121 111.507 84.6508 111.08 84.6121C110.652 84.5735 110.535 84.7281 110.535 85.1532C110.554 87.897 110.535 90.6601 110.535 93.4039C110.515 93.7517 110.107 93.9256 109.854 93.6938ZM107.617 87.7617C107.637 87.5492 107.656 87.4332 107.656 87.3366C107.656 86.4285 107.656 85.501 107.656 84.5928C107.676 82.989 108.882 81.791 110.496 81.7717C111.099 81.7524 111.702 81.7717 112.285 81.7717C115.65 81.7524 118.568 78.912 118.607 75.5692C118.626 73.405 118.646 71.2216 118.607 69.0575C118.549 65.676 115.631 62.8549 112.227 62.8549C103.883 62.8549 95.5579 62.8549 87.2135 62.8549C83.3623 62.8549 80.5808 65.6374 80.5614 69.4632C80.5614 71.4341 80.5614 73.3857 80.5614 75.3566C80.5808 78.912 83.4595 81.7717 87.0385 81.7717C91.2009 81.7717 95.3634 81.791 99.5258 81.7717C100.498 81.7717 101.315 82.0616 102.035 82.7379C103.766 84.3416 105.517 85.9261 107.248 87.5105C107.345 87.5492 107.442 87.6265 107.617 87.7617Z" fill="#C06E58"/>
<path d="M104.486 131.914C104.875 124.842 108.143 119.876 114.697 117.055C111.858 115.007 110.399 112.263 110.652 108.765C110.827 106.35 111.916 104.341 113.725 102.737C117.284 99.5872 122.886 99.877 126.251 103.452C128.138 105.461 128.877 107.877 128.566 110.601C128.235 113.326 126.835 115.432 124.539 117.055C124.734 117.151 124.87 117.229 125.006 117.287C130.958 119.915 134.129 124.494 134.693 130.89C134.79 131.895 134.751 131.895 133.701 131.895C124.87 131.895 116.02 131.895 107.189 131.895C106.353 131.914 105.478 131.914 104.486 131.914ZM107.773 128.996C115.709 128.996 123.606 128.996 131.522 128.996C130.666 124.224 126.115 119.103 119.638 119.103C113.102 119.103 108.57 124.339 107.773 128.996ZM125.804 109.519C125.843 106.215 123.1 103.432 119.735 103.374C116.409 103.316 113.55 106.06 113.511 109.364C113.472 112.823 116.156 115.586 119.58 115.625C123.022 115.664 125.765 112.978 125.804 109.519Z" fill="#C06E58"/>
<path d="M63.1141 117.17C64.1061 117.711 65.0981 118.137 65.9733 118.716C69.9024 121.267 72.2559 124.841 73.0145 129.44C73.1312 130.175 73.1507 130.909 73.2285 131.643C73.2674 131.952 73.1312 132.068 72.8005 132.068C63.542 132.068 54.2835 132.068 45.0249 132.068C44.4997 132.068 43.994 132.029 43.4689 132.049C43.0993 132.068 42.9826 131.933 43.002 131.566C43.1187 128.725 43.8579 126.078 45.375 123.663C47.145 120.784 49.5958 118.697 52.7663 117.441C52.9025 117.383 53.0192 117.306 53.1942 117.209C50.3155 115.122 48.8956 112.398 49.1485 108.9C49.3235 106.562 50.335 104.611 52.0661 103.046C55.6645 99.7801 61.2468 99.9733 64.6701 103.548C66.5958 105.558 67.3932 107.973 67.082 110.717C66.7708 113.441 65.3898 115.567 63.1141 117.17ZM46.2698 129.17C54.2057 129.17 62.0832 129.17 69.9802 129.17C69.3772 124.996 65.2537 119.702 58.9711 119.296C51.5798 118.794 46.9311 124.745 46.2698 129.17ZM51.9688 109.635C51.9494 112.977 54.6725 115.76 58.018 115.799C61.4608 115.837 64.2811 113.113 64.3006 109.712C64.32 106.33 61.5386 103.567 58.0958 103.548C54.7697 103.529 51.9883 106.292 51.9688 109.635Z" fill="#C06E58"/>
<path d="M78.7719 115.315C78.7719 115.064 78.7719 114.832 78.7719 114.581C78.7719 112.861 78.7525 111.142 78.7719 109.422C78.7719 109.016 78.6163 108.9 78.2273 108.9C77.0213 108.939 75.8349 108.842 74.7262 108.282C72.2948 107.065 70.9138 105.113 70.7971 102.408C70.7193 100.553 70.6999 98.6786 70.8944 96.843C71.2445 93.5195 74.0454 90.9882 77.4104 90.9689C83.6346 90.9303 89.8394 90.9303 96.0636 90.9689C99.662 90.9882 102.599 93.9446 102.657 97.5C102.696 99.1424 102.696 100.785 102.657 102.427C102.56 105.886 99.7009 108.784 96.2192 108.862C93.2238 108.939 90.2284 108.9 87.233 108.881C86.7467 108.881 86.3771 109.016 86.027 109.345C83.7902 111.412 81.5145 113.46 79.2582 115.509C79.0637 115.702 78.7719 115.567 78.7719 115.315ZM81.6895 109.422C81.8646 109.287 81.9813 109.19 82.098 109.094C82.876 108.398 83.6735 107.702 84.4126 106.968C85.0934 106.311 85.8909 106.06 86.8245 106.06C89.7616 106.079 92.7181 106.06 95.6551 106.06C98.0865 106.06 99.7592 104.456 99.7981 102.041C99.8176 100.572 99.8176 99.1231 99.7981 97.6545C99.7592 95.703 98.281 94.0219 96.2581 93.848C96.0831 93.8287 95.908 93.8093 95.7329 93.8093C89.7032 93.8093 83.6929 93.8093 77.6632 93.8093C75.582 93.8093 73.7342 95.2392 73.598 97.5193C73.5008 99.1231 73.5397 100.727 73.6175 102.331C73.7147 104.456 75.4069 106.021 77.566 106.041C77.955 106.041 78.344 106.041 78.733 106.041C80.0557 106.079 81.0865 106.813 81.4756 108.031C81.6117 108.456 81.6117 108.9 81.6895 109.422Z" fill="#C06E58"/>
<path d="M90.773 70.4296C91.7261 70.4489 92.4847 71.2411 92.4652 72.1879C92.4458 73.1734 91.6678 73.9076 90.6758 73.8883C89.7227 73.869 88.9447 73.0768 88.9641 72.1686C88.9836 71.1445 89.7616 70.4102 90.773 70.4296Z" fill="#C06E58"/>
<path d="M99.4675 70.4292C100.44 70.4292 101.179 71.1828 101.179 72.1489C101.179 73.1537 100.401 73.9073 99.3897 73.8879C98.4366 73.8686 97.6974 73.0957 97.6974 72.1296C97.6974 71.1635 98.456 70.4292 99.4675 70.4292Z" fill="#C06E58"/>
<path d="M108.162 70.4292C109.135 70.4292 109.932 71.2214 109.913 72.1876C109.893 73.1344 109.096 73.9266 108.162 73.9073C107.17 73.8879 106.392 73.1344 106.392 72.1682C106.392 71.1828 107.17 70.4292 108.162 70.4292Z" fill="#C06E58"/>
<path d="M79.2193 99.8387C79.2193 99.1624 79.8417 98.5441 80.4641 98.5634C81.1838 98.5828 81.7673 99.1431 81.7673 99.8387C81.7673 100.534 81.1449 101.114 80.4058 101.095C79.7445 101.095 79.2193 100.515 79.2193 99.8387Z" fill="#C06E58"/>
<path d="M94.4492 99.8194C94.4492 100.554 93.924 101.095 93.2238 101.095C92.5041 101.095 91.9401 100.573 91.9206 99.8774C91.9012 99.2011 92.5236 98.5635 93.2044 98.5635C93.9046 98.5635 94.4492 99.1045 94.4492 99.8194Z" fill="#C06E58"/>
<path d="M86.7662 101.075C86.1048 101.075 85.5602 100.515 85.5602 99.8383C85.5602 99.1427 86.1437 98.5437 86.8829 98.5823C87.4275 98.6017 88.1472 99.0074 88.1277 99.8576C88.1083 100.592 87.5831 101.075 86.7662 101.075Z" fill="#C06E58"/>
<defs>
<filter id="filter0_d" x="8.24826" y="12.2207" width="166.083" height="166.957" filterUnits="userSpaceOnUse" color-interpolation-filters="sRGB">
<feFlood flood-opacity="0" result="BackgroundImageFix"/>
<feColorMatrix in="SourceAlpha" type="matrix" values="0 0 0 0 0 0 0 0 0 0 0 0 0 0 0 0 0 0 127 0"/>
<feOffset dy="4"/>
<feGaussianBlur stdDeviation="3"/>
<feColorMatrix type="matrix" values="0 0 0 0 1 0 0 0 0 1 0 0 0 0 1 0 0 0 0.25 0"/>
<feBlend mode="normal" in2="BackgroundImageFix" result="effect1_dropShadow"/>
<feBlend mode="normal" in="SourceGraphic" in2="effect1_dropShadow" result="shape"/>
</filter>
<linearGradient id="paint0_linear" x1="164.988" y1="72.7727" x2="17.6564" y2="108.519" gradientUnits="userSpaceOnUse">
<stop stop-color="white"/>
<stop offset="1" stop-color="white" stop-opacity="0"/>
</linearGradient>
</defs>
</svg>
