<svg width="64" height="60" viewBox="0 0 64 60" fill="none" xmlns="http://www.w3.org/2000/svg">
<path d="M31.8242 0.00176374C36.4242 0.00176374 41.0243 0.00176374 45.6173 0.00176374C47.9596 0.00176374 50.309 0.0158744 52.6514 0.0229297C53.886 0.029985 54.6833 0.806065 54.6974 2.03368C54.7045 2.59811 54.7397 3.16958 54.6551 3.71989C54.5069 4.6653 53.7097 5.27911 52.7572 5.29322C52.094 5.30028 51.4238 5.31439 50.7606 5.31439C50.5066 5.31439 50.3937 5.39905 50.3655 5.6601C50.2455 6.55612 50.1044 7.45214 49.9774 8.34816C49.9139 8.77853 49.9563 8.82792 50.3937 8.82792C52.8066 8.82792 55.2195 8.82792 57.6324 8.84203C59.3327 8.84908 60.8355 9.40645 62.0631 10.6058C63.2837 11.7982 63.8199 13.2163 63.5094 14.9448C63.1778 16.7722 62.9309 18.6206 62.6275 20.455C62.3947 21.8661 62.2677 23.3053 61.661 24.6317C60.9766 26.1204 59.9606 27.2704 58.4155 27.8913C57.7664 28.1523 57.0891 28.237 56.3907 28.237C53.4698 28.2299 50.5489 28.237 47.628 28.237C47.1412 28.237 47.1553 28.244 47.0706 28.7167C46.8449 29.9796 46.7249 31.2778 46.3369 32.4913C45.2292 36.0119 42.901 38.453 39.4509 39.8006C38.7807 40.0616 38.0681 40.2168 37.3696 40.3862C37.1157 40.4497 37.0733 40.5908 37.0733 40.8095C37.0804 42.658 37.0804 44.5135 37.0804 46.362C37.0804 47.2439 37.0804 48.1329 37.0592 49.0148C37.0522 49.3252 37.165 49.4381 37.4825 49.4381C38.5479 49.4381 39.6203 49.431 40.6856 49.4804C41.5534 49.5157 42.3295 50.3341 42.3436 51.216C42.3648 52.239 42.3648 53.2621 42.3436 54.2851C42.3366 54.6237 42.4212 54.7507 42.781 54.7366C43.7335 54.7084 44.686 54.7225 45.6455 54.7225C46.6967 54.7225 47.5434 55.4351 47.628 56.4793C47.6774 57.086 47.628 57.6928 47.621 58.3066C47.6068 59.1038 46.7179 60.014 45.716 59.9998C44.0933 59.9716 42.4706 59.9928 40.8549 59.9928C37.165 59.9928 33.4751 59.9928 29.7852 59.9928C26.0953 59.9928 22.4054 59.9928 18.7155 59.9928C18.3698 59.9928 18.0241 60.0069 17.6784 59.9857C16.7753 59.9293 16.0063 59.2731 15.9287 58.3771C15.8722 57.6293 15.8863 56.8602 16.0063 56.1194C16.1333 55.3081 16.8882 54.7578 17.7207 54.7366C18.7437 54.7154 19.7667 54.7225 20.7897 54.7366C21.0931 54.7437 21.1919 54.6308 21.1919 54.3345C21.1848 53.3114 21.1707 52.2884 21.2201 51.2654C21.2695 50.2001 21.9891 49.4875 23.0545 49.4451C24.0563 49.4099 25.0511 49.424 26.053 49.4381C26.4128 49.4451 26.4975 49.304 26.4975 48.9724C26.4833 46.2491 26.4834 43.5258 26.4834 40.8024C26.4834 40.5273 26.3775 40.4285 26.1165 40.3721C22.2149 39.5748 19.3999 37.3806 17.6854 33.7824C17.1281 32.6113 16.8176 31.3695 16.6836 30.0784C16.6271 29.5775 16.5142 29.0836 16.4649 28.5756C16.4366 28.2793 16.3026 28.2088 16.0204 28.2088C13.2053 28.2229 10.3903 28.2088 7.56815 28.2229C6.74974 28.2229 5.93839 28.1735 5.16231 27.8701C3.63131 27.2775 2.62241 26.1345 1.93099 24.6882C1.46534 23.7287 1.26074 22.6915 1.10552 21.6474C0.900922 20.3069 0.675149 18.9734 0.484657 17.6329C0.30122 16.363 0.0684008 15.093 0.00490335 13.816C-0.0656494 12.4543 0.632815 11.3749 1.60644 10.4788C2.46013 9.6816 3.48315 9.18068 4.612 8.95491C5.30342 8.8138 6.0301 8.8138 6.74268 8.8138C8.9016 8.80675 11.0676 8.82086 13.2265 8.83497C13.5299 8.83497 13.6286 8.75736 13.5792 8.43282C13.4311 7.52974 13.3112 6.61256 13.1983 5.70243C13.1559 5.37083 13.0219 5.27911 12.6832 5.27911C11.9071 5.28617 11.117 5.28617 10.3479 5.2015C9.52952 5.10978 8.85927 4.26315 8.84516 3.43063C8.83811 2.97204 8.8381 2.51344 8.8381 2.05485C8.84516 0.848397 9.65652 0.00881918 10.863 0.00881918C13.2759 -0.00529138 15.6888 0.00176374 18.1087 0.00176374C21.4318 0.00176374 24.7548 0.00176374 28.0778 0.00176374C29.3196 0.00881901 30.5754 0.00881901 31.8242 0.00176374C31.8242 0.00881901 31.8242 0.00881901 31.8242 0.00176374ZM31.8383 9.97792C31.803 9.97792 31.7748 9.97087 31.7395 9.97087C31.6901 10.0696 31.6266 10.1614 31.5843 10.2672C30.7659 12.2286 29.9404 14.1829 29.1361 16.1442C29.0233 16.4194 28.8821 16.5605 28.5647 16.5817C26.4692 16.7369 24.3738 16.9133 22.2784 17.0826C22.1302 17.0967 21.9891 17.132 21.841 17.1602C21.8198 17.2025 21.8057 17.2519 21.7845 17.2942C21.8833 17.3648 21.9962 17.4283 22.0879 17.5059C23.7247 18.9099 25.3686 20.3139 26.9913 21.732C27.0972 21.8237 27.1677 22.0424 27.1395 22.1765C26.9631 23.0161 26.7444 23.8486 26.5469 24.6882C26.2435 25.9722 25.9472 27.2563 25.6438 28.5404C25.6156 28.6462 25.6226 28.7661 25.6155 28.9566C25.806 28.8367 25.926 28.7732 26.0389 28.7026C27.845 27.6091 29.6582 26.5225 31.4644 25.4219C31.6972 25.2808 31.8736 25.2879 32.0993 25.4219C33.6656 26.3814 35.2389 27.3339 36.8052 28.2793C37.158 28.498 37.5178 28.7026 37.9411 28.9566C37.9341 28.7732 37.9411 28.6674 37.92 28.5756C37.7788 27.9618 37.6307 27.348 37.4825 26.7342C37.1368 25.2949 36.7911 23.8557 36.4384 22.4234C36.3537 22.0848 36.4172 21.8308 36.7135 21.5839C38.3151 20.2222 39.9025 18.8394 41.4899 17.4636C41.5675 17.393 41.6381 17.3084 41.7721 17.1673C41.5393 17.132 41.3982 17.0967 41.2571 17.0896C39.1405 16.9133 37.0239 16.7369 34.9073 16.5676C34.6886 16.5534 34.5616 16.4688 34.477 16.2501C33.9267 14.9096 33.3622 13.5832 32.8049 12.2497C32.4803 11.4878 32.1628 10.7328 31.8383 9.97792ZM52.0587 22.9737C53.2864 22.9737 54.521 22.9737 55.7486 22.9737C56.2284 22.9737 56.6164 22.7903 56.814 22.3529C56.9621 22.0354 57.0468 21.6826 57.1174 21.3369C57.3855 20.0105 57.6395 18.6771 57.8934 17.3507C58.0275 16.6522 58.1757 15.9537 58.2392 15.2482C58.2956 14.6203 57.8088 14.1617 57.1809 14.1405C56.6658 14.1264 56.1437 14.1335 55.6287 14.1335C53.5968 14.1335 51.5578 14.1405 49.5259 14.1335C49.2366 14.1335 49.1378 14.2393 49.1096 14.5356C49.032 15.2553 48.9191 15.9679 48.8204 16.6875C48.5381 18.6277 48.2489 20.575 47.9737 22.5152C47.9173 22.9173 47.9737 22.9808 48.3829 22.9808C49.5964 22.9737 50.8311 22.9737 52.0587 22.9737ZM10.2351 14.1123C10.2351 14.1194 10.2351 14.1264 10.2351 14.1405C8.99333 14.1405 7.75159 14.1335 6.50986 14.1405C5.76905 14.1476 5.29636 14.6767 5.33869 15.4105C5.3528 15.608 5.37396 15.7985 5.40924 15.989C5.76906 17.8939 6.13594 19.7989 6.49576 21.6967C6.66508 22.6069 7.08134 22.9596 8.00558 22.9596C10.3973 22.9596 12.7891 22.9667 15.1737 22.9667C15.6041 22.9667 15.6394 22.9526 15.59 22.5152C15.4771 21.6262 15.329 20.7443 15.209 19.8624C14.9621 18.0985 14.7152 16.3418 14.4753 14.578C14.4118 14.1405 14.3694 14.1053 13.925 14.1053C12.6903 14.1123 11.4627 14.1123 10.2351 14.1123Z" fill="#4A4A4A"/>
</svg>
