<svg width="86" height="60" viewBox="0 0 86 60" fill="none" xmlns="http://www.w3.org/2000/svg">
<path d="M42.9213 60C37.3475 60 31.7737 60 26.1998 60C24.9581 60 23.9915 59.5132 23.4411 58.3843C23.2365 57.961 23.1519 57.4459 23.1448 56.9732C23.1237 51.7522 23.1237 46.5311 23.1378 41.303C23.1378 40.3293 23.166 39.3416 23.3283 38.3891C23.6105 36.6746 24.3443 35.1295 25.5507 33.8736C26.2492 33.1469 27.0747 32.533 27.879 31.9122C28.3447 31.5523 29.0361 31.4465 29.5512 32.1591C31.1034 34.2757 32.6909 36.3642 34.2643 38.4667C36.3315 41.2254 38.3917 43.9841 40.459 46.7428C41.5385 48.175 43.133 48.5137 44.537 47.5612C44.8828 47.3213 45.1791 46.9827 45.4401 46.6369C49.0031 41.8957 52.552 37.1473 56.108 32.399C56.2068 32.2649 56.3126 32.1379 56.4255 32.0109C56.7994 31.5947 57.2581 31.5029 57.7378 31.7922C60.8987 33.676 62.6484 36.4488 62.6908 40.1318C62.7543 45.7762 62.7119 51.4135 62.7049 57.0579C62.7049 58.7794 61.4561 59.993 59.7275 59.993C54.1254 60 48.5234 60 42.9213 60Z" fill="#4A4A4A"/>
<path d="M56.0098 12.9682C56.0027 20.1789 50.189 25.9855 42.9854 25.9785C35.7958 25.9714 29.968 20.1013 30.0315 12.8553C30.088 5.7716 35.8311 0.0425572 42.9501 0.000224331C50.2243 -0.0421085 56.0168 5.91271 56.0098 12.9682Z" fill="#4A4A4A"/>
<path d="M19.2505 32.8858C19.0176 33.4009 18.8201 33.8101 18.6437 34.2334C17.7829 36.2654 17.4161 38.3961 17.4231 40.5974C17.4302 45.0071 17.4302 49.4239 17.4231 53.8335C17.4231 54.9412 17.5642 54.8213 16.4424 54.8213C11.9198 54.8213 7.39024 54.8001 2.86768 54.8213C1.25903 54.8283 0.00314266 53.4384 0.0101981 51.9779C0.0172536 50.6092 0.00313577 49.2404 0.00313577 47.8716C0.00313577 45.4728 -0.00391971 43.0669 0.00313577 40.668C0.0101912 38.5937 0.624026 36.731 2.08451 35.2212C3.291 33.9653 4.75147 33.161 6.50829 32.9846C7.32672 32.8999 8.15223 32.8576 8.97066 32.8576C12.1809 32.8435 15.3982 32.8576 18.6084 32.8576C18.7848 32.8505 18.9612 32.8717 19.2505 32.8858Z" fill="#4A4A4A"/>
<path d="M66.6704 32.8506C66.995 32.8506 67.2842 32.8506 67.5735 32.8506C70.939 32.8506 74.3044 32.8365 77.6699 32.8506C78.4178 32.8577 79.1868 32.8859 79.9135 33.0482C81.4869 33.401 82.8415 34.17 83.921 35.3906C85.2192 36.8581 85.819 38.5938 85.826 40.527C85.8401 44.3369 85.8401 48.1469 85.826 51.9639C85.819 53.5585 84.6054 54.7932 83.0179 54.8002C78.2978 54.8214 73.5777 54.8073 68.8576 54.8214C68.4484 54.8214 68.4131 54.6168 68.4131 54.2993C68.4202 50.9197 68.4131 47.5401 68.4131 44.1606C68.4131 42.8765 68.399 41.5924 68.4061 40.3083C68.4131 37.8671 67.8769 35.5529 66.8045 33.3657C66.7551 33.2669 66.7127 33.1611 66.6775 33.0552C66.6775 33.027 66.6775 32.9847 66.6704 32.8506Z" fill="#4A4A4A"/>
<path d="M71.4329 11.8675C76.8657 11.8252 81.3388 16.3336 81.2471 21.858C81.1624 27.0932 76.8445 31.6652 71.0872 31.517C65.8944 31.3759 61.5553 27.0791 61.5694 21.6817C61.5764 16.1925 66.0073 11.8252 71.4329 11.8675Z" fill="#4A4A4A"/>
<path d="M14.4387 31.517C8.83666 31.5029 4.52576 26.9451 4.59631 21.5829C4.66687 16.0937 9.18942 11.7123 14.735 11.8605C20.069 12.0016 24.3658 16.4677 24.2882 21.8722C24.2035 27.192 19.695 31.6017 14.4387 31.517Z" fill="#4A4A4A"/>
<path d="M42.8865 30.5576C44.601 30.5576 46.3225 30.5505 48.037 30.5576C48.5097 30.5576 48.9965 30.607 49.2364 31.0797C49.4834 31.5806 49.2505 32.011 48.9401 32.4273C47.268 34.6427 45.6099 36.8722 43.9448 39.0877C43.7825 39.3064 43.585 39.5251 43.3522 39.6662C42.9077 39.9343 42.3926 39.7579 42.0116 39.2499C40.5652 37.3167 39.1259 35.3835 37.6796 33.4503C37.3903 33.0623 37.0869 32.6742 36.7976 32.2862C36.5295 31.9263 36.4025 31.5171 36.6001 31.1079C36.7976 30.6846 37.2139 30.5717 37.6584 30.5717C39.394 30.5646 41.1367 30.5646 42.8865 30.5576C42.8865 30.5646 42.8865 30.5646 42.8865 30.5576Z" fill="#4A4A4A"/>
</svg>
