<svg width="61" height="60" viewBox="0 0 61 60" fill="none" xmlns="http://www.w3.org/2000/svg">
<path d="M30.0274 22.5501C33.7949 18.7826 37.5413 15.0363 41.2594 11.3111C43.7358 13.7875 46.2052 16.2568 48.6745 18.7262C44.9564 22.4443 41.2241 26.1765 37.4637 29.937C37.5554 30.0358 37.6189 30.1134 37.6894 30.1769C39.1216 31.6091 40.5609 33.0413 41.9931 34.4877C42.1484 34.6429 42.2683 34.664 42.4658 34.5935C43.9616 34.0432 45.5067 33.6763 47.1012 33.7327C54.742 33.9938 59.074 39.7086 59.8148 44.7743C59.9277 45.5503 59.9488 46.3405 59.9771 47.1237C60.0053 48.2031 59.4267 48.9933 58.6718 49.6777C57.543 50.7007 56.2095 50.8277 54.8761 50.3056C53.4227 49.7271 52.6113 48.5559 52.5549 46.9685C52.4985 45.501 52.0399 44.2098 51.0592 43.1233C49.4506 41.3383 46.9389 40.788 44.7447 41.7264C42.5011 42.6859 41.1395 44.9083 41.3158 47.3142C41.5134 49.9317 43.4536 52.013 46.057 52.394C46.6708 52.4857 47.2987 52.5421 47.8984 52.6903C49.5705 53.1136 50.6147 54.6234 50.6147 56.3449C50.6147 58.1934 49.0202 60.0066 46.7061 59.9713C43.7993 59.922 41.1747 59.0259 38.8888 57.2268C36.3983 55.2655 34.7544 52.7538 34.0842 49.6354C33.6397 47.5752 33.7455 45.5221 34.2464 43.4831C34.3241 43.1586 34.4581 42.8411 34.6133 42.5448C34.7262 42.3261 34.7121 42.1991 34.5357 42.0227C32.8495 40.3506 31.1703 38.6644 29.4912 36.9852C25.6602 33.1542 21.8291 29.3232 18.0052 25.4922C17.8711 25.3581 17.7724 25.2664 17.5395 25.3511C13.0312 27.0161 8.86154 26.2753 5.08696 23.4109C2.14491 21.1814 0.557473 18.1265 0.0988798 14.4789C0.000105876 13.6675 0.000105895 12.8491 0.225875 12.0519C0.7268 10.2528 2.45534 9.1592 4.36027 9.44141C5.90538 9.66718 7.15416 10.8948 7.42932 12.4822C7.52104 13.0114 7.56337 13.5546 7.64098 14.0908C7.88791 15.7559 8.82626 16.9765 10.2091 17.8584C13.6239 20.0384 18.1181 17.8866 18.7037 13.851C19.127 10.9371 17.1021 8.1503 14.1601 7.59293C13.6239 7.49416 13.0594 7.51532 12.5232 7.40949C11.091 7.12728 10.0327 6.2877 9.61646 4.89781C8.78393 2.12509 10.8794 0.0155576 13.0171 0.00144699C16.5589 -0.0267741 19.6279 1.21496 22.2031 3.67019C24.616 5.96316 25.9142 8.78527 26.2316 12.0801C26.401 13.7875 26.147 15.4384 25.5614 17.0329C25.385 17.5268 25.4415 17.8654 25.8013 18.2252C27.1982 19.6504 28.6022 21.0967 30.0274 22.5501Z" fill="#4A4A4A"/>
<path d="M26.2174 41.289C26.1257 41.3596 26.034 41.416 25.9493 41.5007C19.8677 47.5823 13.786 53.6569 7.71142 59.7456C7.53504 59.922 7.35866 60.0067 7.09761 59.9996C4.86109 59.9926 2.63162 59.9926 0.395096 59.9926C0.275156 59.9926 0.155216 59.9926 0 59.9926C0 59.8656 0 59.7668 0 59.668C0 57.3821 0 55.0962 0.00705528 52.8103C0.00705528 52.6692 0.0705528 52.4858 0.169327 52.387C6.26509 46.2912 12.3679 40.2096 18.4707 34.1209C18.5554 34.0362 18.6189 33.9233 18.7036 33.8104C21.1941 36.3503 23.6352 38.8338 26.0693 41.3243C26.1257 41.3172 26.1751 41.3031 26.2174 41.289Z" fill="#4A4A4A"/>
<path d="M52.5125 14.9234C50.0431 12.447 47.5738 9.97058 45.0903 7.48007C45.1115 7.4589 45.1609 7.39541 45.2173 7.33896C47.3974 5.18005 49.6057 3.04935 51.7576 0.862216C52.837 -0.231353 55.0947 -0.238408 56.1107 0.580004C57.3595 1.58891 58.4813 2.72481 59.4761 3.98771C59.8218 4.42513 59.9276 4.94722 59.984 5.49754C60.104 6.63344 59.7583 7.57179 58.961 8.38315C56.8162 10.5491 54.6785 12.7221 52.5407 14.8952C52.5337 14.9163 52.5125 14.9234 52.5125 14.9234Z" fill="#4A4A4A"/>
</svg>
