<svg width="23" height="36" viewBox="0 0 23 36" fill="none" xmlns="http://www.w3.org/2000/svg">
<path d="M0.00114059 17.9624C-0.0108776 18.7833 0.277578 19.4221 0.84547 19.9532C3.48512 22.4209 6.12102 24.8922 8.76518 27.355C11.5423 29.9416 14.3277 32.5198 17.1101 35.1008C17.732 35.6776 18.4765 36.0096 19.3584 35.9998C20.1508 35.9906 20.8457 35.7226 21.4166 35.1971C21.5954 35.0325 21.7666 34.8616 21.9507 34.7026C22.5554 34.1813 22.8581 33.5109 22.8889 32.7695C22.9159 32.1061 22.6898 31.4787 22.2512 30.9328C22.0348 30.6633 21.82 30.3883 21.6419 30.0964C20.8126 28.7331 20.0006 27.3613 19.1751 25.9959C18.5043 24.8851 17.8207 23.7814 17.1484 22.6714C16.5061 21.6126 15.8421 20.5645 15.2419 19.4847C14.7296 18.5632 14.695 17.5882 15.1915 16.6441C15.5506 15.9625 15.9713 15.309 16.3709 14.647C16.9493 13.6896 17.5367 12.7357 18.1174 11.779C18.982 10.3545 19.8444 8.92858 20.7082 7.50267C21.1334 6.79992 21.5578 6.09646 21.9852 5.39511C22.0341 5.31491 22.0942 5.23683 22.1618 5.17C23.1278 4.21681 23.1729 2.54118 22.1993 1.54015C21.8891 1.22149 21.5713 0.903524 21.219 0.627768C20.1005 -0.247335 18.4539 -0.208645 17.3444 0.750873C16.8847 1.14762 16.4573 1.57744 16.0126 1.98966C13.0447 4.74511 10.0775 7.50197 7.10808 10.256C5.04533 12.1687 2.98258 14.0807 0.913076 15.9871C0.298611 16.552 -0.0221462 17.2188 0.00114059 17.9624Z" fill="#DC8A74"/>
</svg>
